<svg width="556" height="394" viewBox="0 0 556 394" fill="none" xmlns="http://www.w3.org/2000/svg">
<g clip-path="url(#clip0_171_1094)">
<path opacity="0.1" d="M184.847 393.778C211.924 393.778 233.874 390.252 233.874 385.901C233.874 381.55 211.924 378.023 184.847 378.023C157.77 378.023 135.82 381.55 135.82 385.901C135.82 390.252 157.77 393.778 184.847 393.778Z" fill="#469BB1"/>
<path opacity="0.1" d="M451.35 394C485.137 394 512.528 390.473 512.528 386.122C512.528 381.772 485.137 378.245 451.35 378.245C417.562 378.245 390.172 381.772 390.172 386.122C390.172 390.473 417.562 394 451.35 394Z" fill="#469BB1"/>
<path opacity="0.1" d="M6.96354 170.236H58.0282V239.866H10.7019C10.5762 240.581 10.4554 241.301 10.3246 242.021H58.0282V298.175C57.9426 298.15 57.8671 298.12 57.7866 298.09C56.4382 297.556 55.0998 296.992 53.7614 296.388L52.9061 296.001C51.5644 295.367 50.2226 294.695 48.8809 293.987C48.413 293.741 47.945 293.484 47.4821 293.222C40.0334 289.048 33.2667 283.759 27.4166 277.538C27.2455 277.371 27.0845 277.195 26.9134 277.034C26.0983 276.148 25.2983 275.252 24.5234 274.336L23.6681 273.329C22.7524 272.207 21.8668 271.054 21.0064 269.887C20.8806 269.715 20.7599 269.544 20.6291 269.383C17.1299 264.529 14.2245 259.274 11.9749 253.729C11.9045 253.563 11.8441 253.381 11.7787 253.225C11.0877 251.447 10.4755 249.651 9.94219 247.839C9.71074 247.079 9.48935 246.329 9.29816 245.539C9.22771 245.307 9.16734 245.081 9.11199 244.854C6.2541 233.695 5.91699 222.103 5.91699 210.591C5.91699 209.247 5.91699 207.898 5.91699 206.564C5.91699 201.908 5.97234 197.221 6.05284 192.54C6.05284 191.327 6.10316 190.119 6.12831 188.901C6.19875 185.81 6.29939 182.72 6.4302 179.629C6.46039 178.768 6.50065 177.913 6.54593 177.057C6.54593 176.564 6.57109 176.07 6.6214 175.577C6.74216 173.785 6.84279 172.008 6.96354 170.236Z" fill="#469BB1"/>
<path opacity="0.1" d="M58.0284 92.7088H30.0181C34.5713 85.5791 39.5462 78.7279 44.9163 72.1919C49.0774 67.0777 53.4699 62.0945 58.0284 57.2924V92.7088Z" fill="#469BB1"/>
<path opacity="0.1" d="M58.0281 94.8632V168.082H7.12451C7.12451 167.871 7.15973 167.654 7.17483 167.443C7.22011 166.864 7.26539 166.285 7.31571 165.711C7.37105 165.037 7.43143 164.357 7.49684 163.698C7.56225 163.038 7.63269 162.233 7.70816 161.503C7.78364 160.773 7.85408 160.033 7.93961 159.303C8.02515 158.573 8.10062 157.844 8.19119 157.119C8.28175 156.394 8.36226 155.659 8.45786 154.934C8.53333 154.33 8.61383 153.731 8.69433 153.127C8.81006 152.276 8.93082 151.421 9.06164 150.575C9.06164 150.449 9.09686 150.318 9.11698 150.198C10.0353 144.007 11.2866 137.871 12.8654 131.815C14.5181 125.462 16.6284 119.238 19.18 113.191C21.8918 106.864 25.0669 100.747 28.6794 94.8884L58.0281 94.8632Z" fill="#469BB1"/>
<path opacity="0.1" d="M70.2197 170.231V239.866H179.287V170.231H70.2197ZM70.2197 242.016V301.815C70.8436 301.946 71.4625 302.071 72.0763 302.177C72.9116 302.338 73.7418 302.484 74.5921 302.61C74.7531 302.635 74.9191 302.66 75.0952 302.675C75.4273 302.731 75.7695 302.776 76.1015 302.821C76.9418 302.937 77.777 303.033 78.6173 303.108C79.0148 303.149 79.4173 303.184 79.8198 303.214L80.7909 303.29C81.3192 303.33 81.8425 303.36 82.3607 303.375C82.6827 303.375 83.0047 303.405 83.3368 303.415C83.5884 303.415 83.84 303.415 84.1016 303.415C84.3632 303.415 84.7356 303.415 85.0526 303.415C85.4853 303.415 85.918 303.415 86.3457 303.415H86.9243C87.357 303.415 87.7897 303.415 88.2174 303.375H88.2476C88.5444 303.375 88.8463 303.375 89.1482 303.335C89.232 303.34 89.316 303.34 89.3998 303.335C89.6513 303.335 89.9029 303.335 90.1444 303.3H90.3205L92.0061 303.169C92.5596 303.118 93.118 303.053 93.6816 302.993L94.8288 302.857C99.4959 302.202 104.111 301.22 108.64 299.917C118.814 297.078 128.766 293.107 138.935 290.197C152.082 286.447 166.608 284.605 179.313 289.19V242.016H70.2197ZM179.287 92.7089V0.00505804C167.346 -0.124368 155.438 1.27286 143.851 4.16281C116.233 11.1041 91.4526 26.1596 70.2197 45.388V92.7038H75.694V94.8532H70.2197V168.082H179.287V94.8582H98.1697V92.7089H179.287ZM319.379 61.3949C312.546 61.1532 305.754 58.9888 299.61 55.6465C287.862 49.2538 278.478 39.3829 267.993 31.0523C246.206 13.7015 219.187 3.2316 191.469 0.634258V92.7089H347.168L347.556 92.3012L319.379 61.3949ZM333.563 58.8781L348.602 75.3883V54.5492C343.566 55.1733 339.153 56.6582 333.583 58.8579L333.563 58.8781ZM348.602 316.664V242.016H316.557C316.471 241.698 316.385 241.376 316.285 241.054C316.38 241.376 316.461 241.698 316.551 242.016H191.489V296.001C192.676 296.882 193.849 297.808 195.011 298.749C196.264 299.756 197.501 300.818 198.744 301.86L199.997 302.897C200.596 303.4 201.199 303.904 201.808 304.377C203.016 305.357 204.235 306.323 205.466 307.276C206.075 307.78 206.699 308.233 207.318 308.706C217.143 316.221 227.507 323.002 238.327 328.996C240.752 330.338 243.199 331.649 245.668 332.927C247.313 333.768 248.968 334.604 250.629 335.414C253.125 336.632 255.64 337.807 258.176 338.938C281.556 349.437 306.278 356.641 331.636 360.345C337.268 361.178 342.922 361.832 348.597 362.309V316.659H349.1L348.602 316.664ZM191.489 94.8582V168.082H348.622V94.8582H191.489ZM191.489 170.231V239.866H348.622V170.231H191.489ZM360.819 54.4586V77.7037L380.014 56.6331C373.654 55.6062 367.255 54.873 360.819 54.4334V54.4586ZM360.819 170.257V239.866H513.65V170.231L360.819 170.257ZM513.092 322.191L513.63 242.016H360.819V363.109C370.663 363.523 380.522 363.405 390.353 362.757H390.525C395.221 362.461 399.895 362.032 404.547 361.468H404.653C429.474 358.578 453.744 352.099 476.704 342.235L513.092 322.191ZM543.12 181.698C542.546 180.344 541.947 179 541.338 177.671C540.201 175.154 538.999 172.708 537.761 170.262H525.836V239.866H555.985C555.97 220.155 550.984 200.02 543.135 181.673L543.12 181.698ZM525.836 242.041V311.001C534.33 302.857 541.504 293.539 546.672 282.888C552.886 270.063 555.728 256.175 555.96 242.031L525.836 242.041ZM525.836 149.966V168.087H536.644C533.375 161.849 529.772 155.792 525.851 149.941L525.836 149.966ZM422.188 68.1197C421.393 67.8177 420.598 67.5107 419.798 67.2137C411.36 64.0965 402.738 61.5043 393.981 59.4519L364.607 91.7022L364.044 92.3012L364.421 92.7139H468.965C454.405 82.6872 438.708 74.4231 422.203 68.0946L422.188 68.1197ZM472.03 94.8834H362.962L360.819 96.8465V168.082H379.606H379.636H513.67V133.577C501.546 118.907 487.551 105.89 472.045 94.8582L472.03 94.8834Z" fill="#469BB1"/>
<path opacity="0.1" d="M58.0281 131.795V168.082H7.12451C7.12451 167.871 7.15973 167.654 7.17483 167.443C7.22011 166.864 7.26539 166.285 7.31571 165.711C7.37105 165.037 7.43143 164.357 7.49684 163.698C7.56225 163.038 7.63269 162.233 7.70816 161.503C7.78364 160.773 7.85408 160.033 7.93961 159.303C8.02515 158.573 8.10062 157.844 8.19119 157.119C8.28175 156.394 8.36226 155.659 8.45786 154.934C8.53333 154.33 8.61383 153.731 8.69433 153.127C8.81006 152.276 8.93082 151.421 9.06164 150.575C9.06164 150.449 9.09686 150.318 9.11698 150.198C10.0353 144.007 11.2866 137.871 12.8654 131.815L58.0281 131.795Z" fill="#469BB1"/>
<path opacity="0.1" d="M6.96354 170.236H58.0282V239.866H10.7019C10.5762 240.581 10.4554 241.301 10.3246 242.021H58.0282V298.175C57.9426 298.15 57.8671 298.12 57.7866 298.09C56.4382 297.556 55.0998 296.992 53.7614 296.388L52.9061 296.001C51.5644 295.367 50.2226 294.695 48.8809 293.987C48.413 293.741 47.945 293.484 47.4821 293.222C40.0334 289.048 33.2667 283.759 27.4166 277.538C27.2455 277.371 27.0845 277.195 26.9134 277.034C26.0983 276.148 25.2983 275.252 24.5234 274.336L23.6681 273.329C22.7524 272.207 21.8668 271.054 21.0064 269.887C20.8806 269.715 20.7599 269.544 20.6291 269.383C17.1299 264.529 14.2245 259.274 11.9749 253.729C11.9045 253.563 11.8441 253.381 11.7787 253.225C11.0877 251.447 10.4755 249.651 9.94219 247.839C9.71074 247.079 9.48935 246.329 9.29816 245.539C9.22771 245.307 9.16734 245.081 9.11199 244.854C6.2541 233.695 5.91699 222.103 5.91699 210.591C5.91699 209.247 5.91699 207.898 5.91699 206.564C5.91699 201.908 5.97234 197.221 6.05284 192.54C6.05284 191.327 6.10316 190.119 6.12831 188.901C6.19875 185.81 6.29939 182.72 6.4302 179.629C6.46039 178.768 6.50065 177.913 6.54593 177.057C6.54593 176.564 6.57109 176.07 6.6214 175.577C6.74216 173.785 6.84279 172.008 6.96354 170.236Z" fill="#469BB1"/>
<path opacity="0.1" d="M108.615 105.343V168.082H70.2197V105.343H75.694V84.1014H98.1646V105.343H108.615Z" fill="#469BB1"/>
<path opacity="0.1" d="M108.615 170.231H70.2246V239.861H108.615V170.231Z" fill="#469BB1"/>
<path opacity="0.1" d="M70.2197 242.021H108.615V299.907C104.086 301.209 99.4707 302.189 94.8036 302.842L93.6564 302.982C93.0929 303.048 92.5344 303.103 91.9809 303.159C91.4275 303.214 90.8539 303.254 90.2954 303.289H90.1193C89.8778 303.289 89.6161 303.32 89.3797 303.325H89.123C88.8211 303.325 88.5193 303.355 88.2174 303.365C87.7897 303.39 87.362 303.395 86.9243 303.4C86.7381 303.4 86.562 303.4 86.3758 303.4C85.9431 303.4 85.5155 303.4 85.0828 303.4H84.1318C83.8752 303.4 83.6287 303.4 83.362 303.4L82.3909 303.365C81.8878 303.365 81.3444 303.31 80.8211 303.274L79.855 303.204L78.6525 303.093C77.8072 303.018 76.967 302.922 76.1368 302.806L75.1305 302.665L74.6273 302.595C73.7871 302.464 72.9569 302.323 72.1116 302.162C71.4927 302.056 70.8788 301.925 70.2549 301.8L70.2197 242.021Z" fill="#469BB1"/>
<path opacity="0.1" d="M348.622 97.9337H316.964V168.077H348.622V97.9337Z" fill="#469BB1"/>
<path opacity="0.1" d="M348.627 170.231V239.866H191.488V209.831H275.187V227.549H316.964V170.231H348.627Z" fill="#469BB1"/>
<path opacity="0.1" d="M349.125 316.679H348.622V362.359C342.953 361.879 337.301 361.226 331.666 360.401C306.295 356.685 281.562 349.465 258.176 338.947C251.423 335.907 244.809 332.588 238.331 328.991C227.512 322.994 217.146 316.213 207.317 308.701C204.849 306.808 202.412 304.872 200.007 302.892C198.341 301.518 196.686 300.108 195.01 298.739C193.848 297.798 192.676 296.872 191.488 295.986V242.02H316.546C316.46 241.698 316.375 241.376 316.284 241.059C316.38 241.376 316.471 241.698 316.556 242.02H348.622V316.649C348.793 316.654 348.959 316.669 349.125 316.679Z" fill="#469BB1"/>
<path opacity="0.1" d="M431.189 92.7089H410.56V86.2961H419.807V67.1935C420.609 67.4855 421.407 67.7858 422.202 68.0946V86.2961H431.189V92.7089Z" fill="#469BB1"/>
<path opacity="0.1" d="M480.89 168.082H379.616C379.616 168.082 379.616 168.082 379.651 168.107L379.606 168.082H360.818V97.9388H366.142V149.785H390.469V119.08H410.565V94.8632H431.194V119.1H451.29V149.805H480.89V168.082Z" fill="#469BB1"/>
<path opacity="0.1" d="M360.818 170.231V239.866H480.89V170.231H360.818ZM513.484 321.833L513.65 266.715H480.89V242.051H360.818V363.109C370.662 363.523 380.522 363.405 390.353 362.756H390.524C395.22 362.461 399.895 362.032 404.547 361.468H404.653C429.473 358.578 453.743 352.099 476.704 342.234" fill="#469BB1"/>
<path opacity="0.1" d="M527.97 242.021H555.98C555.733 256.16 552.896 270.048 546.687 282.873C541.519 293.529 534.34 302.847 525.856 310.986V266.69H527.97V242.021Z" fill="#469BB1"/>
<path opacity="0.1" d="M555.995 239.866H527.97V181.673H543.135C550.984 200.02 555.97 220.155 555.995 239.866Z" fill="#469BB1"/>
<path opacity="0.1" d="M348.627 117.434H331.666V139.426H348.627V117.434Z" fill="#469BB1"/>
<path opacity="0.1" d="M348.627 163.018H331.666V168.082H348.627V163.018Z" fill="#469BB1"/>
<path opacity="0.1" d="M348.627 170.231H331.666V185.005H348.627V170.231Z" fill="#469BB1"/>
<path opacity="0.1" d="M348.627 208.602H331.666V230.594H348.627V208.602Z" fill="#469BB1"/>
<path opacity="0.1" d="M348.627 254.187H331.666V276.179H348.627V254.187Z" fill="#469BB1"/>
<path opacity="0.1" d="M348.622 316.649C348.793 316.649 348.959 316.649 349.125 316.679H348.622V321.788H331.666V299.771H348.622V316.649Z" fill="#469BB1"/>
<path opacity="0.1" d="M348.622 345.345V362.334C342.953 361.854 337.301 361.201 331.666 360.376V345.345H348.622Z" fill="#469BB1"/>
<path opacity="0.1" d="M264.178 238.25H191.488V239.866H264.178V238.25Z" fill="#469BB1"/>
<path opacity="0.1" d="M264.178 242.016H191.488V248.207H264.178V242.016Z" fill="#469BB1"/>
<path opacity="0.1" d="M264.178 268.502H191.488V278.459H264.178V268.502Z" fill="#469BB1"/>
<path opacity="0.1" d="M264.173 298.754V308.711H207.317C204.849 306.825 202.41 304.889 200.002 302.902C198.336 301.528 196.686 300.118 195.005 298.754H264.173Z" fill="#469BB1"/>
<path opacity="0.1" d="M264.173 329.001V338.948H258.171C251.425 335.904 244.812 332.583 238.332 328.986L264.173 329.001Z" fill="#469BB1"/>
<path opacity="0.1" d="M404.668 176.981H390.358V191.297H404.668V176.981Z" fill="#469BB1"/>
<path opacity="0.1" d="M94.8384 110.281H80.5288V124.597H94.8384V110.281Z" fill="#469BB1"/>
<path opacity="0.1" d="M94.8384 143.533H80.5288V157.849H94.8384V143.533Z" fill="#469BB1"/>
<path opacity="0.1" d="M94.8384 176.785H80.5288V191.101H94.8384V176.785Z" fill="#469BB1"/>
<path opacity="0.1" d="M94.8384 210.032H80.5288V224.348H94.8384V210.032Z" fill="#469BB1"/>
<path opacity="0.1" d="M94.8384 243.284H80.5288V257.599H94.8384V243.284Z" fill="#469BB1"/>
<path opacity="0.1" d="M94.8384 276.536H80.5288V290.851H94.8384V276.536Z" fill="#469BB1"/>
<path opacity="0.1" d="M459.295 176.981H444.985V191.297H459.295V176.981Z" fill="#469BB1"/>
<path opacity="0.1" d="M404.668 212.292H390.358V226.608H404.668V212.292Z" fill="#469BB1"/>
<path opacity="0.1" d="M459.295 212.292H444.985V226.608H459.295V212.292Z" fill="#469BB1"/>
<path opacity="0.1" d="M404.668 247.598H390.358V261.913H404.668V247.598Z" fill="#469BB1"/>
<path opacity="0.1" d="M459.295 247.598H444.985V261.913H459.295V247.598Z" fill="#469BB1"/>
<path opacity="0.1" d="M404.668 282.908H390.358V297.224H404.668V282.908Z" fill="#469BB1"/>
<path opacity="0.1" d="M459.295 282.908H444.985V297.224H459.295V282.908Z" fill="#469BB1"/>
<path opacity="0.1" d="M404.668 318.219H390.358V332.535H404.668V318.219Z" fill="#469BB1"/>
<path opacity="0.1" d="M459.295 318.219H444.985V332.535H459.295V318.219Z" fill="#469BB1"/>
<path opacity="0.1" d="M390.358 362.756V353.525H404.663V361.443L390.358 362.756Z" fill="#469BB1"/>
<path opacity="0.1" d="M9.05664 150.188V158.377H58.0282V150.188H9.05664ZM13.9372 157.864H9.94218V150.691H13.9674L13.9372 157.864ZM18.8127 157.864H14.7875V150.691H18.8127V157.864ZM23.6782 157.864H19.653V150.691H23.6782V157.864ZM28.5537 157.864H24.5335V150.691H28.5587L28.5537 157.864ZM33.4242 157.864H29.399V150.691H33.4242V157.864ZM38.2997 157.864H34.2745V150.691H38.2997V157.864ZM43.1752 157.864H39.15V150.691H43.1752V157.864ZM48.0457 157.864H44.0205V150.691H48.0457V157.864ZM52.9162 157.864H48.891V150.691H52.9162V157.864ZM57.7866 157.864H53.7614V150.691H57.7866V157.864Z" fill="#469BB1"/>
<path opacity="0.1" d="M9.05664 174.017V182.206H58.0282V174.017H9.05664ZM13.9372 181.688H9.94218V174.535H13.9674L13.9372 181.688ZM18.8127 181.688H14.7875V174.535H18.8127V181.688ZM23.6782 181.688H19.653V174.535H23.6782V181.688ZM28.5537 181.688H24.5335V174.535H28.5587L28.5537 181.688ZM33.4242 181.688H29.399V174.535H33.4242V181.688ZM38.2997 181.688H34.2745V174.535H38.2997V181.688ZM43.1752 181.688H39.15V174.535H43.1752V181.688ZM48.0457 181.688H44.0205V174.535H48.0457V181.688ZM52.9162 181.688H48.891V174.535H52.9162V181.688ZM57.7866 181.688H53.7614V174.535H57.7866V181.688Z" fill="#469BB1"/>
<path opacity="0.1" d="M9.05664 197.856V206.06H58.0282V197.856H9.05664ZM13.9372 205.527H9.94218V198.369H13.9674L13.9372 205.527ZM18.8127 205.527H14.7875V198.369H18.8127V205.527ZM23.6782 205.527H19.653V198.369H23.6782V205.527ZM28.5537 205.527H24.5335V198.369H28.5587L28.5537 205.527ZM33.4242 205.527H29.399V198.369H33.4242V205.527ZM38.2997 205.527H34.2745V198.369H38.2997V205.527ZM43.1752 205.527H39.15V198.369H43.1752V205.527ZM48.0457 205.527H44.0205V198.369H48.0457V205.527ZM52.9162 205.527H48.891V198.369H52.9162V205.527ZM57.7866 205.527H53.7614V198.369H57.7866V205.527Z" fill="#469BB1"/>
<path opacity="0.1" d="M9.05664 221.695V229.874H58.0282V221.695H9.05664ZM13.9372 229.366H9.94218V222.203H13.9674L13.9372 229.366ZM18.8127 229.366H14.7875V222.203H18.8127V229.366ZM23.6782 229.366H19.653V222.203H23.6782V229.366ZM28.5537 229.366H24.5335V222.203H28.5587L28.5537 229.366ZM33.4242 229.366H29.399V222.203H33.4242V229.366ZM38.2997 229.366H34.2745V222.203H38.2997V229.366ZM43.1752 229.366H39.15V222.203H43.1752V229.366ZM48.0457 229.366H44.0205V222.203H48.0457V229.366ZM52.9162 229.366H48.891V222.203H52.9162V229.366ZM57.7866 229.366H53.7614V222.203H57.7866V229.366Z" fill="#469BB1"/>
<path opacity="0.1" d="M9.26807 245.529C9.46429 246.299 9.68568 247.069 9.91713 247.829V246.042H13.9423V253.2H11.7888C11.8543 253.366 11.9197 253.547 11.9851 253.704H58.0283V245.529H9.26807ZM18.8279 253.2H14.8027V246.042H18.8279V253.2ZM23.6934 253.2H19.6682V246.042H23.6934V253.2ZM28.5689 253.2H24.5336V246.042H28.5588L28.5689 253.2ZM33.4394 253.2H29.4142V246.042H33.4394V253.2ZM38.3149 253.2H34.2897V246.042H38.3149V253.2ZM43.1904 253.2H39.1652V246.042H43.1904V253.2ZM48.0609 253.2H44.0357V246.042H48.0609V253.2ZM52.9314 253.2H48.9062V246.042H52.9314V253.2ZM57.8018 253.2H53.7766V246.042H57.8018V253.2Z" fill="#469BB1"/>
<path opacity="0.1" d="M20.6392 269.368C20.7649 269.529 20.8857 269.71 21.0165 269.871H23.6782V273.309C23.965 273.652 24.2467 273.994 24.5386 274.316V269.851H28.5638V277.034H26.9336C27.0946 277.2 27.2505 277.376 27.4367 277.538H58.0433V269.368H20.6392ZM33.4242 277.034H29.399V269.881H33.4242V277.034ZM38.2997 277.034H34.2745V269.881H38.2997V277.034ZM43.1752 277.034H39.15V269.881H43.1752V277.034ZM48.0457 277.034H44.0205V269.881H48.0457V277.034ZM52.9162 277.034H48.891V269.881H52.9162V277.034ZM57.7867 277.034H53.7615V269.881H57.7867V277.034Z" fill="#469BB1"/>
<path opacity="0.1" d="M47.5024 293.202C47.9603 293.464 48.4282 293.706 48.9012 293.967V293.716H52.9264V295.981L53.7817 296.378V293.716H57.8069V298.07C57.8841 298.108 57.9651 298.138 58.0485 298.16V293.202H47.5024Z" fill="#469BB1"/>
<path opacity="0.1" d="M379.616 168.082H379.646H379.616ZM348.622 316.644H349.125H348.622ZM316.285 241.054C316.38 241.376 316.461 241.698 316.551 242.015C316.471 241.698 316.385 241.376 316.285 241.054ZM379.616 168.067H379.646H379.616ZM75.7139 92.6937V94.8431H98.1895V92.6937H75.7139ZM348.622 316.644H349.125H348.622ZM316.285 241.054C316.38 241.376 316.461 241.698 316.551 242.015C316.471 241.698 316.385 241.376 316.285 241.054ZM379.616 168.067H379.646H379.616ZM348.622 316.629H349.125H348.622ZM316.285 241.054C316.38 241.376 316.461 241.698 316.551 242.015C316.471 241.698 316.385 241.376 316.285 241.054Z" fill="#469BB1"/>
<path d="M232.254 191.111C232.254 191.111 230.271 190.834 230.271 187.945C230.271 185.055 228.852 179.659 228.852 179.659C228.852 179.634 227.625 170.262 225.929 168.772C224.233 167.282 222.055 158.533 222.055 158.533C222.055 158.533 221.682 153.787 220.923 152.765C220.163 151.743 219.137 149.241 217.622 145.672C216.108 142.104 209.793 139.632 209.793 139.632C209.793 139.632 198.377 133.008 195.141 130.848C194.847 130.671 194.572 130.464 194.321 130.229C193.758 129.489 191.302 129.474 191.302 129.474C191.046 127.853 190.799 125.991 190.719 124.305C190.719 124.124 190.719 123.942 190.694 123.761C194.301 121.628 197.018 118.264 198.346 114.288C198.407 114.097 198.457 113.895 198.512 113.704C198.729 113.633 198.928 113.517 199.096 113.365C199.265 113.212 199.401 113.026 199.494 112.818C199.785 112.169 199.79 111.409 200.153 110.805C200.575 110.09 201.38 109.707 202.014 109.169C203.614 107.81 204.027 105.519 203.951 103.435C203.901 101.749 203.629 100.048 203.735 98.3717L203.765 97.9488C203.796 97.6972 203.831 97.4455 203.876 97.2039C204.123 95.9555 204.661 94.7777 204.963 93.5394C205.265 92.3011 205.295 90.9068 204.59 89.8397C203.559 88.2743 201.411 87.9622 199.524 87.8011C197.385 87.6199 195.473 87.8565 194.105 86.0796C193.464 85.1509 192.744 84.2801 191.951 83.4772C191.67 83.2155 188.932 81.5443 188.932 81.4336C186.261 80.1958 183.233 79.9634 180.404 80.7792C178.985 81.192 177.647 81.8665 176.208 82.2037C173.103 82.9386 169.531 82.1433 166.895 83.9202C165.425 84.9269 164.545 86.5276 163.72 88.088C163.049 89.3733 162.368 90.6568 161.677 91.9387C160.565 94.0478 159.433 96.1921 158.965 98.5277C158.867 99.0359 158.806 99.5508 158.784 100.068V100.093C158.784 100.279 158.784 100.466 158.784 100.652V100.888C158.784 101.065 158.784 101.236 158.814 101.392C158.844 101.548 158.839 101.598 158.854 101.704C158.869 101.81 158.894 102.046 158.925 102.207C158.955 102.368 159.015 102.65 159.076 102.872C159.101 102.967 159.136 103.058 159.166 103.149C159.216 103.32 159.277 103.486 159.342 103.652C159.378 103.737 159.413 103.828 159.453 103.914C159.528 104.09 159.619 104.261 159.71 104.417C159.75 104.487 159.78 104.553 159.82 104.618C159.961 104.852 160.115 105.078 160.283 105.293C161.36 106.637 162.945 107.493 164.117 108.751C164.117 108.801 164.117 108.852 164.117 108.897C164.117 109.038 164.117 109.174 164.117 109.315C164.179 112.121 164.926 114.87 166.292 117.322C167.658 119.774 169.603 121.855 171.956 123.384C171.956 123.575 171.981 123.771 171.991 123.962C172.09 125.457 172.071 126.956 171.936 128.447C171.731 128.206 171.475 128.014 171.186 127.885C170.896 127.756 170.582 127.694 170.266 127.702C170.049 127.692 169.833 127.711 169.622 127.758L169.576 127.723V127.768C168.469 128.04 167.106 129.192 165.803 132.469C165.803 132.469 161.838 136.939 158.819 136.753C155.8 136.567 148.157 141.404 148.157 141.404C148.157 141.404 140.701 146.246 139.101 151.179C138.206 153.976 137.134 156.714 135.891 159.374L126.673 178.376L124.972 193.451C124.972 193.451 125.913 200.156 125.727 201.178C125.541 202.2 129.596 211.416 129.596 211.416C129.596 211.416 142.995 234.968 148.469 236.177L148.862 235.9C149.096 236.022 149.344 236.115 149.601 236.177L150.728 235.381C150.796 236.268 150.767 237.159 150.643 238.039C149.888 240.364 150.925 255.541 152.243 258.516C153.561 261.49 153.093 300.496 153.093 300.496L152.907 303.939C152.907 303.939 152.907 304.05 152.952 304.241L152.907 305.056L153.043 305.127C153.184 306.219 153.138 307.327 152.907 308.404C152.434 309.914 152.243 314.182 152.243 314.182C152.243 314.182 148.474 338.283 150.26 343.125C152.047 347.968 153.566 353.273 153.566 353.273C153.566 353.273 155.453 359.313 153.657 360.345C151.86 361.377 146.753 363.109 147.805 365.626C148.761 367.951 152.389 374.183 152.927 375.094L152.882 375.572L152.142 383.591C152.262 384.649 152.549 385.682 152.993 386.651C153.803 388.398 155.377 390.21 158.371 390.013C158.874 389.978 159.458 389.918 160.022 389.842C165.501 389.107 172.248 386.661 172.248 386.661C171.898 386.438 171.577 386.173 171.292 385.871C171.023 385.61 170.809 385.297 170.665 384.951C170.52 384.604 170.448 384.232 170.452 383.857C170.532 382.398 167.8 375.441 167.121 373.73C167.015 373.483 166.96 373.342 166.96 373.342C166.96 373.342 173.189 366.829 172.152 361.055C172.152 361.055 165.259 357.028 167.529 354.818C169.798 352.609 173.853 346.261 173.853 346.261C173.853 346.261 174.039 322.528 173.853 318.984C173.659 316.525 173.776 314.05 174.2 311.62C174.276 311.253 174.366 310.895 174.462 310.543C177.6 311.012 180.768 311.252 183.941 311.263C185.099 311.263 186.276 311.263 187.463 311.192C187.463 311.528 187.478 311.89 187.509 312.28C187.77 318.159 188.258 328.468 188.656 332.298C189.219 337.79 192.334 352.589 192.334 352.589C192.334 352.589 186.392 356.404 193.37 365.807C193.37 365.807 193.37 369.215 192.907 369.708C192.413 371.32 192.015 372.961 191.715 374.621C191.423 376.392 191.302 378.184 191.775 379.116C192.907 381.341 199.7 381.159 199.7 381.159L199.866 381.129C201.148 380.996 202.444 381.12 203.678 381.492C204.913 381.865 206.061 382.479 207.056 383.299C209.637 385.372 219.433 384.461 224.737 383.802C226.815 383.54 228.203 383.299 228.203 383.299C228.271 383.063 228.294 382.818 228.274 382.574C228.218 381.27 227.197 378.411 220.274 375.859C220.274 375.859 213.763 371.48 213.853 367.664H213.718H212.963C213.511 367.634 213.864 367.664 213.864 367.664C213.864 367.664 211.313 358.352 212.354 357.597C213.396 356.842 210.276 346.523 210.276 346.523C210.276 346.523 208.49 329.207 208.394 327.994C208.398 326.953 208.556 325.919 208.862 324.924L208.394 315.431C208.394 315.431 208.304 312.274 208.394 311.248C208.379 310.356 208.307 309.467 208.178 308.585C208.133 308.232 208.087 307.865 208.037 307.503C210.477 306.883 212.062 306.31 212.062 306.31L211.781 273.264C213.853 269.237 214.236 260.403 214.226 254.136C214.226 250.11 214.045 247.13 214.045 247.13L216.877 242.504C216.877 242.504 217.531 236.967 216.495 235.754C216.037 235.205 216.243 234.636 216.621 234.168C216.817 234.013 217.024 233.871 217.24 233.745C217.24 233.745 217.209 233.7 217.174 233.635C217.372 233.469 217.582 233.319 217.803 233.187C217.803 233.187 216.797 231.626 217.698 230.967C218.543 231.541 219.298 231.973 219.871 232.326C219.831 232.693 219.791 232.905 219.791 232.905L220.032 232.401C220.586 232.713 220.923 232.905 220.923 232.905C220.923 232.905 225.361 224.061 225.265 222.757C225.169 221.453 228.284 215.962 228.284 215.962C228.284 215.962 228.661 213.077 230.362 211.869C232.062 210.661 231.68 201.908 231.68 201.908C231.68 201.908 232.153 197.347 233.285 195.485C234.417 193.622 232.254 191.111 232.254 191.111ZM147.342 187.23L147.428 189.339C146.925 188.528 146.562 187.945 146.562 187.945L147.342 187.23Z" fill="url(#paint0_linear_171_1094)"/>
<path d="M221.164 229.084L220.078 233.715C220.078 233.715 211.373 229.27 209.803 223.623C208.233 217.975 212.43 215.831 212.43 215.831L220.54 219.269L221.164 229.084Z" fill="white"/>
<path opacity="0.1" d="M221.164 229.084L220.078 233.715C220.078 233.715 211.373 229.27 209.803 223.623C208.233 217.975 212.43 215.831 212.43 215.831L220.54 219.269L221.164 229.084Z" fill="black"/>
<path d="M172.313 386.691C172.313 386.691 164.263 389.651 158.728 390.023C155.79 390.22 154.245 388.418 153.45 386.681C153.016 385.716 152.736 384.688 152.62 383.636L153.34 375.658L153.722 371.409L165.481 368.354L167.146 373.448L167.302 373.835C167.971 375.537 170.653 382.458 170.572 383.903C170.569 384.272 170.641 384.639 170.782 384.981C170.924 385.323 171.133 385.632 171.398 385.891C171.668 386.195 171.975 386.464 172.313 386.691Z" fill="white"/>
<path d="M227.303 382.634C227.323 382.876 227.299 383.12 227.232 383.354C227.232 383.354 210.014 386.228 206.492 383.354C205.499 382.514 204.342 381.892 203.094 381.526C201.846 381.16 200.536 381.059 199.247 381.23C199.247 381.23 192.585 381.411 191.473 379.216C191.011 378.295 191.131 376.508 191.418 374.747C191.711 373.096 192.1 371.464 192.585 369.859L192.852 369.647L194.437 368.374L212.993 367.825H213.134C213.043 371.621 219.433 375.975 219.433 375.975C226.221 378.492 227.222 381.335 227.303 382.634Z" fill="white"/>
<path opacity="0.1" d="M227.303 382.634C227.321 382.877 227.295 383.12 227.227 383.354C227.227 383.354 210.015 386.228 206.493 383.354C205.5 382.515 204.344 381.893 203.097 381.527C201.85 381.161 200.541 381.06 199.252 381.23C199.252 381.23 192.586 381.411 191.479 379.216C191.016 378.29 191.132 376.508 191.418 374.746C193.984 375.003 198.035 375.642 199.625 377.168C202.03 379.488 206.105 381.804 208.606 381.985C210.563 382.111 222.271 382.483 227.303 382.634Z" fill="black"/>
<path opacity="0.1" d="M172.314 386.691C172.314 386.691 164.263 389.651 158.729 390.023C155.79 390.22 154.246 388.418 153.456 386.676C155.503 387.366 158.346 388.091 159.841 387.426C161.612 386.641 167.891 386.132 171.413 385.916C171.681 386.21 171.983 386.47 172.314 386.691Z" fill="black"/>
<path d="M184.258 148.174C177.617 145.592 169.073 137.06 171.207 133.073C171.68 132.067 171.962 130.981 172.037 129.872C172.174 128.366 172.194 126.851 172.097 125.342C171.948 122.87 171.65 120.409 171.207 117.972C171.207 117.972 191.941 118.441 190.734 121.496C190.382 122.392 190.326 123.947 190.422 125.689C190.517 127.431 190.769 129.399 191.031 131.065C191.393 133.35 191.755 135.092 191.755 135.092C191.755 135.092 190.487 136.869 189.743 136.964C188.998 137.06 193.788 151.854 184.258 148.174Z" fill="#CF6F80"/>
<path opacity="0.1" d="M167.287 373.835L167.131 374.007C160.932 366.506 153.435 375.854 153.435 375.854L153.325 375.658L153.707 371.409L165.466 368.354L167.131 373.448L167.287 373.835Z" fill="black"/>
<path opacity="0.1" d="M213.139 368.354C213.139 368.354 208.611 368.258 206.196 370.392C203.78 372.527 192.107 370.856 192.611 370.392C192.76 370.163 192.849 369.9 192.872 369.627L194.457 368.354L213.013 367.805C213.084 368.142 213.139 368.354 213.139 368.354Z" fill="black"/>
<path d="M175.001 309.456C174.663 310.29 174.407 311.155 174.236 312.038C173.816 314.457 173.7 316.919 173.889 319.367C174.075 322.89 173.889 346.503 173.889 346.503C173.889 346.503 169.909 352.8 167.69 355.02C165.471 357.24 172.218 361.226 172.218 361.226C173.224 366.965 167.126 373.448 167.126 373.448C160.927 365.948 153.431 375.3 153.431 375.3C153.431 375.3 149.355 368.253 148.339 365.736C147.322 363.22 152.319 361.478 154.075 360.456C155.831 359.434 153.989 353.409 153.989 353.409C153.989 353.409 152.505 348.129 150.744 343.312C148.983 338.494 152.686 314.514 152.686 314.514C152.686 314.514 152.877 310.256 153.335 308.771C153.566 307.7 153.612 306.596 153.471 305.509C153.441 305.142 153.405 304.835 153.38 304.628C153.355 304.422 153.335 304.326 153.335 304.326L153.405 304.206L155.921 299.514C155.921 299.514 176.208 306.501 175.001 309.456Z" fill="#469BB1"/>
<path d="M213.139 367.8C213.139 367.8 208.611 367.704 206.195 369.814C203.78 371.923 192.107 370.277 192.61 369.814C193.114 369.35 193.073 365.923 193.073 365.923C186.225 356.57 192.067 352.775 192.067 352.775C192.067 352.775 189.008 338.052 188.454 332.59C188.067 328.775 187.589 318.521 187.332 312.667C187.222 310.15 187.156 308.419 187.156 308.419L192.751 307.291L193.471 307.145L206.965 304.437C206.965 304.437 207.338 306.954 207.589 309.013C207.715 309.892 207.785 310.778 207.8 311.665C207.71 312.672 207.8 315.823 207.8 315.823L208.258 325.271C207.959 326.262 207.805 327.291 207.8 328.327C207.891 329.53 209.647 346.755 209.647 346.755C209.647 346.755 212.701 357.033 211.66 357.773C210.618 358.513 213.139 367.8 213.139 367.8Z" fill="#469BB1"/>
<path opacity="0.1" d="M190.734 121.496C190.382 122.392 190.326 123.947 190.422 125.689C187.644 127.362 184.452 128.218 181.21 128.157C177.969 128.097 174.81 127.122 172.097 125.347C171.948 122.873 171.65 120.411 171.207 117.972C171.207 117.972 191.941 118.431 190.734 121.496Z" fill="black"/>
<path d="M198.749 110.372C198.753 112.186 198.467 113.988 197.904 115.712C196.643 119.575 194.058 122.867 190.606 125.008C187.153 127.148 183.056 127.999 179.037 127.409C175.019 126.819 171.338 124.827 168.645 121.785C165.953 118.743 164.422 114.847 164.323 110.784C164.323 110.644 164.323 110.513 164.323 110.372C164.284 108.085 164.701 105.814 165.548 103.69C166.396 101.566 167.658 99.6327 169.26 98.0019C170.863 96.3711 172.774 95.0759 174.882 94.1918C176.99 93.3076 179.253 92.8523 181.539 92.8523C183.824 92.8523 186.087 93.3076 188.195 94.1918C190.304 95.0759 192.215 96.3711 193.817 98.0019C195.419 99.6327 196.681 101.566 197.529 103.69C198.376 105.814 198.793 108.085 198.754 110.372H198.749Z" fill="#CF6F80"/>
<path opacity="0.1" d="M184.258 148.174C177.617 145.592 169.073 137.06 171.207 133.073C171.68 132.067 171.962 130.982 172.037 129.872L181.129 137.347L186.754 141.963L191.031 131.07C191.393 133.355 191.755 135.097 191.755 135.097C191.755 135.097 190.487 136.874 189.743 136.969C188.998 137.065 193.788 151.854 184.258 148.174Z" fill="black"/>
<path d="M207.77 181.21L200.178 308.811L190.276 309.461L164.635 235.472L168.842 147.63L169.727 129.072L181.128 138.439L186.759 143.055L191.161 131.845L199.348 138.983L207.77 181.21Z" fill="#469BB1"/>
<path opacity="0.1" d="M175 309.456C174.663 310.29 174.407 311.155 174.236 312.038C167.03 310.925 160.033 308.738 153.476 305.55L153.34 305.479L153.385 304.669L153.41 304.246L155.926 299.555C155.926 299.555 176.208 306.501 175 309.456Z" fill="black"/>
<path opacity="0.1" d="M192.867 312.058C191.025 312.371 189.167 312.583 187.302 312.692C187.191 310.176 187.126 308.444 187.126 308.444L192.721 307.316L192.867 312.058Z" fill="black"/>
<path opacity="0.1" d="M207.559 309.038C203.982 309.969 198.457 311.016 193.511 310.362L193.441 307.17L206.935 304.462C206.935 304.462 207.308 306.954 207.559 309.038Z" fill="black"/>
<path opacity="0.1" d="M193.42 310.946C172.791 314.469 153.898 304.367 153.898 304.367L154.079 300.944C154.079 300.944 154.547 262.14 153.249 259.165C151.951 256.19 150.94 241.104 151.674 238.789C152.409 236.473 148.992 201.752 148.992 201.752L148.439 187.658L128.182 179.448L137.239 160.562C138.462 157.914 139.514 155.19 140.389 152.407C141.963 147.505 149.274 142.687 149.274 142.687C149.274 142.687 156.771 137.875 159.735 138.057C162.698 138.238 166.582 133.798 166.582 133.798C169.45 126.484 172.047 129.796 172.047 129.796C172.047 130.144 172.047 129.796 171.906 130.879C170.899 138.907 188.178 164.277 188.424 164.725L190.069 204.822L191.735 255.566L193.42 310.946Z" fill="black"/>
<path d="M192.867 310.946C172.238 314.469 153.34 304.367 153.34 304.367L153.526 300.944C153.526 300.944 153.994 262.14 152.691 259.165C151.388 256.19 150.381 241.104 151.121 238.789C151.861 236.473 148.439 201.752 148.439 201.752L147.881 187.658L127.614 179.418L136.67 160.532C137.891 157.883 138.943 155.159 139.82 152.377C141.39 147.474 148.706 142.657 148.706 142.657C148.706 142.657 156.203 137.845 159.161 138.026C162.12 138.208 166.009 133.768 166.009 133.768C168.882 126.454 172.047 129.766 172.047 129.766C172.047 130.114 171.745 130.27 171.906 130.848C174.12 138.635 187.624 164.246 187.871 164.694L189.536 204.792L191.202 255.536L192.867 310.946Z" fill="white"/>
<path opacity="0.1" d="M187.307 165.837C185.088 164.911 173.335 151.486 173.335 151.486V148.431C172.907 147.424 170.366 148.038 168.303 148.743L169.189 130.184L170.195 131.02C172.399 138.802 187.051 165.389 187.307 165.837Z" fill="black"/>
<path d="M187.866 164.725C185.642 163.798 173.888 150.374 173.888 150.374V147.318C173.461 146.312 170.92 146.926 168.857 147.63L169.748 129.072L170.754 129.907C172.963 137.689 187.619 164.282 187.866 164.725Z" fill="white"/>
<path opacity="0.1" d="M153.898 231.676C154.175 231.676 168.243 230.197 168.243 230.197C168.243 230.197 176.761 246.953 176.203 251.031C175.644 255.108 174.633 258.717 171.207 258.078C167.78 257.438 152.766 258.581 152.766 258.581L153.898 231.676Z" fill="black"/>
<path d="M153.34 230.564C153.616 230.564 167.684 229.084 167.684 229.084C167.684 229.084 176.198 245.846 175.644 249.918C175.091 253.99 174.069 257.605 170.648 256.965C167.227 256.326 152.208 257.469 152.208 257.469L153.34 230.564Z" fill="white"/>
<path d="M163.941 222.697C163.941 222.697 176.852 229.638 177.129 231.757C177.405 233.876 170.558 230.831 169.078 230.463C168.105 230.229 167.114 230.074 166.115 230L156.248 230.267L163.941 222.697Z" fill="#CF6F80"/>
<path opacity="0.1" d="M183.705 166.703C184.455 166.703 185.063 166.094 185.063 165.344C185.063 164.593 184.455 163.985 183.705 163.985C182.954 163.985 182.346 164.593 182.346 165.344C182.346 166.094 182.954 166.703 183.705 166.703Z" fill="black"/>
<path d="M183.705 166.149C184.455 166.149 185.063 165.541 185.063 164.79C185.063 164.039 184.455 163.431 183.705 163.431C182.954 163.431 182.346 164.039 182.346 164.79C182.346 165.541 182.954 166.149 183.705 166.149Z" fill="#3F3D56"/>
<path opacity="0.1" d="M186.206 225.535C186.956 225.535 187.564 224.927 187.564 224.176C187.564 223.426 186.956 222.817 186.206 222.817C185.455 222.817 184.847 223.426 184.847 224.176C184.847 224.927 185.455 225.535 186.206 225.535Z" fill="black"/>
<path d="M186.206 224.977C186.956 224.977 187.564 224.368 187.564 223.618C187.564 222.867 186.956 222.259 186.206 222.259C185.455 222.259 184.847 222.867 184.847 223.618C184.847 224.368 185.455 224.977 186.206 224.977Z" fill="#3F3D56"/>
<path opacity="0.1" d="M185.058 196.119C185.808 196.119 186.417 195.511 186.417 194.76C186.417 194.009 185.808 193.401 185.058 193.401C184.308 193.401 183.7 194.009 183.7 194.76C183.7 195.511 184.308 196.119 185.058 196.119Z" fill="black"/>
<path d="M185.058 195.565C185.808 195.565 186.417 194.957 186.417 194.206C186.417 193.456 185.808 192.847 185.058 192.847C184.308 192.847 183.7 193.456 183.7 194.206C183.7 194.957 184.308 195.565 185.058 195.565Z" fill="#3F3D56"/>
<path d="M216.374 229.718C216.374 229.718 217.3 231.108 216.374 231.757C215.448 232.406 216.465 233.977 216.465 233.977C216.465 233.977 214.155 235.331 215.172 236.549C216.188 237.767 215.544 243.269 215.544 243.269L212.766 247.87C212.766 247.87 212.933 250.834 212.943 254.841C212.943 261.093 212.575 269.882 210.543 273.888L210.824 306.763C210.824 306.763 201.098 310.316 192.957 309.234L191.75 256.482C191.75 256.482 193.511 226.567 194.16 220.829C194.54 217.85 194.695 214.846 194.623 211.844C194.623 211.844 194.346 202.864 193.415 198.696C193.415 198.696 192.409 180.641 192.308 175.642C192.263 173.252 192.389 166.275 192.53 159.641C192.686 152.387 192.862 145.547 192.862 145.547L191.025 131.01C191.025 131.01 192.862 130.823 193.415 131.563C193.663 131.795 193.933 132.002 194.22 132.182C197.39 134.327 208.59 140.921 208.59 140.921C208.59 140.921 214.789 143.387 216.273 146.921C217.758 150.454 218.789 152.961 219.509 153.968C220.228 154.975 220.621 159.706 220.621 159.706C220.621 159.706 222.754 168.414 224.419 169.889C226.085 171.364 227.302 180.747 227.302 180.747L212.585 192.324C212.585 192.324 211.292 211.582 211.016 212.327C210.739 213.072 216.374 229.718 216.374 229.718Z" fill="white"/>
<path d="M216.933 229.718C216.933 229.718 217.853 231.108 216.933 231.757C216.012 232.406 217.018 233.977 217.018 233.977C217.018 233.977 214.724 235.346 215.73 236.564C216.736 237.782 216.102 243.284 216.102 243.284L213.325 247.885C213.325 247.885 213.491 250.849 213.506 254.856C213.506 261.108 213.139 269.897 211.106 273.903L211.383 306.778C211.383 306.778 201.642 310.331 193.511 309.249L192.308 256.497C192.308 256.497 194.07 226.582 194.719 220.844C195.099 217.865 195.252 214.861 195.176 211.859C195.176 211.859 194.9 202.879 193.974 198.711C193.974 198.711 192.968 180.656 192.862 175.658C192.817 173.267 192.947 166.29 193.083 159.656C193.239 152.402 193.415 145.562 193.415 145.562L190.99 130.828C190.99 130.828 193.415 130.828 193.974 131.578C194.22 131.813 194.489 132.02 194.779 132.197C197.949 134.342 209.154 140.936 209.154 140.936C209.154 140.936 215.348 143.402 216.832 146.936C218.316 150.469 219.348 152.976 220.072 153.983C220.797 154.99 221.179 159.721 221.179 159.721C221.179 159.721 223.313 168.429 224.978 169.904C226.643 171.379 227.846 180.741 227.846 180.741L213.129 192.319C213.129 192.319 211.836 211.577 211.554 212.322C211.272 213.067 216.933 229.718 216.933 229.718Z" fill="white"/>
<path opacity="0.1" d="M199.307 149.835L200.636 153.711L193.642 160.758C193.798 153.51 193.974 146.664 193.974 146.664L191.549 131.931C191.549 131.931 193.974 131.931 194.532 132.681C194.777 132.914 195.047 133.12 195.338 133.295L201.285 150.459L199.307 149.835Z" fill="black"/>
<path d="M198.749 148.723L200.082 152.599L193.088 159.646C193.244 152.392 193.42 145.552 193.42 145.552L190.99 130.818C190.99 130.818 193.42 130.818 193.974 131.568C194.221 131.801 194.49 132.009 194.779 132.187L200.731 149.347L198.749 148.723Z" fill="white"/>
<path opacity="0.1" d="M198.749 110.372C198.753 112.186 198.467 113.988 197.904 115.712C197.808 115.727 197.711 115.723 197.618 115.699C197.525 115.676 197.437 115.634 197.36 115.576C197.229 111.046 195 106.793 192.258 103.174C191.488 102.081 190.555 101.113 189.491 100.305C188.415 99.4962 187.077 99.1176 185.737 99.2424C184.228 99.4488 182.895 100.476 181.37 100.607C179.357 100.773 177.556 99.3783 175.559 99.3079C174.747 99.3156 173.946 99.4965 173.209 99.8385C172.472 100.18 171.817 100.676 171.287 101.291C170.238 102.533 169.458 103.98 168.998 105.539C168.206 107.904 167.776 110.375 167.72 112.868C167.694 114.278 167.559 116.045 166.25 116.558C166.349 115.521 166.231 114.476 165.905 113.487C165.578 112.499 165.05 111.588 164.354 110.815L164.323 110.784C164.323 110.644 164.323 110.513 164.323 110.372C164.284 108.085 164.701 105.814 165.548 103.69C166.396 101.566 167.658 99.6327 169.26 98.0019C170.863 96.3711 172.774 95.0759 174.882 94.1918C176.99 93.3076 179.253 92.8523 181.539 92.8523C183.824 92.8523 186.087 93.3076 188.195 94.1918C190.304 95.0759 192.215 96.3711 193.817 98.0019C195.419 99.6327 196.681 101.566 197.529 103.69C198.376 105.814 198.793 108.085 198.754 110.372H198.749Z" fill="black"/>
<path d="M188.666 83.0242C186.051 81.7938 183.078 81.5611 180.304 82.3699C178.91 82.7826 177.597 83.4521 176.183 83.7893C173.164 84.5192 169.642 83.7289 167.051 85.4957C165.612 86.5024 164.746 88.0931 163.941 89.6384L161.929 93.474C160.832 95.573 159.725 97.7072 159.267 100.018C158.809 102.328 159.086 104.915 160.55 106.773C161.617 108.127 163.192 108.977 164.349 110.251C165.042 111.026 165.568 111.935 165.893 112.923C166.219 113.91 166.337 114.954 166.241 115.989C167.554 115.486 167.68 113.714 167.71 112.305C167.766 109.811 168.197 107.341 168.988 104.976C169.447 103.416 170.227 101.969 171.277 100.727C171.808 100.112 172.463 99.6176 173.2 99.2756C173.936 98.9337 174.737 98.7525 175.549 98.7442C177.561 98.8146 179.368 100.204 181.36 100.038C182.87 99.9119 184.208 98.8801 185.728 98.6787C187.067 98.5519 188.406 98.9307 189.481 99.7408C190.545 100.548 191.477 101.516 192.243 102.61C194.991 106.229 197.219 110.472 197.35 115.013C197.919 115.431 198.739 114.887 199.021 114.243C199.303 113.598 199.313 112.843 199.67 112.229C200.082 111.519 200.872 111.142 201.491 110.608C203.061 109.254 203.453 106.974 203.393 104.905C203.333 102.836 202.93 100.737 203.323 98.7039C203.559 97.4556 204.092 96.2878 204.384 95.0545C204.676 93.8213 204.711 92.4371 204.022 91.375C203.016 89.8145 200.897 89.5075 199.051 89.3615C196.953 89.1803 195.076 89.4119 193.738 87.6451C193.109 86.7231 192.402 85.8574 191.624 85.0578C191.358 84.796 188.666 83.135 188.666 83.0242Z" fill="#512E4E"/>
<path opacity="0.1" d="M133.978 189.173L128.721 179.448L127.055 194.453C127.055 194.453 127.981 201.118 127.795 202.139C127.609 203.161 131.589 212.322 131.589 212.322C131.589 212.322 144.736 235.749 150.104 236.957L168.243 223.99L163.433 217.879C163.433 217.879 161.767 217.23 161.35 217.879C161.35 217.879 152.419 202.507 151.493 201.394C150.567 200.282 150.748 198.062 150.748 198.062C150.748 198.062 149.36 196.582 149.823 195.193C150.286 193.804 147.141 188.987 147.141 188.987L150.009 186.304L133.978 189.173Z" fill="black"/>
<path d="M128.997 178.34L127.609 179.448L125.943 194.453C125.943 194.453 126.869 201.117 126.683 202.139C126.497 203.161 130.482 212.322 130.482 212.322C130.482 212.322 143.624 235.749 148.993 236.957L167.136 223.99L162.321 217.879C162.321 217.879 160.656 217.23 160.238 217.879C160.238 217.879 151.307 202.507 150.381 201.394C149.456 200.282 149.642 198.062 149.642 198.062C149.642 198.062 148.253 196.582 148.716 195.193C149.179 193.804 146.029 188.987 146.029 188.987L148.897 186.304L128.997 178.34Z" fill="white"/>
<path opacity="0.1" d="M215.172 237.123C216.178 238.346 215.544 243.838 215.544 243.838L212.767 248.438C212.767 248.438 212.933 251.408 212.943 255.41L208.274 256.87C207.852 257.001 207.404 257.03 206.969 256.954C206.533 256.878 206.122 256.698 205.77 256.431C205.418 256.164 205.135 255.816 204.945 255.416C204.755 255.017 204.662 254.578 204.676 254.136L205.481 228.158L216.374 232.326C215.449 232.97 216.465 234.551 216.465 234.551C216.465 234.551 214.155 235.9 215.172 237.123Z" fill="black"/>
<path d="M215.73 236.564C216.737 237.787 216.103 243.284 216.103 243.284L213.325 247.885C213.325 247.885 213.491 250.849 213.507 254.856L208.752 256.341C208.339 256.47 207.901 256.497 207.474 256.422C207.048 256.347 206.646 256.171 206.301 255.909C205.957 255.647 205.68 255.307 205.494 254.916C205.307 254.526 205.217 254.096 205.23 253.663L206.04 227.604L216.938 231.772C216.007 232.416 217.024 233.992 217.024 233.992C217.024 233.992 214.724 235.346 215.73 236.564Z" fill="white"/>
<path d="M219.338 224.181C219.338 224.181 218.598 228.908 216.746 229.185C214.895 229.462 214.065 236.831 212.218 236.569C210.371 236.307 211.594 229.718 211.66 228.44C211.725 227.161 209.647 221.866 211.202 220.663C212.756 219.46 217.677 220.663 217.677 220.663L219.338 224.181Z" fill="#CF6F80"/>
<path opacity="0.1" d="M223.278 187.783L226.769 180.736C226.769 180.736 228.158 186.107 228.158 188.976C228.158 191.846 230.1 192.127 230.1 192.127C230.1 192.127 232.229 194.644 231.107 196.477C229.984 198.309 229.532 202.869 229.532 202.869C229.532 202.869 229.899 211.572 228.234 212.775C226.568 213.978 226.221 216.853 226.221 216.853C226.221 216.853 223.162 222.314 223.257 223.613C223.353 224.911 219.001 233.705 219.001 233.705C219.001 233.705 221.129 222.777 208.726 218.056C208.726 218.056 208.631 214.346 209.557 213.329C210.482 212.312 211.926 211.849 211.021 206.71C210.115 201.571 210.759 195.43 210.759 194.196C210.759 192.963 213.537 185.272 213.537 185.272L223.278 187.783Z" fill="black"/>
<path d="M224.787 179.73L227.836 180.736C227.836 180.736 229.23 186.107 229.23 188.976C229.23 191.846 231.172 192.127 231.172 192.127C231.172 192.127 233.3 194.644 232.178 196.477C231.056 198.309 230.608 202.869 230.608 202.869C230.608 202.869 230.975 211.572 229.31 212.775C227.645 213.978 227.272 216.853 227.272 216.853C227.272 216.853 224.218 222.314 224.314 223.613C224.409 224.911 220.052 233.705 220.052 233.705C220.052 233.705 222.185 222.777 209.778 218.056C209.778 218.056 209.687 214.346 210.613 213.329C211.539 212.312 212.983 211.849 212.077 206.71C211.172 201.571 211.816 195.43 211.816 194.196C211.816 192.963 214.593 185.272 214.593 185.272L224.787 179.73Z" fill="white"/>
<path opacity="0.1" d="M157.44 362.384C157.44 362.384 162.301 359.329 165.491 361.548C168.681 363.768 157.44 362.384 157.44 362.384Z" fill="black"/>
<path opacity="0.1" d="M195.207 352.936C195.207 352.936 199.509 352.382 203.122 356.273C206.734 360.164 195.207 352.936 195.207 352.936Z" fill="black"/>
<g opacity="0.1">
<path opacity="0.1" d="M201.501 109.506C200.882 110.04 200.087 110.422 199.675 111.132C199.323 111.741 199.313 112.491 199.031 113.145C198.749 113.8 197.929 114.333 197.36 113.92C197.23 109.39 194.996 105.137 192.253 101.513C191.487 100.419 190.555 99.451 189.491 98.6435C188.414 97.8335 187.074 97.4547 185.733 97.5814C184.223 97.7878 182.895 98.8146 181.37 98.9404C179.358 99.1116 177.551 97.7173 175.554 97.6468C174.742 97.6549 173.942 97.8365 173.206 98.1794C172.47 98.5223 171.816 99.0186 171.287 99.6351C170.237 100.874 169.457 102.32 168.998 103.878C168.207 106.244 167.776 108.714 167.72 111.207C167.69 112.612 167.559 114.363 166.261 114.887C166.291 115.259 166.291 115.632 166.261 116.004C167.569 115.501 167.7 113.729 167.73 112.32C167.786 109.826 168.217 107.356 169.008 104.991C169.467 103.431 170.247 101.984 171.297 100.742C171.827 100.128 172.481 99.6328 173.217 99.2909C173.953 98.9489 174.753 98.7677 175.564 98.7592C177.577 98.8297 179.388 100.219 181.38 100.053C182.89 99.927 184.228 98.8951 185.743 98.6938C187.084 98.5672 188.424 98.9459 189.501 99.7559C190.565 100.563 191.497 101.531 192.263 102.625C195.006 106.244 197.24 110.488 197.37 115.028C197.939 115.446 198.759 114.902 199.041 114.258C199.323 113.613 199.333 112.858 199.685 112.244C200.098 111.535 200.893 111.157 201.511 110.623C203.081 109.269 203.474 106.989 203.413 104.92C203.413 104.855 203.413 104.789 203.413 104.729C203.318 106.521 202.84 108.348 201.501 109.506Z" fill="black"/>
<path opacity="0.1" d="M164.359 109.149C163.201 107.875 161.622 107.024 160.56 105.675C159.666 104.481 159.155 103.044 159.096 101.553C158.937 103.416 159.457 105.273 160.56 106.783C161.622 108.137 163.201 108.988 164.359 110.261C165.47 111.507 166.137 113.086 166.256 114.751C166.333 113.738 166.204 112.719 165.878 111.756C165.552 110.794 165.036 109.907 164.359 109.149Z" fill="black"/>
<path opacity="0.1" d="M204.394 93.9522C204.097 95.1854 203.569 96.3582 203.327 97.6015C203.184 98.4323 203.132 99.2762 203.171 100.118C203.188 99.6386 203.24 99.1608 203.327 98.6888C203.569 97.4404 204.097 96.2726 204.394 95.0394C204.567 94.3592 204.623 93.6545 204.56 92.9555C204.529 93.2913 204.473 93.6244 204.394 93.9522Z" fill="black"/>
</g>
<path opacity="0.1" d="M66.7832 382.851C93.86 382.851 115.81 379.324 115.81 374.973C115.81 370.622 93.86 367.095 66.7832 367.095C39.7064 367.095 17.7563 370.622 17.7563 374.973C17.7563 379.324 39.7064 382.851 66.7832 382.851Z" fill="#469BB1"/>
<path d="M68.3627 224.066H65.208V295.125H68.3627V224.066Z" fill="#535461"/>
<path d="M88.1868 294.909L87.9906 298.11L87.7088 302.64L87.5931 304.523L87.3164 309.053L87.1956 310.936L86.9139 315.466L83.734 366.844C83.5958 369.054 82.6207 371.129 81.0074 372.646C79.394 374.163 77.2636 375.007 75.0496 375.008H58.5161C56.3027 375.007 54.1728 374.162 52.5603 372.646C50.9477 371.129 49.9738 369.054 49.8368 366.844L46.672 315.431L46.3902 310.9L46.2745 309.018L45.9927 304.487L45.877 302.605L45.5953 298.075L45.394 294.873C45.359 294.257 45.4503 293.64 45.6622 293.061C45.874 292.481 46.202 291.951 46.6261 291.503C47.0501 291.054 47.5612 290.698 48.128 290.454C48.6949 290.211 49.3054 290.085 49.9223 290.086H83.739C84.3536 290.092 84.9605 290.223 85.5224 290.472C86.0843 290.721 86.5892 291.083 87.006 291.535C87.4228 291.986 87.7426 292.519 87.9457 293.099C88.1488 293.68 88.2309 294.295 88.1868 294.909Z" fill="#3F3D56"/>
<path d="M87.9907 298.11L87.7089 302.625H45.857L45.5752 298.11H87.9907Z" fill="#9D9CB5"/>
<path d="M87.5932 304.508L87.3164 309.028H46.2544L45.9727 304.508H87.5932Z" fill="#9D9CB5"/>
<path d="M87.1956 310.915L86.9189 315.431H46.6519L46.3701 310.915H87.1956Z" fill="#9D9CB5"/>
<path d="M40.7603 250.698C59.1303 263.997 66.7983 284.796 66.7983 284.796C66.7983 284.796 44.6598 284.036 26.2847 270.737C7.90974 257.438 0.256836 236.645 0.256836 236.645C0.256836 236.645 22.3853 237.4 40.7603 250.698Z" fill="#469BB1"/>
<path d="M0.241699 236.645C0.241699 236.645 23.2256 249.405 30.5967 259.97C37.9678 270.536 66.7983 284.796 66.7983 284.796" stroke="#535461" stroke-width="2" stroke-miterlimit="10"/>
<path d="M52.6193 223.91C62.6169 231.143 66.798 242.463 66.798 242.463C66.798 242.463 54.7476 242.051 44.745 234.817C34.7424 227.584 30.5713 216.259 30.5713 216.259C30.5713 216.259 42.6167 216.671 52.6193 223.91Z" fill="#469BB1"/>
<path d="M30.5713 216.259C30.5713 216.259 43.0796 223.205 47.0897 228.953C51.0998 234.702 66.798 242.463 66.798 242.463" stroke="#535461" stroke-width="2" stroke-miterlimit="10"/>
<path d="M81.3141 241.89C69.8272 254.519 67.397 271.024 67.397 271.024C67.397 271.024 83.5933 267.048 95.0702 254.413C106.547 241.779 108.987 225.279 108.987 225.279C108.987 225.279 92.801 229.26 81.3141 241.89Z" fill="#469BB1"/>
<path d="M108.997 225.284C108.997 225.284 94.0337 238.23 90.2299 247.15C86.4261 256.069 67.397 271.024 67.397 271.024" stroke="#535461" stroke-width="2" stroke-miterlimit="10"/>
<path d="M502.983 237.445C502.983 237.445 494.676 196.099 497.856 190.955C497.856 190.955 497.972 186.173 497.78 180.077C497.78 179.845 497.78 179.614 497.78 179.377C498.34 179.751 498.923 180.087 499.526 180.384C502.456 181.89 505.82 182.324 509.036 181.612L506.52 178.809C505.916 178.139 505.287 177.414 505.157 176.528C505.026 175.642 505.388 174.852 505.7 174.062C508.09 168.022 508.216 160.426 503.612 155.815C499.723 151.939 498.777 146.936 494.555 143.397C491.471 140.805 489.775 137.005 488.175 133.33C486.822 130.224 485.458 127.093 484.683 123.801C484.08 121.229 483.838 118.566 483.008 116.055C482.178 113.543 480.623 111.102 478.193 109.979C477.327 109.581 476.366 109.355 475.576 108.826C474.54 108.127 473.916 106.989 473.166 105.993C469.358 100.959 456.603 103.924 450.565 105.967C448.923 106.482 447.403 107.324 446.097 108.444L446.152 108.353C446.198 108.278 446.253 108.202 446.303 108.127C445.642 108.661 445.072 109.299 444.613 110.014C443.732 111.409 443.365 113.035 442.63 114.545C441.745 116.332 436.819 121.32 438.937 123.328C439.086 123.463 439.256 123.572 439.44 123.65C440.235 123.981 441.111 124.069 441.956 123.902L441.865 124.118C441.142 125.89 440.771 127.787 440.774 129.701C440.774 137.971 447.591 144.676 456.009 144.676C457.591 144.677 459.165 144.434 460.673 143.956C460.708 144.147 460.739 144.338 460.774 144.53C460.774 144.605 460.799 144.681 460.809 144.756L460.542 145.129C460.529 145.106 460.514 145.084 460.497 145.063L452.598 156.107C451.39 156.958 444.437 161.991 444.044 165.767C443.632 169.899 443.219 174.736 443.219 174.736L443.164 175.773C442.818 176.062 442.415 176.272 441.98 176.389C441.546 176.507 441.091 176.528 440.648 176.453C438.182 176.05 438.182 185.513 438.182 185.513C438.182 185.513 436.542 187.023 435.415 185.715C434.288 184.406 431.309 188.841 431.309 188.841L412.643 189.646L412.215 189.671L411.209 186.555C411.1 186.227 410.867 185.954 410.559 185.797C410.251 185.639 409.893 185.61 409.563 185.715C409.485 185.74 409.41 185.772 409.337 185.81L409.266 185.851L409.136 185.941L409.07 186.002C409.034 186.034 409 186.07 408.97 186.107L408.909 186.178L408.879 186.208C408.763 186.369 408.686 186.554 408.654 186.75C408.623 186.946 408.638 187.146 408.698 187.335L409.563 190.008C405.961 190.733 402.278 192.777 405.281 198.404L390.056 195.591L394.982 199.728L420.411 204.978C420.074 205.582 420.295 206.458 421.347 207.691C425.875 213.012 434.127 214.457 437.448 214.829C438.325 216.792 439.42 218.649 440.713 220.366L440.426 225.666C440.426 225.666 432.019 266.066 430.479 268.115C431.256 267.234 431.968 266.297 432.607 265.311C430.167 273.611 426.756 284.972 425.86 286.674C424.421 289.392 423.088 300.39 424.728 301.095C425.231 301.311 426.67 301.206 428.723 301.05V301.961L428.633 336.486C428.633 336.486 429.045 357.662 427.913 359.681C426.781 361.699 426.479 365.933 426.479 365.933C426.479 365.933 421.951 374.283 418.363 377.641C418.339 377.667 418.312 377.69 418.283 377.711L418.172 376.926C418.172 376.926 413.86 382.372 404.32 382.065C404.32 382.065 398.58 385.8 407.093 386.002C415.606 386.203 426.479 385.7 426.479 385.7C426.479 385.7 434.072 374.122 440.431 375.632V384.406H442.379V375.491C443.282 374.897 444.055 374.125 444.65 373.222C445.246 372.32 445.653 371.306 445.845 370.241C446.012 369.144 445.89 368.023 445.491 366.987C445.092 365.952 444.431 365.038 443.571 364.337C443.185 363.988 442.875 363.562 442.661 363.088C442.448 362.613 442.334 362.099 442.328 361.579L442.258 361.639C442.258 361.463 442.213 361.282 442.193 361.095C441.634 356.565 440.935 347.218 443.405 340.302C446.791 330.818 447.818 317.61 445.352 309.748C444.557 307.234 443.903 304.678 443.395 302.091C443.335 301.764 443.279 301.452 443.229 301.16C444.914 301.388 446.583 301.725 448.225 302.167C453.936 303.742 466.429 304.034 477.096 303.949C477.121 304.241 477.151 304.548 477.187 304.855C477.377 306.989 477.774 309.1 478.374 311.157C479.712 315.184 480.326 332.937 480.326 332.937C480.326 332.937 482.052 347.535 481.111 353.474C480.608 356.777 480.105 360.094 479.818 363.426V363.491C479.818 363.491 476.99 371.545 474.922 375.919C474.872 376.03 474.817 376.141 474.766 376.246C474.215 376.297 473.672 376.417 473.151 376.604C473.151 376.604 470.379 382.141 467.617 383.057C464.854 383.973 465.77 386.988 472.024 385.881C478.278 384.773 487.722 383.867 487.722 383.867L488.13 378.22L490.052 375.814L489.549 381.446L491.597 381.043L491.325 374.193L494.47 370.257C494.47 370.257 498.268 366.874 492.623 360.219V360.365C492.563 360.27 492.507 360.169 492.442 360.073V360.043C491.506 358.594 490.761 355.891 492.125 351.094C494.59 342.426 496.024 334.558 496.024 334.558C496.024 334.558 501.529 313.482 494.912 303.511H495.204C494.526 302.108 494.047 300.617 493.78 299.081C493.747 298.9 493.717 298.714 493.69 298.523C498.585 298.241 503.391 297.355 507.31 295.442C507.295 295.422 504.935 245.408 502.983 237.445ZM440.829 202.562V202.663L439.823 202.713L440.829 202.562ZM437.377 203.04C437.212 203.077 437.057 203.151 436.925 203.257C436.492 203.869 436.22 204.581 436.135 205.326L434.565 204.973C434.565 204.973 433.463 204.737 431.878 204.47L431.128 203.715C433.191 203.544 435.335 203.292 437.377 203.04Z" fill="url(#paint1_linear_171_1094)"/>
<path d="M489.317 374.263L488.719 381.396L490.726 380.993L490.424 373.257L489.317 374.263Z" fill="#1D2366"/>
<path d="M443.516 340.397C441.096 347.293 441.78 356.6 442.323 361.12C442.525 362.792 442.711 363.808 442.711 363.808C442.711 363.808 439.093 372.053 438.791 372.366C438.489 372.678 428.145 378.995 428.145 378.995L420.914 383.218C420.914 383.218 413.578 380.002 417.095 378.894C417.814 378.606 418.461 378.164 418.992 377.601C422.514 374.253 426.937 365.933 426.937 365.933C426.937 365.933 427.239 361.709 428.346 359.701C429.453 357.693 429.05 336.587 429.05 336.587L429.136 302.182V297.697L442.897 297.798C442.984 299.32 443.182 300.835 443.491 302.328C443.985 304.906 444.625 307.454 445.408 309.959C447.833 317.806 446.827 330.949 443.516 340.397Z" fill="#FFB0B1"/>
<path opacity="0.1" d="M442.711 363.808C442.711 363.808 439.093 372.054 438.791 372.366C438.489 372.678 428.145 378.995 428.145 378.995L420.914 383.218C420.914 383.218 413.578 380.002 417.095 378.894C417.814 378.606 418.461 378.164 418.992 377.601L419.304 379.8L421.714 379.7L442.343 361.131C442.525 362.792 442.711 363.808 442.711 363.808Z" fill="black"/>
<path d="M442.459 361.599L421.714 380.294L419.304 380.394L418.801 376.871C418.801 376.871 414.585 382.297 405.216 381.995C405.216 381.995 399.591 385.715 407.928 385.916C416.265 386.117 426.912 385.614 426.912 385.614C426.912 385.614 434.348 374.037 440.572 375.547V384.29H442.484V375.466C443.373 374.868 444.132 374.095 444.715 373.196C445.298 372.296 445.692 371.288 445.876 370.231C446.041 369.143 445.924 368.031 445.535 367.001C445.147 365.972 444.5 365.059 443.657 364.352C443.28 363.999 442.98 363.573 442.774 363.099C442.568 362.626 442.461 362.115 442.459 361.599Z" fill="#1D2366"/>
<path d="M491.23 351.149C489.891 355.931 490.621 358.624 491.537 360.069V360.099C492.711 361.882 493.528 363.877 493.942 365.973L494.022 366.426L484.583 380.193L479.461 382.206C479.461 382.206 471.225 379.393 472.729 378.587C473.106 378.391 473.695 377.344 474.369 375.899C476.382 371.545 479.159 363.511 479.159 363.511V363.446C479.451 360.129 479.914 356.822 480.427 353.53C481.348 347.605 479.657 333.063 479.657 333.063C479.657 333.063 479.054 315.38 477.745 311.358C477.155 309.314 476.762 307.217 476.573 305.097C476.301 302.58 476.241 300.506 476.241 300.506C476.241 300.506 481.665 292.956 491.607 301.11C492.402 301.76 493.102 302.519 493.685 303.365C500.553 313.14 495.023 334.674 495.023 334.674C495.023 334.674 493.64 342.506 491.23 351.149Z" fill="#FFB0B1"/>
<path opacity="0.1" d="M494.037 366.426L484.598 380.193L479.476 382.206C479.476 382.206 471.24 379.393 472.744 378.587C473.121 378.391 473.71 377.344 474.384 375.899C477.871 375.869 479.678 379.191 479.678 379.191L484.095 378.486C484.095 378.486 489.922 367.03 491.23 366.33C492.538 365.631 491.431 361.1 491.431 361.1V359.948C491.466 359.988 491.497 360.033 491.537 360.074V360.104C492.711 361.887 493.528 363.883 493.942 365.978L494.037 366.426Z" fill="black"/>
<path d="M479.979 379.488C479.979 379.488 477.463 374.867 472.643 376.574C472.643 376.574 469.931 382.111 467.219 383.007C464.507 383.903 465.413 386.923 471.541 385.82C477.67 384.718 486.908 383.807 486.908 383.807L487.31 378.174L493.539 370.236C493.539 370.236 497.252 366.869 491.728 360.24V361.392C491.728 361.392 492.835 365.923 491.526 366.622C490.218 367.322 484.412 378.783 484.412 378.783L479.979 379.488Z" fill="#1D2366"/>
<path opacity="0.1" d="M442.912 297.788C442.999 299.31 443.197 300.825 443.506 302.318C437.84 301.487 432.582 301.9 429.136 302.172V297.687L442.912 297.788Z" fill="black"/>
<path opacity="0.1" d="M494.243 304.618C494.243 304.618 486.193 305.011 476.593 305.092C476.321 302.575 476.261 300.501 476.261 300.501C476.261 300.501 481.685 292.95 491.627 301.105C492.422 301.755 493.122 302.514 493.705 303.36C493.861 303.789 494.041 304.209 494.243 304.618Z" fill="black"/>
<path d="M494.243 303.712C494.243 303.712 458.983 305.419 448.235 302.404C437.488 299.388 426.836 302.001 425.231 301.301C423.626 300.602 424.929 289.643 426.338 286.93C427.747 284.217 435.475 256.779 435.475 256.779L442.912 217.99L450.746 215.831L451.299 215.675L464.95 211.909L474.953 209.146C474.953 209.146 494.842 286.83 493.136 292.558C492.517 294.751 492.417 297.059 492.845 299.298C493.105 300.827 493.576 302.312 494.243 303.712Z" fill="#1D2366"/>
<path d="M416.99 191.463C416.99 191.463 409.946 199.013 415.279 203.221C420.612 207.43 424.119 203.624 424.119 203.624L416.99 191.463Z" fill="#C7DAF5"/>
<path opacity="0.1" d="M416.99 191.463C416.99 191.463 409.946 199.013 415.279 203.221C420.612 207.43 424.119 203.624 424.119 203.624L416.99 191.463Z" fill="black"/>
<path d="M473.901 141.822C473.901 141.822 473.076 142.607 471.833 143.765C470.062 145.421 467.441 147.842 465.116 149.87C461.896 152.674 459.24 154.733 460.191 152.976C461.141 151.219 460.96 148.159 460.487 145.295C460.452 145.104 460.422 144.912 460.387 144.726C459.995 142.623 459.476 140.545 458.832 138.505C458.832 138.505 464.035 131.78 466.913 129.127C467.984 128.12 468.734 127.707 468.779 128.407C468.83 129.348 469.534 131.427 470.409 133.632C470.435 133.702 470.46 133.768 470.49 133.838C471.074 135.348 471.733 136.899 472.311 138.238C473.197 140.291 473.901 141.822 473.901 141.822Z" fill="#FFB0B1"/>
<path opacity="0.1" d="M470.49 133.838C470.001 136.469 468.815 138.92 467.055 140.936C465.296 142.951 463.027 144.456 460.487 145.295C460.087 142.997 459.534 140.729 458.832 138.505C458.832 138.505 468.628 125.845 468.779 128.407C468.815 129.379 469.579 131.533 470.49 133.838Z" fill="black"/>
<path opacity="0.1" d="M459.511 148.677L460.779 146.891C460.779 146.891 461.619 152.015 464.709 149.755C467.798 147.495 467.949 166.763 467.949 166.763L464.633 216.359L440.673 214.925L441.353 190.96L444.065 178.879L450.772 161.317L454.762 155.513L459.511 148.677Z" fill="black"/>
<path d="M467.949 167.07L464.93 211.915L464.613 216.666L451.255 215.866L450.751 215.836L440.688 215.232L441.368 191.262L444.08 179.181L450.787 161.619L454.777 155.815L459.526 148.954L460.794 147.172C460.794 147.172 461.635 152.297 464.724 150.036L464.789 149.991C467.808 148.078 467.949 167.07 467.949 167.07Z" fill="#1D2366"/>
<path d="M444.417 174.983C444.417 174.983 443.214 177.5 440.799 177.092C438.384 176.684 438.389 186.153 438.389 186.153C438.389 186.153 436.784 187.663 435.677 186.354C434.57 185.045 431.652 189.47 431.652 189.47L413.367 190.275C413.367 190.275 421.503 193.995 419.908 205.25C419.908 205.25 447.531 203.539 448.437 200.926C449.342 198.314 444.417 174.983 444.417 174.983Z" fill="white"/>
<path opacity="0.03" d="M444.417 174.983C444.417 174.983 443.214 177.5 440.799 177.092C438.384 176.684 438.389 186.153 438.389 186.153C438.389 186.153 436.784 187.663 435.677 186.354C434.57 185.045 431.652 189.47 431.652 189.47L413.367 190.275C413.367 190.275 421.503 193.995 419.908 205.25C419.908 205.25 447.531 203.539 448.437 200.926C449.342 198.314 444.417 174.983 444.417 174.983Z" fill="black"/>
<path d="M391.279 196.19L396.099 200.307L435.777 208.648L430.857 203.624L391.279 196.19Z" fill="white"/>
<path d="M459.587 150.263C458.927 151.27 457.041 156.424 455.466 160.924C454.153 164.674 453.056 167.971 453.056 167.971C453.056 167.971 450.495 184.653 449.187 187.668C447.878 190.683 448.588 202.441 448.588 202.441L443.712 231.48C443.712 231.48 441.503 246.455 438.092 255.4C434.726 264.204 430.978 268.331 430.862 268.462C432.371 266.418 440.598 226.18 440.598 226.18L443.315 175.431C443.315 175.431 443.712 170.609 444.115 166.486C444.517 162.364 452.668 156.736 452.668 156.736L460.528 145.557C461.317 146.614 460.789 148.456 459.587 150.263Z" fill="white"/>
<path d="M439.093 215.483C439.093 215.483 427.521 214.98 421.916 208.245C416.31 201.51 434.872 205.557 434.872 205.557L439.697 206.665L439.093 215.483Z" fill="#FFB0B1"/>
<path opacity="0.1" d="M493.136 292.563C492.517 294.756 492.417 297.064 492.845 299.303C480.221 300.199 466.716 296.786 466.716 296.786C464.2 299.102 457.574 302.514 457.574 302.514L453.961 257.715C451.652 251.675 450.746 220.029 450.746 220.029C450.746 220.029 450.952 218.373 451.249 215.891C451.249 215.831 451.249 215.765 451.274 215.705C452.175 208.774 453.961 195.762 454.837 194.005C456.044 191.589 451.123 185.161 451.123 185.161L453.362 166.058L453.634 163.753C458.354 161.644 461.971 154.909 461.971 154.909L464.749 150.042C467.768 148.104 467.924 167.095 467.924 167.095L464.905 211.94L474.907 209.176C474.907 209.176 494.842 286.835 493.136 292.563Z" fill="black"/>
<path d="M506.093 295.659C492.332 302.494 467.32 296.162 467.32 296.162C464.804 298.477 458.178 301.89 458.178 301.89L454.56 257.091C452.256 251.051 451.35 219.405 451.35 219.405C451.35 219.405 454.258 195.792 455.466 193.381C455.818 192.676 455.647 191.629 455.229 190.502C453.176 185.135 452.421 179.358 453.026 173.644L453.992 165.434L454.258 163.134C458.983 161.02 462.601 154.285 462.601 154.285L465.116 149.875L469.745 141.751L471.939 137.906L472.311 138.243L475.154 140.82C475.154 140.82 476.362 141.827 478.173 143.337C482.113 146.659 488.92 152.508 492.432 156.087C495.522 159.238 496.498 171.495 496.779 180.721C496.966 186.797 496.855 191.559 496.855 191.559C493.74 196.688 501.886 237.868 501.886 237.868C503.783 245.826 506.093 295.659 506.093 295.659Z" fill="white"/>
<path opacity="0.03" d="M479.677 154.184C479.677 154.184 470.233 172.169 471.33 179.005C472.427 185.841 475.546 193.577 474.042 195.384C473.525 196.069 472.857 196.625 472.09 197.008C471.322 197.391 470.477 197.592 469.619 197.594C468.11 197.695 464.085 200.508 464.085 200.81C464.085 201.112 460.366 201.112 457.04 202.522C453.715 203.931 448.804 204.732 448.804 204.732C448.804 204.732 439.244 204.43 438.354 205.336C437.463 206.242 436.547 211.663 438.454 215.987C440.361 220.311 442.479 223.537 444.079 224.126C445.679 224.715 455.833 221.312 464.069 220.507C472.306 219.702 481.247 213.173 481.247 213.173C481.247 213.173 491.094 209.649 492.819 203.725C494.545 197.8 490.711 165.238 490.711 165.238C490.711 165.238 487.813 150.062 479.677 154.184Z" fill="black"/>
<path opacity="0.03" d="M478.47 152.674C478.47 152.674 469.026 170.664 470.133 177.495C471.239 184.325 474.349 192.067 472.839 193.879C472.324 194.565 471.657 195.121 470.891 195.504C470.124 195.888 469.279 196.088 468.422 196.089C466.912 196.19 462.887 199.003 462.887 199.305C462.887 199.607 459.169 199.607 455.843 201.012C452.517 202.416 447.607 203.222 447.607 203.222C447.607 203.222 438.047 202.92 437.161 203.826C436.276 204.732 435.35 210.158 437.262 214.477C439.174 218.796 441.287 222.027 442.887 222.616C444.487 223.205 454.641 219.802 462.877 219.002C471.114 218.202 480.055 211.663 480.055 211.663C480.055 211.663 489.896 208.139 491.602 202.22C493.308 196.3 489.494 163.728 489.494 163.728C489.494 163.728 486.606 148.557 478.47 152.674Z" fill="black"/>
<path d="M479.38 153.278C479.38 153.278 469.936 171.268 471.043 178.099C472.15 184.929 475.26 192.671 473.755 194.478C473.24 195.165 472.573 195.723 471.805 196.107C471.037 196.492 470.191 196.692 469.333 196.693C467.823 196.794 463.798 199.607 463.798 199.904C463.798 200.201 460.085 200.206 456.754 201.616C453.423 203.025 448.517 203.826 448.517 203.826C448.517 203.826 438.957 203.524 438.067 204.43C437.176 205.336 436.261 210.762 438.168 215.081C440.074 219.4 442.193 222.631 443.793 223.22C445.393 223.809 455.546 220.406 463.783 219.601C472.019 218.796 480.96 212.267 480.96 212.267C480.96 212.267 490.807 208.743 492.533 202.819C494.259 196.894 490.45 164.332 490.45 164.332C490.45 164.332 487.511 149.181 479.38 153.278Z" fill="white"/>
<path opacity="0.1" d="M479.174 201.53C479.174 201.53 471.627 200.02 474.253 202.537C476.88 205.054 476.865 207.258 480.08 207.158C483.295 207.057 479.174 201.53 479.174 201.53Z" fill="black"/>
<path opacity="0.1" d="M491.929 255.682C491.929 255.682 488.517 257.992 495.043 263.318C501.569 268.643 491.929 255.682 491.929 255.682Z" fill="black"/>
<path opacity="0.1" d="M485.418 274.673C485.418 274.975 484.21 285.747 488.729 288.44C493.247 291.133 485.418 274.673 485.418 274.673Z" fill="black"/>
<path d="M413.679 190.25C410.036 190.376 402.167 191.488 406.248 199.104C409.855 205.844 415.918 201.339 419.329 197.921C418.497 194.735 416.475 191.989 413.679 190.25Z" fill="#FFB0B1"/>
<path d="M419.375 197.861L419.526 197.705L419.375 197.861Z" fill="#FFB0B1"/>
<path opacity="0.1" d="M478.173 143.644C474.309 146.286 471.069 148.516 470.435 148.979C468.704 150.263 465.403 157.798 463.275 161.644C461.579 164.74 456.07 165.535 453.992 165.731L454.258 163.431C458.983 161.317 462.601 154.582 462.601 154.582L471.939 138.203L475.154 141.127C475.154 141.127 476.362 142.134 478.173 143.644Z" fill="black"/>
<path d="M478.173 143.342C474.309 145.984 471.069 148.214 470.435 148.682C468.704 149.961 465.403 157.496 463.275 161.342C461.579 164.438 456.07 165.233 453.992 165.429L454.258 163.129C458.983 161.015 462.601 154.28 462.601 154.28L471.939 137.901L475.154 140.815C475.154 140.815 476.362 141.812 478.173 143.342Z" fill="#DCE7FF"/>
<path d="M470.736 130.516C470.739 133.538 469.823 136.489 468.11 138.978C466.087 141.921 463.077 144.04 459.626 144.953C456.175 145.865 452.511 145.51 449.299 143.951C446.087 142.392 443.54 139.733 442.121 136.456C440.701 133.179 440.502 129.502 441.561 126.091C442.62 122.681 444.865 119.763 447.891 117.867C450.916 115.971 454.52 115.222 458.05 115.758C461.579 116.293 464.8 118.076 467.128 120.784C469.456 123.492 470.736 126.945 470.736 130.516Z" fill="#FFB0B1"/>
<path opacity="0.1" d="M496.779 180.726C494.736 179.469 493.072 177.681 491.964 175.552C491.124 173.891 490.565 171.973 489.131 170.795C487.838 169.738 486.112 169.481 484.502 169.008C479.209 167.443 474.771 162.61 474.605 157.094C474.525 154.496 475.335 151.904 474.968 149.332C474.759 147.876 474.18 146.498 473.287 145.33C472.844 144.771 472.358 144.248 471.833 143.765C471.129 143.1 470.389 142.456 469.745 141.751C469.339 141.315 468.985 140.834 468.688 140.317C468.449 139.894 468.255 139.446 468.11 138.983C467.103 135.902 468.019 132.248 466.912 129.132L466.852 128.961C466.434 127.853 465.584 126.746 464.402 126.66C463.219 126.575 462.208 127.556 461.081 127.994C458.721 128.91 456.175 127.35 454.208 125.759C452.24 124.169 450.022 122.352 447.521 122.704C445.866 122.941 444.557 124.068 443.033 124.652C442.689 124.785 442.333 124.888 441.971 124.959C443.261 121.74 445.632 119.071 448.675 117.411C451.719 115.75 455.245 115.202 458.649 115.86C462.053 116.518 465.121 118.342 467.327 121.017C469.532 123.693 470.738 127.053 470.736 130.521C470.738 131.568 470.628 132.613 470.409 133.637C470.434 133.707 470.459 133.773 470.49 133.843C471.073 135.353 471.732 136.904 472.311 138.243L475.154 140.82C475.154 140.82 476.361 141.827 478.173 143.337C482.112 146.659 488.92 152.508 492.432 156.087C495.521 159.248 496.487 171.5 496.779 180.726Z" fill="black"/>
<path d="M442.857 115.456C443.576 113.991 443.934 112.35 444.794 110.961C446.057 108.947 448.261 107.659 450.525 106.878C456.437 104.84 468.93 101.88 472.663 106.878C473.398 107.885 474.007 109.003 475.023 109.697C475.798 110.226 476.734 110.452 477.584 110.85C479.964 111.967 481.484 114.404 482.294 116.89C483.104 119.377 483.345 122.045 483.939 124.607C484.699 127.894 486.032 131.009 487.36 134.105C488.925 137.76 490.586 141.55 493.604 144.132C497.725 147.656 498.636 152.644 502.46 156.51C506.988 161.1 506.842 168.676 504.508 174.691C504.201 175.481 503.854 176.307 503.974 177.147C504.095 177.988 504.719 178.753 505.308 179.423L507.783 182.216C501.926 183.631 495.3 180.57 492.573 175.199C491.733 173.538 491.174 171.626 489.735 170.443C488.447 169.386 486.716 169.134 485.111 168.661C479.818 167.09 475.38 162.253 475.214 156.736C475.134 154.144 475.944 151.552 475.577 148.984C475.372 147.519 474.791 146.132 473.891 144.958C472.507 143.151 470.419 141.937 469.292 139.924C467.385 136.557 468.834 132.182 467.461 128.568C467.038 127.461 466.193 126.353 465.01 126.268C463.828 126.182 462.817 127.164 461.685 127.602C459.33 128.518 456.784 126.962 454.817 125.367C452.849 123.771 450.63 121.959 448.125 122.316C446.469 122.548 445.166 123.676 443.642 124.264C442.515 124.697 440.23 125.085 439.244 124.134C437.161 122.216 441.986 117.248 442.857 115.456Z" fill="#591D4B"/>
<path opacity="0.1" d="M493.972 173.538C493.127 171.877 492.573 169.965 491.134 168.787C489.846 167.73 488.115 167.473 486.505 167C481.217 165.434 476.779 160.597 476.608 155.08C476.528 152.488 477.338 149.891 476.975 147.323C476.765 145.867 476.184 144.49 475.29 143.322C473.901 141.515 471.813 140.302 470.691 138.288C468.784 134.926 470.233 130.551 468.855 126.932C468.437 125.83 467.587 124.723 466.409 124.632C465.232 124.541 464.211 125.533 463.083 125.971C460.729 126.887 458.178 125.327 456.215 123.736C454.253 122.145 452.024 120.328 449.524 120.681C447.868 120.917 446.56 122.045 445.041 122.629C443.913 123.061 441.624 123.454 440.638 122.503C438.565 120.489 443.39 115.531 444.256 113.749C444.975 112.279 445.332 110.644 446.198 109.254C446.243 109.179 446.293 109.103 446.344 109.028C445.696 109.564 445.138 110.2 444.688 110.91C443.828 112.3 443.471 113.93 442.751 115.405C441.881 117.187 437.056 122.16 439.134 124.159C440.14 125.115 442.404 124.723 443.531 124.29C445.041 123.701 446.359 122.573 448.014 122.342C450.53 121.984 452.744 123.801 454.706 125.392C456.668 126.983 459.234 128.543 461.579 127.627C462.706 127.189 463.692 126.202 464.9 126.293C466.107 126.384 466.912 127.486 467.35 128.593C468.724 132.207 467.275 136.582 469.182 139.949C470.309 141.927 472.397 143.166 473.78 144.983C474.681 146.157 475.262 147.544 475.466 149.01C475.833 151.577 475.023 154.169 475.104 156.761C475.27 162.298 479.708 167.116 485.001 168.686C486.596 169.159 488.337 169.411 489.625 170.468C491.069 171.651 491.637 173.564 492.462 175.225C495.189 180.595 501.816 183.656 507.673 182.241L506.505 180.923C501.428 180.998 496.291 178.109 493.972 173.538Z" fill="black"/>
<path opacity="0.1" d="M459.284 150.565C458.625 151.572 456.739 156.726 455.164 161.226C453.689 160.652 452.351 156.993 452.351 156.993L460.21 145.808C461.015 146.916 460.487 148.753 459.284 150.565Z" fill="black"/>
<path d="M459.587 150.263C458.928 151.27 457.041 156.424 455.466 160.924C453.992 160.355 452.653 156.691 452.653 156.691L460.513 145.511C461.318 146.614 460.789 148.456 459.587 150.263Z" fill="#DCE7FF"/>
<path d="M413.891 201.686L409.533 187.94C409.482 187.779 409.463 187.609 409.477 187.441C409.491 187.272 409.538 187.108 409.616 186.958C409.693 186.808 409.8 186.675 409.929 186.566C410.058 186.457 410.208 186.375 410.369 186.324C410.693 186.222 411.044 186.253 411.346 186.41C411.647 186.566 411.875 186.836 411.979 187.159L416.336 200.891L415.903 203.765L413.891 201.686Z" fill="#BE8B87"/>
<path opacity="0.1" d="M409.946 186.731C410.271 186.629 410.623 186.659 410.926 186.815C411.229 186.972 411.457 187.242 411.561 187.567L415.918 201.299L415.591 203.453L415.908 203.785L416.341 200.911L411.958 187.179C411.854 186.856 411.627 186.587 411.325 186.43C411.024 186.274 410.673 186.243 410.348 186.344C410.076 186.432 409.84 186.61 409.679 186.847C409.765 186.801 409.854 186.763 409.946 186.731Z" fill="white"/>
<path d="M413.891 201.686L416.336 200.911L415.979 203.267L415.903 203.785L415.189 203.04L413.891 201.686Z" fill="#EFC8C4"/>
<path d="M415.188 203.04C415.231 202.987 415.284 202.942 415.344 202.909C415.38 202.887 415.421 202.875 415.463 202.875C415.505 202.875 415.546 202.887 415.581 202.909C415.615 202.951 415.644 202.997 415.666 203.045C415.7 203.101 415.745 203.148 415.799 203.184C415.853 203.22 415.914 203.243 415.978 203.252L415.903 203.755L415.188 203.04Z" fill="#727A9C"/>
<path d="M409.508 192.822C409.508 192.822 418.248 192.772 416.19 196.492C414.132 200.211 410.917 200.659 410.917 200.659L409.508 192.822Z" fill="#FFB0B1"/>
<path d="M355.153 25.8828H354.775C339.761 25.8828 326.483 33.8308 318.846 45.5591C311.208 33.8308 297.93 25.8828 282.916 25.8828H282.538C271.271 25.9902 260.501 30.5419 252.569 38.5487C244.637 46.5555 240.184 57.3704 240.178 68.6432C240.178 82.6416 246.307 102.504 258.256 118.848C281.024 149.991 318.846 177.238 318.846 177.238C318.846 177.238 356.667 149.996 379.43 118.848C391.385 102.504 397.508 82.6416 397.508 68.6432C397.502 57.3712 393.05 46.5571 385.119 38.5504C377.188 30.5438 366.42 25.9915 355.153 25.8828ZM349.754 121.244C348.044 121.238 346.376 120.714 344.969 119.742C343.562 118.77 342.482 117.395 341.87 115.798H332.894C332.302 115.794 331.727 115.606 331.248 115.259C330.769 114.913 330.41 114.425 330.222 113.865L327.465 105.555L318.74 136.053C318.57 136.64 318.214 137.156 317.726 137.524C317.238 137.892 316.644 138.091 316.033 138.092H315.857C315.219 138.061 314.612 137.812 314.136 137.387C313.659 136.962 313.343 136.386 313.241 135.756L304.249 81.655L297.678 113.669C297.527 114.277 297.177 114.817 296.684 115.203C296.191 115.589 295.582 115.798 294.956 115.798H282.312C281.933 115.814 281.555 115.753 281.2 115.619C280.845 115.485 280.521 115.281 280.247 115.018C279.973 114.755 279.755 114.44 279.606 114.091C279.457 113.742 279.38 113.366 279.38 112.987C279.38 112.607 279.457 112.232 279.606 111.882C279.755 111.533 279.973 111.218 280.247 110.955C280.521 110.693 280.845 110.488 281.2 110.354C281.555 110.22 281.933 110.159 282.312 110.175H292.742L302.05 67.1331C302.203 66.4967 302.572 65.9332 303.094 65.5389C303.617 65.1446 304.259 64.9439 304.913 64.9713C305.567 64.9986 306.19 65.2523 306.678 65.6888C307.165 66.1254 307.486 66.7177 307.585 67.3646L316.768 122.553L324.587 95.2659C324.749 94.6912 325.094 94.1846 325.568 93.8217C326.042 93.4588 326.621 93.2591 327.218 93.2524H327.273C327.865 93.2526 328.441 93.4396 328.92 93.7867C329.399 94.1338 329.756 94.6233 329.94 95.1853L334.926 110.191H341.759C342.245 108.714 343.129 107.4 344.314 106.395C345.499 105.389 346.938 104.731 348.474 104.492C350.009 104.253 351.581 104.443 353.015 105.042C354.449 105.64 355.69 106.623 356.601 107.882C357.512 109.142 358.057 110.628 358.177 112.178C358.296 113.728 357.986 115.281 357.279 116.665C356.572 118.05 355.497 119.212 354.172 120.023C352.847 120.835 351.323 121.264 349.769 121.264L349.754 121.244Z" fill="#469BB1"/>
</g>
<defs>
<linearGradient id="paint0_linear_171_1094" x1="179.287" y1="390.039" x2="179.287" y2="80.301" gradientUnits="userSpaceOnUse">
<stop stop-color="#808080" stop-opacity="0.25"/>
<stop offset="0.54" stop-color="#808080" stop-opacity="0.12"/>
<stop offset="1" stop-color="#808080" stop-opacity="0.1"/>
</linearGradient>
<linearGradient id="paint1_linear_171_1094" x1="449.528" y1="386.122" x2="449.528" y2="103.234" gradientUnits="userSpaceOnUse">
<stop stop-color="#808080" stop-opacity="0.25"/>
<stop offset="0.54" stop-color="#808080" stop-opacity="0.12"/>
<stop offset="1" stop-color="#808080" stop-opacity="0.1"/>
</linearGradient>
<clipPath id="clip0_171_1094">
<rect width="556" height="394" fill="white"/>
</clipPath>
</defs>
</svg>
