<svg width="181" height="147" viewBox="0 0 181 147" fill="none" xmlns="http://www.w3.org/2000/svg">
<circle cx="87" cy="73" r="73" fill="white"/>
<g clip-path="url(#clip0_191_625)">
<path opacity="0.1" d="M105.164 39.1029C93.5604 38.6978 82.5001 34.9352 71.9547 30.8194C61.4092 26.7037 50.9572 22.1427 39.6252 19.9618C32.3394 18.5575 24.0071 18.36 18.1378 22.2833C12.4884 26.0576 10.6637 32.5735 9.68211 38.6192C8.94386 43.1684 8.51558 47.9554 10.5337 52.2151C11.9385 55.1709 14.4315 57.6565 16.1563 60.4885C22.1556 70.3419 17.9145 82.4934 11.4119 92.1225C8.36226 96.6416 4.82435 100.942 2.4713 105.747C0.118251 110.552 -0.971618 116.057 1.08814 120.958C3.12956 125.812 7.99231 129.464 13.2617 132.03C23.9637 137.237 36.5739 138.727 48.8708 139.58C76.0908 141.45 103.458 140.64 130.749 139.83C140.85 139.528 150.995 139.225 160.931 137.654C166.448 136.782 172.146 135.399 176.152 132.062C181.237 127.824 182.498 120.65 179.09 115.336C173.374 106.425 157.571 104.21 153.575 94.6465C151.377 89.3825 153.635 83.5177 156.831 78.6354C163.685 68.1626 175.177 58.9737 175.782 47.0013C176.199 38.7782 170.674 30.5449 162.132 26.6535C153.18 22.5712 140.765 23.0867 134.161 29.8336C127.36 36.7847 115.408 39.4594 105.164 39.1029Z" fill="#469BB1"/>
<path d="M40.3702 137.354C40.3702 137.354 31.2047 130.395 29.4732 121.542C28.7711 117.824 26.8877 114.435 24.1055 111.883C22.7746 110.682 21.3371 109.607 19.811 108.669" stroke="#535461" stroke-width="2" stroke-miterlimit="10"/>
<path d="M18.6894 103.092C19.4926 104.184 19.8559 108.808 19.8559 108.808C19.8559 108.808 15.5615 107.109 14.7565 106.02C14.37 105.496 14.2065 104.839 14.302 104.194C14.3975 103.55 14.7441 102.969 15.2657 102.581C15.7872 102.193 16.4409 102.029 17.083 102.124C17.7251 102.22 18.3029 102.569 18.6894 103.092V103.092Z" fill="#469BB1"/>
<path d="M26.3919 106.721C26.4752 108.075 24.2805 112.156 24.2805 112.156C24.2805 112.156 21.5925 108.383 21.5075 107.029C21.4752 106.383 21.6974 105.751 22.126 105.269C22.5547 104.787 23.1552 104.494 23.7974 104.453C24.4397 104.413 25.072 104.628 25.5573 105.053C26.0426 105.477 26.3419 106.077 26.3902 106.721H26.3919Z" fill="#469BB1"/>
<path d="M33.8577 117.152C33.2511 118.364 29.3033 120.774 29.3033 120.774C29.3033 120.774 28.8816 116.154 29.4882 114.943C29.7868 114.373 30.2963 113.943 30.9069 113.747C31.5175 113.55 32.1805 113.603 32.7532 113.892C33.3258 114.182 33.7625 114.686 33.969 115.295C34.1756 115.905 34.1356 116.572 33.8577 117.152V117.152Z" fill="#469BB1"/>
<path d="M37.7387 126.317C37.3438 127.615 33.8592 130.659 33.8592 130.659C33.8592 130.659 32.6643 126.178 33.0593 124.88C33.2491 124.256 33.6777 123.734 34.2507 123.429C34.8237 123.123 35.4942 123.058 36.1148 123.249C36.7353 123.439 37.255 123.87 37.5596 124.445C37.8641 125.021 37.9286 125.694 37.7387 126.317V126.317Z" fill="#469BB1"/>
<path d="M20.3075 115.436C21.6407 115.617 25.8552 113.706 25.8552 113.706C25.8552 113.706 22.2989 110.746 20.9591 110.566C20.316 110.479 19.6649 110.652 19.1491 111.048C18.6333 111.443 18.295 112.028 18.2086 112.674C18.1222 113.32 18.2948 113.974 18.6884 114.492C19.082 115.01 19.6644 115.35 20.3075 115.436V115.436Z" fill="#469BB1"/>
<path d="M24.9821 126.1C26.3153 125.871 29.7599 122.782 29.7599 122.782C29.7599 122.782 25.4837 121.028 24.1522 121.258C23.8334 121.31 23.5281 121.425 23.254 121.597C22.9798 121.769 22.7422 121.993 22.5549 122.258C22.3676 122.522 22.2342 122.821 22.1625 123.137C22.0909 123.454 22.0823 123.781 22.1373 124.101C22.1923 124.421 22.3098 124.726 22.4831 125C22.6563 125.274 22.8818 125.511 23.1466 125.696C23.4114 125.882 23.7103 126.014 24.0259 126.083C24.3415 126.152 24.6676 126.158 24.9854 126.1H24.9821Z" fill="#469BB1"/>
<path d="M30.9397 135.839C32.2912 135.839 36.2074 133.381 36.2074 133.381C36.2074 133.381 32.2896 130.925 30.9381 130.925C30.2893 130.925 29.667 131.184 29.2082 131.645C28.7494 132.106 28.4917 132.731 28.4917 133.382C28.4917 134.034 28.7494 134.659 29.2082 135.12C29.667 135.581 30.2893 135.839 30.9381 135.839H30.9397Z" fill="#469BB1"/>
<path d="M129.409 77.1608C129.409 77.1608 135.059 67.1099 143.574 64.2143C147.15 63.0215 150.245 60.6965 152.393 57.5879C153.401 56.1017 154.271 54.5256 154.991 52.8796" stroke="#535461" stroke-width="2" stroke-miterlimit="10"/>
<path d="M160.337 51.0384C159.367 51.9824 154.853 52.9599 154.853 52.9599C154.853 52.9599 155.961 48.4575 156.931 47.5118C157.399 47.0716 158.021 46.8336 158.662 46.8491C159.303 46.8646 159.912 47.1323 160.359 47.5946C160.806 48.0569 161.053 48.6769 161.049 49.321C161.045 49.9651 160.79 50.5818 160.337 51.0384Z" fill="#469BB1"/>
<path d="M157.784 59.1779C156.451 59.4424 152.14 57.7987 152.14 57.7987C152.14 57.7987 155.506 54.6186 156.831 54.3592C157.149 54.2883 157.478 54.2819 157.799 54.3405C158.12 54.399 158.425 54.5213 158.698 54.7001C158.971 54.879 159.206 55.1108 159.388 55.3819C159.571 55.6531 159.697 55.9581 159.761 56.2791C159.824 56.6001 159.823 56.9306 159.758 57.2512C159.692 57.5718 159.564 57.876 159.38 58.1461C159.196 58.4161 158.96 58.6465 158.686 58.8237C158.412 59.0009 158.105 59.1213 157.784 59.1779V59.1779Z" fill="#469BB1"/>
<path d="M148.492 67.9953C147.216 67.5517 144.314 63.9431 144.314 63.9431C144.314 63.9431 148.814 62.9087 150.094 63.3523C150.401 63.4547 150.685 63.6175 150.93 63.8312C151.174 64.0448 151.374 64.3051 151.517 64.5969C151.661 64.8887 151.745 65.2061 151.765 65.5309C151.785 65.8557 151.741 66.1812 151.635 66.4887C151.529 66.7962 151.363 67.0794 151.147 67.322C150.931 67.5646 150.67 67.7617 150.377 67.9018C150.085 68.042 149.768 68.1224 149.444 68.1385C149.121 68.1545 148.797 68.1058 148.492 67.9953V67.9953Z" fill="#469BB1"/>
<path d="M139.953 73.0768C138.62 72.8559 135.16 69.7845 135.16 69.7845C135.16 69.7845 139.425 68.0003 140.756 68.2212C141.397 68.3271 141.97 68.6844 142.349 69.2144C142.727 69.7444 142.881 70.4037 142.775 71.0474C142.67 71.6911 142.314 72.2663 141.787 72.6466C141.259 73.0269 140.602 73.181 139.961 73.0751L139.953 73.0768Z" fill="#469BB1"/>
<path d="M148.375 54.2788C148.374 55.6363 150.825 59.5746 150.825 59.5746C150.825 59.5746 153.273 55.6413 153.273 54.2855C153.282 53.9576 153.225 53.6312 153.106 53.3258C152.987 53.0203 152.808 52.7418 152.58 52.5068C152.352 52.2718 152.08 52.0851 151.779 51.9576C151.478 51.83 151.154 51.7643 150.828 51.7643C150.501 51.7643 150.178 51.83 149.877 51.9576C149.576 52.0851 149.303 52.2718 149.075 52.5068C148.847 52.7418 148.669 53.0203 148.55 53.3258C148.431 53.6312 148.374 53.9576 148.382 54.2855L148.375 54.2788Z" fill="#469BB1"/>
<path d="M138.472 60.3479C138.875 61.6434 142.381 64.6645 142.381 64.6645C142.381 64.6645 143.548 60.1755 143.141 58.88C142.93 58.2798 142.496 57.7852 141.929 57.5003C141.362 57.2155 140.708 57.1626 140.103 57.3528C139.498 57.5431 138.991 57.9616 138.687 58.5202C138.383 59.0789 138.307 59.7341 138.475 60.3479H138.472Z" fill="#469BB1"/>
<path d="M129.661 67.5735C129.841 68.9125 132.787 72.4893 132.787 72.4893C132.787 72.4893 134.689 68.2631 134.509 66.9191C134.473 66.5934 134.373 66.2782 134.214 65.9921C134.055 65.7059 133.841 65.4545 133.584 65.2526C133.327 65.0508 133.033 64.9026 132.718 64.8168C132.403 64.7309 132.075 64.7092 131.751 64.7529C131.428 64.7965 131.117 64.9046 130.836 65.0709C130.555 65.2372 130.31 65.4582 130.115 65.721C129.92 65.9838 129.78 66.2831 129.702 66.6013C129.624 66.9194 129.61 67.25 129.661 67.5735V67.5735Z" fill="#469BB1"/>
<path opacity="0.25" d="M160.337 51.0384C159.367 51.9824 154.853 52.9599 154.853 52.9599C154.853 52.9599 155.961 48.4575 156.931 47.5118C157.399 47.0716 158.021 46.8336 158.662 46.8491C159.303 46.8646 159.912 47.1323 160.359 47.5946C160.806 48.0569 161.053 48.6769 161.049 49.321C161.045 49.9651 160.79 50.5818 160.337 51.0384Z" fill="black"/>
<path opacity="0.25" d="M157.784 59.1779C156.451 59.4424 152.14 57.7987 152.14 57.7987C152.14 57.7987 155.506 54.6186 156.831 54.3592C157.149 54.2883 157.478 54.2819 157.799 54.3405C158.12 54.399 158.425 54.5213 158.698 54.7001C158.971 54.879 159.206 55.1108 159.388 55.3819C159.571 55.6531 159.697 55.9581 159.761 56.2791C159.824 56.6001 159.823 56.9306 159.758 57.2512C159.692 57.5718 159.564 57.876 159.38 58.1461C159.196 58.4161 158.96 58.6465 158.686 58.8237C158.412 59.0009 158.105 59.1213 157.784 59.1779V59.1779Z" fill="black"/>
<path opacity="0.25" d="M148.492 67.9953C147.216 67.5517 144.314 63.9431 144.314 63.9431C144.314 63.9431 148.814 62.9087 150.094 63.3523C150.401 63.4547 150.685 63.6175 150.93 63.8312C151.174 64.0448 151.374 64.3051 151.517 64.5969C151.661 64.8887 151.745 65.2061 151.765 65.5309C151.785 65.8557 151.741 66.1812 151.635 66.4887C151.529 66.7962 151.363 67.0794 151.147 67.322C150.931 67.5646 150.67 67.7617 150.377 67.9018C150.085 68.042 149.768 68.1224 149.444 68.1385C149.121 68.1545 148.797 68.1058 148.492 67.9953V67.9953Z" fill="black"/>
<path opacity="0.25" d="M139.953 73.0768C138.62 72.8559 135.16 69.7845 135.16 69.7845C135.16 69.7845 139.425 68.0003 140.756 68.2212C141.397 68.3271 141.97 68.6844 142.349 69.2144C142.727 69.7444 142.881 70.4037 142.775 71.0474C142.67 71.6911 142.314 72.2663 141.787 72.6466C141.259 73.0269 140.602 73.181 139.961 73.0751L139.953 73.0768Z" fill="black"/>
<path opacity="0.25" d="M148.375 54.2788C148.374 55.6363 150.825 59.5746 150.825 59.5746C150.825 59.5746 153.273 55.6413 153.273 54.2855C153.282 53.9576 153.225 53.6312 153.106 53.3258C152.987 53.0203 152.808 52.7418 152.58 52.5068C152.352 52.2718 152.08 52.0851 151.779 51.9576C151.478 51.83 151.154 51.7643 150.828 51.7643C150.501 51.7643 150.178 51.83 149.877 51.9576C149.576 52.0851 149.303 52.2718 149.075 52.5068C148.847 52.7418 148.669 53.0203 148.55 53.3258C148.431 53.6312 148.374 53.9576 148.382 54.2855L148.375 54.2788Z" fill="black"/>
<path opacity="0.25" d="M138.472 60.3479C138.875 61.6434 142.381 64.6645 142.381 64.6645C142.381 64.6645 143.548 60.1755 143.141 58.88C142.93 58.2798 142.496 57.7852 141.929 57.5003C141.362 57.2155 140.708 57.1626 140.103 57.3528C139.498 57.5431 138.991 57.9616 138.687 58.5202C138.383 59.0789 138.307 59.7341 138.475 60.3479H138.472Z" fill="black"/>
<path opacity="0.25" d="M129.661 67.5735C129.841 68.9125 132.787 72.4893 132.787 72.4893C132.787 72.4893 134.689 68.2631 134.509 66.9191C134.473 66.5934 134.373 66.2782 134.214 65.9921C134.055 65.7059 133.841 65.4545 133.584 65.2526C133.327 65.0508 133.033 64.9026 132.718 64.8168C132.403 64.7309 132.075 64.7092 131.751 64.7529C131.428 64.7965 131.117 64.9046 130.836 65.0709C130.555 65.2372 130.31 65.4582 130.115 65.721C129.92 65.9838 129.78 66.2831 129.702 66.6013C129.624 66.9194 129.61 67.25 129.661 67.5735V67.5735Z" fill="black"/>
<path d="M129.734 76.9616C129.734 76.9616 130.844 65.4729 137.453 59.3637C140.241 56.8176 142.132 53.4327 142.843 49.7162C143.166 47.9494 143.327 46.1566 143.324 44.3602" stroke="#535461" stroke-width="2" stroke-miterlimit="10"/>
<path d="M147.467 40.4837C146.967 41.7424 143.228 44.474 143.228 44.474C143.228 44.474 142.425 39.9063 142.93 38.6476C143.173 38.0432 143.645 37.5606 144.242 37.3059C144.84 37.0511 145.513 37.0452 146.115 37.2894C146.717 37.5335 147.197 38.0077 147.451 38.6077C147.705 39.2078 147.711 39.8844 147.467 40.4887V40.4837Z" fill="#469BB1"/>
<path d="M148.419 48.973C147.314 49.753 142.703 50.0091 142.703 50.0091C142.703 50.0091 144.499 45.7343 145.604 44.9543C145.866 44.7574 146.165 44.6152 146.483 44.5363C146.8 44.4574 147.131 44.4433 147.454 44.4948C147.777 44.5464 148.087 44.6626 148.364 44.8365C148.642 45.0105 148.882 45.2386 149.071 45.5074C149.259 45.7762 149.392 46.0803 149.461 46.4015C149.53 46.7228 149.535 47.0548 149.474 47.3778C149.413 47.7008 149.288 48.0082 149.107 48.282C148.926 48.5557 148.692 48.7901 148.419 48.9714V48.973Z" fill="#469BB1"/>
<path d="M143.476 60.8199C142.13 60.9337 138.02 58.8114 138.02 58.8114C138.02 58.8114 141.72 56.0329 143.066 55.9191C143.713 55.8645 144.354 56.0701 144.85 56.4907C145.346 56.9114 145.655 57.5125 145.709 58.1619C145.763 58.8114 145.559 59.4559 145.14 59.9537C144.721 60.4516 144.123 60.7619 143.476 60.8165V60.8199Z" fill="#469BB1"/>
<path d="M137.725 68.9359C136.417 69.2707 132.011 67.8865 132.011 67.8865C132.011 67.8865 135.189 64.5206 136.497 64.1791C137.125 64.0155 137.792 64.1092 138.351 64.4396C138.91 64.77 139.316 65.3099 139.479 65.9407C139.642 66.5715 139.549 67.2415 139.22 67.8032C138.891 68.3649 138.353 68.7723 137.725 68.9359V68.9359Z" fill="#469BB1"/>
<path d="M137.842 48.3236C138.388 49.5639 142.211 52.1732 142.211 52.1732C142.211 52.1732 142.861 47.5804 142.315 46.3402C142.042 45.7599 141.555 45.3097 140.956 45.0856C140.358 44.8616 139.696 44.8815 139.112 45.1411C138.528 45.4008 138.068 45.8796 137.831 46.4752C137.593 47.0708 137.597 47.736 137.842 48.3286V48.3236Z" fill="#469BB1"/>
<path d="M131.236 57.9008C132.127 58.9202 136.55 60.2558 136.55 60.2558C136.55 60.2558 135.804 55.6781 134.912 54.6588C134.702 54.4112 134.444 54.208 134.155 54.0611C133.866 53.9143 133.55 53.8266 133.227 53.8032C132.904 53.7798 132.579 53.8212 132.272 53.925C131.964 54.0288 131.681 54.1928 131.437 54.4076C131.194 54.6224 130.995 54.8837 130.853 55.1763C130.711 55.4689 130.628 55.7869 130.609 56.1119C130.59 56.4369 130.636 56.7625 130.744 57.0696C130.851 57.3767 131.019 57.6592 131.236 57.9008V57.9008Z" fill="#469BB1"/>
<path d="M126.088 68.0974C126.795 69.2523 130.929 71.3194 130.929 71.3194C130.929 71.3194 130.964 66.6814 130.263 65.5248C129.914 64.9908 129.371 64.6144 128.75 64.4755C128.129 64.3366 127.479 64.446 126.937 64.7806C126.395 65.1153 126.004 65.6487 125.847 66.2679C125.69 66.8871 125.78 67.5433 126.097 68.0974H126.088Z" fill="#469BB1"/>
<path d="M121.236 31.9693C121.512 30.95 121.846 29.9257 122.079 28.8929C121.799 29.9257 121.464 30.9533 121.236 31.9693Z" fill="url(#paint0_linear_191_625)"/>
<path d="M119.996 41.7876C119.972 41.7474 119.956 41.7073 119.937 41.6704C119.937 41.6537 119.921 41.6403 119.914 41.6236C119.878 41.6408 119.84 41.6559 119.802 41.6688C119.729 41.6972 119.654 41.724 119.577 41.7457C119.501 41.7675 119.469 41.7792 119.411 41.7926C119.362 41.8093 119.313 41.8222 119.262 41.8311L119.276 41.8612C119.337 41.8478 119.397 41.8361 119.459 41.8194L119.476 42.0269C119.546 42.0269 119.611 42.0169 119.674 42.0169C119.704 42.0152 119.734 42.0152 119.764 42.0169C119.894 42.0169 120.007 42.0169 120.097 42.0169C120.062 41.9416 120.026 41.8629 119.996 41.7876ZM153.825 95.8717C153.042 94.8122 151.478 83.4407 151.478 83.4407C151.478 83.4407 148.404 75.3548 149.242 72.1278C150.08 68.9008 146.952 60.6442 146.952 60.6442C146.952 60.6442 144.886 59.742 144.774 58.403C144.774 58.403 136.337 55.725 135.942 53.7165C135.622 52.0695 130.389 50.8878 128.51 50.5146C127.936 48.1914 127.36 46.0239 126.935 44.8405C126.82 44.4723 126.711 44.1543 126.611 43.9032C125.893 42.0621 123.673 41.8947 122.064 42.042C121.994 41.7282 121.864 41.4309 121.682 41.1666C121.655 41.0758 121.603 40.9948 121.53 40.934C121.496 40.9044 121.459 40.8775 121.42 40.8536C121.391 40.7994 121.353 40.7507 121.307 40.7097C121.261 40.6683 121.211 40.6324 121.157 40.6026C121.118 40.5815 121.078 40.5631 121.037 40.5473C120.941 40.5104 120.841 40.4829 120.739 40.4653C120.62 40.4408 120.5 40.4251 120.379 40.4185C120.673 40.2892 120.935 40.0967 121.147 39.8544C121.291 39.6843 121.398 39.4859 121.462 39.2719C121.515 39.094 121.538 38.9085 121.532 38.7229C121.489 38.7994 121.439 38.8717 121.382 38.9389C121.452 38.1974 121.062 37.4442 120.839 36.7061C120.568 35.7451 120.518 34.7351 120.692 33.7519C120.915 32.2689 121.469 30.7692 121.844 29.2595C121.845 29.2512 121.845 29.2427 121.844 29.2344C122.04 28.4846 122.162 27.7171 122.207 26.943C122.272 25.3814 121.874 23.8231 121.234 22.4005C120.665 21.1401 119.827 19.8999 118.544 19.3877C117.591 19.0011 116.523 19.063 115.496 18.9994C113.193 18.8554 110.997 18.042 108.807 17.3022C106.617 16.5624 104.364 15.8895 102.059 16.0184C99.7546 16.1473 97.3833 17.2637 96.3317 19.3124C95.9984 19.9517 95.8068 20.6631 95.4085 21.264C94.6619 22.3971 93.3254 22.9645 92.2105 23.7462C91.0957 24.5278 90.1141 25.6375 89.7108 26.9614C89.4906 27.6747 89.4596 28.4334 89.6208 29.1624V29.1624C89.6571 29.3271 89.7039 29.4892 89.7608 29.6478C89.919 30.0901 90.1657 30.4951 90.4857 30.8379C90.7271 31.0912 91.0045 31.3072 91.309 31.4789V31.4789C91.6913 31.6918 92.1005 31.8517 92.5255 31.9543C92.5105 32.0045 92.4955 32.058 92.4788 32.1099C92.4522 32.1953 92.4288 32.2773 92.4038 32.3694C92.3489 32.5752 92.2972 32.7844 92.2539 32.9953C92.2521 33.0104 92.2521 33.0255 92.2539 33.0405C92.0492 33.9926 91.9464 34.9638 91.9472 35.9378C91.9469 36.3984 91.9703 36.8588 92.0172 37.317V37.317C92.6838 44.1091 98.2665 49.4668 105.164 49.8149C105.401 49.8267 105.639 49.8333 105.881 49.8333C105.991 49.8333 106.099 49.8333 106.214 49.8333C106.322 49.9773 106.429 50.1246 106.53 50.2685C106.632 50.4125 106.725 50.5598 106.814 50.7037L106.572 50.4526L106.331 50.23C106.265 50.3203 106.192 50.4049 106.112 50.4828C105.955 50.4271 105.794 50.3813 105.631 50.3455V50.3455C104.939 50.1915 103.886 50.1346 102.499 50.5547C101.224 50.938 99.6663 51.7264 97.8432 53.2244L88.9593 58.5804L84.1532 61.5162L82.4217 65.7675C82.4217 65.7675 81.1202 70.8189 79.672 76.6068C79.6154 76.6235 79.5604 76.6402 79.5054 76.6603C79.3881 76.6469 79.2701 76.6402 79.1521 76.6403C78.3119 76.6383 77.5036 76.9634 76.897 77.5474C76.2904 78.1313 75.9328 78.9286 75.8992 79.7719C73.0195 83.2867 72.8562 86.8016 73.5328 88.4151C73.594 88.5663 73.6711 88.7105 73.7627 88.8453C74.206 89.488 75.0343 91.145 75.8742 92.9108C75.8525 93.0565 75.8392 93.1787 75.8325 93.2707C75.831 93.3008 75.831 93.331 75.8325 93.3611C75.8325 93.3611 76.3324 100.945 74.666 103.119C74.301 103.593 74.356 104.215 74.666 104.905C75.7825 107.386 80.197 110.698 80.197 110.698C80.197 110.698 85.4913 110.669 88.441 110.346C88.4327 110.644 88.426 110.941 88.4193 111.23C88.3527 114.156 88.3527 116.608 88.3527 116.608L88.2427 119.676C88.2427 119.676 87.2428 126.142 86.7429 127.924C86.4279 129.042 86.7912 139.394 87.1078 147.005H139.272C139.885 142.503 139.02 128.823 139.02 128.823C139.02 128.823 138.198 125.286 138.168 122.203C138.167 122.2 138.166 122.196 138.166 122.192C138.166 122.189 138.167 122.185 138.168 122.182C138.168 121.912 138.168 121.649 138.178 121.392L138.557 121.378L139.237 121.355H139.298C139.298 121.355 139.315 121.291 139.353 121.187C139.443 120.929 139.566 120.683 139.718 120.456C140.008 120.026 140.461 119.604 141.143 119.575C141.52 119.56 142.103 119.254 142.761 118.802C142.766 118.803 142.77 118.803 142.774 118.802C144.546 117.599 146.887 115.378 147.456 115.013C148.237 114.511 151.98 111.163 151.98 111.163C151.98 111.163 152.538 110.454 153.133 109.598L153.155 109.568C153.895 108.497 154.681 107.216 154.488 106.813C154.155 106.09 154.711 104.361 154.711 104.361C156.45 101.166 154.608 96.9312 153.825 95.8717ZM121.6 44.3903C121.616 44.4403 121.626 44.4919 121.63 44.5443C121.589 44.489 121.547 44.4305 121.505 44.3769L121.465 44.3233L121.437 44.2832L121.5 44.1961C121.5 44.1961 121.5 44.1961 121.5 44.2078C121.544 44.2621 121.578 44.3239 121.6 44.3903V44.3903ZM121.04 42.9073C120.859 42.9442 120.715 42.9776 120.622 43.0027C120.504 42.7918 120.39 42.581 120.289 42.3667C120.556 42.5224 120.808 42.7034 121.04 42.9073V42.9073ZM120.727 43.1718C120.727 43.1685 120.727 43.1651 120.727 43.1617L120.74 43.1718C120.809 43.217 120.875 43.2605 120.937 43.3057C120.992 43.3459 121.042 43.3844 121.092 43.4245C121.059 43.4831 121.022 43.5434 120.985 43.5919C120.927 43.4998 120.872 43.4111 120.819 43.3191C120.785 43.2823 120.755 43.232 120.727 43.1718ZM119.727 41.1064C120.049 41.0745 120.374 41.0745 120.695 41.1064V41.1064C120.74 41.1064 120.78 41.1147 120.82 41.1214C120.911 41.1355 121 41.1585 121.085 41.1901C121.282 41.4668 121.404 41.7905 121.437 42.129L121.347 42.1424L121.259 42.1592C121.092 42.1876 120.925 42.2161 120.795 42.2429L120.629 42.278C120.407 42.3265 120.279 42.3634 120.274 42.365C120.252 42.3198 120.231 42.278 120.207 42.2345C120.171 42.1625 120.132 42.0889 120.099 42.0169C120.066 41.9449 120.022 41.8629 119.987 41.7876C119.964 41.7474 119.947 41.7073 119.929 41.6704C119.929 41.6537 119.912 41.6403 119.906 41.6236C119.896 41.6058 119.887 41.5873 119.881 41.5683C119.779 41.3608 119.686 41.1532 119.596 40.949C119.586 40.929 119.577 40.9072 119.569 40.8871L119.696 40.8787V40.9223L119.727 41.1064ZM79.967 144.936C79.9537 142.444 79.7737 139.748 79.2738 137.217C79.0604 136.141 78.8405 135.064 78.6172 134.007C78.5605 133.742 78.5055 133.481 78.4505 133.22L77.9372 133.289H77.8906C76.4908 126.659 75.0276 120.817 75.0276 120.817C75.0276 120.817 72.1213 109.672 72.4579 108.783C72.5012 108.668 72.4462 108.356 72.3229 107.899C71.6197 105.365 68.6834 98.3824 67.6568 95.9956C67.6568 95.9855 67.6485 95.9738 67.6451 95.9655C67.4785 95.5654 67.3585 95.296 67.3218 95.2173L67.5635 91.6555L67.5768 91.4413L67.6085 90.986L67.5951 90.9743L67.6085 90.7634C67.6085 90.7634 65.0721 88.6746 60.776 87.1665C60.6093 87.1063 60.4327 87.0477 60.2577 86.9908C60.4727 85.5497 60.7576 83.9228 61.1293 82.3377C61.1643 82.1787 61.2026 82.0247 61.2426 81.8691C61.2776 81.7134 61.3176 81.5628 61.3576 81.4105C61.4209 81.1627 61.4892 80.9184 61.5592 80.6774C61.7908 80.6037 62.0192 80.5217 62.2441 80.4347L62.3308 80.4012C65.1023 79.318 67.3891 77.263 68.7679 74.6164C70.1466 71.9699 70.5239 68.9113 69.8299 66.0069V66.0069C69.4341 64.3596 68.7034 62.8125 67.6835 61.4626C67.6068 61.3588 67.5252 61.2551 67.4435 61.153C67.3618 61.0509 67.2635 60.9371 67.1719 60.8333C67.6535 59.7336 68.2217 58.6875 68.2684 57.618C68.2767 57.4825 68.2767 57.3467 68.2684 57.2113V57.1945C68.2067 56.5066 67.9034 55.8103 67.1969 55.0789C66.1653 54.006 64.6972 53.4621 63.229 53.2009C61.7608 52.9398 60.2644 52.9331 58.7879 52.7574C56.3398 52.4628 53.9551 51.7046 51.5071 51.472C48.4917 51.1915 45.4559 51.7109 42.7031 52.9783C40.8817 53.8152 39.0369 55.2781 38.9269 57.2849C38.8369 58.9436 39.9868 60.5337 39.6968 62.1723C39.4085 63.7824 37.7754 65.0495 37.9187 66.678C37.9737 67.3141 38.2987 67.8832 38.7053 68.3903C38.8453 68.5577 38.9936 68.7251 39.1469 68.8924C39.7402 69.5234 40.3934 70.1293 40.725 70.9244C40.7384 70.9578 40.7517 70.9913 40.7634 71.0248C41.045 71.8098 40.9183 72.8023 40.2218 73.2526C40.2256 73.2556 40.2285 73.2596 40.2301 73.2643V73.2643C40.2401 73.2777 40.2501 73.2877 40.2584 73.3011C40.2594 73.2984 40.2594 73.2954 40.2584 73.2927C40.5054 73.5868 40.8383 73.7953 41.21 73.8886L41.3516 73.9321C41.2366 74.0576 41.1283 74.1882 41.0183 74.3254L40.9467 74.4209C40.763 74.6689 40.596 74.9289 40.4467 75.1991C40.3617 75.3498 40.2801 75.5004 40.2118 75.6511C39.9833 76.1102 39.818 76.5984 39.7202 77.1022C39.5418 78.2102 39.7935 79.3651 39.5235 80.4497C39.1902 81.7887 38.1353 82.8164 37.5404 84.06C36.4139 86.4033 37.0521 89.1533 37.2788 91.7409C37.5871 95.2558 37.0871 98.7857 36.5889 102.277C36.3244 104.134 36.06 105.992 35.7956 107.852C35.129 112.521 34.4624 117.19 33.7959 121.858C33.5526 123.569 33.2643 125.373 32.1294 126.694H32.1411C32.1411 126.694 32.1411 126.704 32.1294 126.707C32.4701 126.857 32.8324 126.951 33.2026 126.985V126.985C34.6841 127.134 36.2539 126.414 37.5871 125.628C38.6429 125.015 39.6427 124.31 40.5751 123.521C40.4384 124.023 40.2917 124.57 40.1351 125.159C40.1356 125.165 40.1356 125.17 40.1351 125.176V125.176C38.2537 132.373 35.2274 145.567 35.2274 145.567C35.2274 145.567 34.9524 146.141 34.5958 146.997H81.5901C81.0402 146.327 80.5286 145.686 80.1287 145.169L79.967 144.936ZM45.1712 78.3877C45.1828 78.3676 45.1912 78.3492 45.2028 78.3307C45.2028 78.3843 45.2028 78.4362 45.2028 78.4864C45.2028 78.5366 45.2028 78.5818 45.2028 78.6287C45.2028 78.6755 45.2028 78.6705 45.2028 78.694C45.2028 78.7174 45.2028 78.694 45.2028 78.694C45.2028 78.7626 45.1878 78.8312 45.1762 78.8998C45.1762 78.8998 45.1762 78.9082 45.1762 78.9149L45.3428 78.9768L45.5361 79.0572C46.6782 79.5102 47.8347 79.9203 49.0057 80.2874C49.1257 80.3259 49.2473 80.3627 49.369 80.3978L49.394 80.6054C49.424 80.818 49.4523 81.0339 49.479 81.2498C49.479 81.2498 49.479 81.2598 49.479 81.2665C49.554 81.8641 49.6273 82.4599 49.6923 83.0424C49.6923 83.0424 46.6327 81.8707 46.671 83.6499C46.6692 83.6817 46.6692 83.7136 46.671 83.7454C46.6676 83.7877 46.6676 83.8302 46.671 83.8726C46.6993 85.2584 47.1309 86.0802 47.2176 86.502C47.2124 86.5195 47.2033 86.5355 47.1909 86.5489C47.117 86.7105 47.0915 86.8902 47.1176 87.0661C47.1147 87.3655 47.1381 87.6646 47.1876 87.9599C47.0976 88.0151 47.0093 88.0703 46.921 88.1273C46.8543 88.1691 46.791 88.216 46.726 88.2628C46.3172 86.8385 45.7823 85.4539 45.1278 84.1253C44.6696 83.1779 44.1546 82.1904 44.1596 81.151C44.1596 81.0841 44.1596 81.0155 44.168 80.9468C44.1865 80.6456 44.2437 80.348 44.3379 80.0614C44.3763 79.9526 44.4179 79.8455 44.4646 79.7401C44.5735 79.4895 44.6953 79.2448 44.8295 79.0069C44.9162 78.8496 45.0079 78.694 45.0962 78.5366C45.1245 78.4898 45.1512 78.4412 45.1778 78.3944L45.1712 78.3877ZM119.996 41.7876C119.972 41.7474 119.956 41.7073 119.937 41.6704C119.937 41.6537 119.921 41.6403 119.914 41.6236C119.878 41.6408 119.84 41.6559 119.802 41.6688C119.729 41.6972 119.654 41.724 119.577 41.7457C119.501 41.7675 119.469 41.7792 119.411 41.7926L119.262 41.8311L119.276 41.8612C119.337 41.8478 119.397 41.8361 119.459 41.8194L119.476 42.0269C119.546 42.0269 119.611 42.0169 119.674 42.0169H119.764C119.894 42.0169 120.007 42.0169 120.097 42.0169C120.062 41.9416 120.026 41.8629 119.996 41.7876Z" fill="url(#paint1_linear_191_625)"/>
<path d="M83.5833 66.3717L82.5835 66.8153C82.5835 66.8153 76.0659 92.2464 76.0659 94.3017C76.0659 96.3571 89.8859 107.794 89.8859 107.794L92.0423 93.1753C92.0423 93.1753 88.946 59.6516 83.5833 66.3717Z" fill="#E8F5FF"/>
<path d="M113.898 58.2825L108.124 55.2563C107.8 53.8715 107.226 52.5582 106.431 51.3816C105.586 50.1564 104.462 48.9529 103.063 48.3253C99.5247 46.7319 118.028 38.3681 118.028 38.3681C118.319 39.3728 118.662 40.3617 119.056 41.3307C120.009 43.694 121.59 46.7503 123.629 47.6206C127.093 49.1019 113.898 58.2825 113.898 58.2825Z" fill="#FFC1C7"/>
<path opacity="0.1" d="M119.056 41.3307C118.265 44.1233 116.621 46.596 114.356 48.3994C112.09 50.2029 109.318 51.246 106.431 51.3816C105.586 50.1564 104.462 48.9529 103.063 48.3253C99.5247 46.7319 118.028 38.3681 118.028 38.3681C118.319 39.3728 118.662 40.3617 119.056 41.3307V41.3307Z" fill="black"/>
<path d="M119.576 37.1078C119.576 39.8467 118.768 42.5242 117.254 44.8018C115.739 47.0794 113.586 48.8548 111.067 49.9033C108.548 50.9518 105.775 51.2264 103.101 50.6923C100.426 50.1583 97.9692 48.8396 96.0408 46.903C94.1124 44.9664 92.7992 42.499 92.2672 39.8127C91.7351 37.1265 92.0082 34.3421 93.0518 31.8117C94.0955 29.2813 95.8628 27.1187 98.1303 25.5972C100.398 24.0757 103.064 23.2638 105.791 23.2641C107.603 23.2557 109.399 23.608 111.075 24.3007C112.752 24.9934 114.274 26.0128 115.556 27.3C116.838 28.5871 117.853 30.1166 118.543 31.8C119.233 33.4834 119.584 35.2874 119.576 37.1078V37.1078Z" fill="#FFC1C7"/>
<path d="M121.565 56.5049L117.806 65.3156L114.49 71.1637H103.874L100.778 63.1682L102.033 54.8764H110.14L115.374 54.5801L117.143 53.9876L118.282 54.637L121.565 56.5049Z" fill="#575A89"/>
<path opacity="0.1" d="M120.271 44.7602C120.271 44.7602 122.615 45.2623 120.516 46.9913C118.416 48.7203 111.172 54.2186 111.172 54.2186C111.172 54.2186 113.716 56.4949 113.19 59.1612L121.62 54.4412L123.12 46.8892C123.12 46.8892 123.289 44.6196 120.271 44.7602Z" fill="black"/>
<path opacity="0.1" d="M112.83 54.2186L107.467 55.1074C107.467 55.1074 108.574 59.2164 108.021 60.383C108.004 60.4193 107.99 60.4568 107.979 60.4952L105.791 66.4354L107.431 71.1001L113.107 63.3255L111.172 60.383C111.172 60.383 113.217 57.6615 114.433 56.7175C115.65 55.7735 112.83 54.2186 112.83 54.2186Z" fill="black"/>
<path d="M112.83 53.9893L107.467 54.8764C107.467 54.8764 108.574 58.9855 108.021 60.1521C108.004 60.1883 107.99 60.2258 107.979 60.2642L105.791 66.2044L107.431 70.8691L113.107 63.0895L111.172 60.147C111.172 60.147 113.217 57.4255 114.433 56.4815C115.65 55.5375 112.83 53.9893 112.83 53.9893Z" fill="#DCE6F2"/>
<path d="M120.496 44.3166C120.496 44.3166 122.84 44.8188 120.739 46.5478C118.637 48.2767 111.172 54.2186 111.172 54.2186C111.172 54.2186 113.936 56.0514 113.411 58.716L121.842 53.9977L123.342 46.4457C123.342 46.4457 123.508 44.176 120.496 44.3166Z" fill="#575A89"/>
<path opacity="0.1" d="M106.799 51.9055C106.799 51.9055 107.311 52.8662 109.569 54.5985C109.569 54.5985 105.809 56.607 107.247 59.4307L101.496 57.9243L100.611 55.1475L106.799 51.9055Z" fill="black"/>
<path d="M106.577 51.6845C106.577 51.6845 107.089 52.6453 109.347 54.3776C109.347 54.3776 105.587 56.3761 107.026 59.2081L101.276 57.7017L100.391 54.9266L106.577 51.6845Z" fill="#575A89"/>
<path opacity="0.1" d="M121.565 56.5049L117.806 65.3156L114.496 71.1637H103.874L100.778 63.1682L102.031 54.8764H104.286C104.249 56.8112 104.952 59.0842 104.907 59.9294C104.831 61.3187 106.97 68.8138 106.97 68.8138C106.97 68.8138 111.448 61.5396 113.216 60.8919C114.328 60.4851 116.683 57.1008 118.281 54.637L121.565 56.5049Z" fill="black"/>
<path d="M136.375 102.87L135.994 103.352C135.994 103.352 138.758 117.289 137.994 120.454C137.864 121.025 137.789 121.607 137.772 122.192V122.217C137.637 125.437 138.605 129.616 138.605 129.616C138.605 129.616 139.378 141.935 138.938 147.002H87.1747C86.8714 139.51 86.5447 129.804 86.8414 128.728C87.3413 126.952 88.3412 120.509 88.3412 120.509L88.4512 117.457C88.4512 117.457 88.4512 114.506 88.5412 111.218C88.5795 109.74 88.6362 108.189 88.7178 106.813C88.8228 105.082 88.9695 103.625 89.1711 102.908C89.2953 102.365 89.3667 101.811 89.3844 101.255C89.3844 101.203 89.3844 101.149 89.3944 101.096C89.3944 100.928 89.4111 100.747 89.4177 100.562C89.4177 100.51 89.4177 100.458 89.4177 100.394C89.4494 99.3163 89.4377 98.0376 89.4027 96.712C89.4027 96.64 89.4027 96.5663 89.4027 96.4927C89.3744 95.4985 89.3327 94.4842 89.2861 93.5201C89.1411 90.5073 88.9528 87.9599 88.9528 87.9599L82.5952 66.8036L84.3083 62.5656L89.0628 59.6399L97.8534 54.309C102.141 50.769 104.964 51.1941 106.041 51.5824C106.145 51.6183 106.248 51.6602 106.347 51.708C106.381 51.7247 106.407 51.7381 106.432 51.7531C106.467 51.7694 106.499 51.7885 106.531 51.8101V51.8101C106.236 51.9525 105.98 52.1644 105.784 52.4277C105.564 52.7273 105.407 53.0691 105.322 53.4319C105.266 53.6568 105.227 53.8857 105.204 54.1165C105.183 54.3592 105.174 54.6103 105.174 54.863C105.186 55.4173 105.233 55.9702 105.316 56.5183C105.316 56.5284 105.316 56.5418 105.316 56.5552C105.371 56.9468 105.439 57.3301 105.506 57.69C105.505 57.6961 105.505 57.7023 105.506 57.7084C105.582 58.1285 105.659 58.5168 105.711 58.8516C105.721 58.9118 105.729 58.967 105.737 59.0189C105.774 59.2401 105.791 59.4642 105.789 59.6884C105.808 60.2299 105.88 60.7682 106.006 61.2952C106.049 61.5162 106.099 61.7522 106.154 61.9982C106.229 62.333 106.311 62.6979 106.399 63.0694C106.447 63.2736 106.499 63.4845 106.552 63.6937C106.572 63.7774 106.594 63.8611 106.614 63.9465L106.647 64.0787C107.002 65.4964 107.387 66.9074 107.624 67.761C107.764 68.2631 107.852 68.5727 107.852 68.5727C107.852 68.5727 110.362 64.4971 112.365 62.1773C112.395 62.1438 112.422 62.112 112.45 62.0819C112.648 61.8526 112.843 61.6434 113.03 61.4593C113.438 61.0509 113.805 60.7596 114.1 60.6525C114.163 60.6294 114.223 60.6008 114.281 60.5672C115.101 60.1002 116.424 58.4047 117.663 56.6288C117.784 56.4614 117.903 56.279 118.023 56.1066C118.298 55.7082 118.564 55.3082 118.816 54.9249C119.009 54.632 119.194 54.3475 119.369 54.0763C120.202 52.7741 120.789 51.8034 120.789 51.8034L121.946 51.7515L122.147 51.7414H122.282L127.533 51.4971C127.533 51.4971 127.76 51.5356 128.133 51.6109C128.153 51.6109 128.173 51.6109 128.195 51.6243C130.058 51.9958 135.234 53.1725 135.551 54.8044C135.937 56.8029 144.286 59.4692 144.286 59.4692C144.396 60.8082 146.441 61.6903 146.441 61.6903C146.441 61.6903 149.537 69.9084 148.709 73.1287C147.891 76.3089 150.839 84.1755 150.917 84.3964L150.352 85.1128L136.375 102.87Z" fill="#E8F5FF"/>
<path opacity="0.1" d="M120.269 44.1761C120.269 44.1761 125.38 42.7199 126.542 45.7176C127.703 48.7153 130.301 60.8216 130.301 60.8216C130.301 60.8216 123.555 62.0987 121.787 60.8216C120.75 60.0636 119.466 59.7265 118.193 59.8776L114.378 62.487L113.251 62.1522C113.251 62.1522 119.354 53.0403 120.681 49.9438C122.007 46.8474 122.455 45.4632 120.269 44.1761Z" fill="black"/>
<path d="M120.047 43.5065C120.047 43.5065 125.162 42.0504 126.328 45.0481C127.495 48.0458 130.088 60.152 130.088 60.152C130.088 60.152 123.343 61.4291 121.574 60.152C120.537 59.3941 119.254 59.0569 117.981 59.208L114.163 61.8174L113.036 61.4827C113.036 61.4827 119.139 52.3707 120.465 49.2743C121.792 46.1778 122.234 44.797 120.047 43.5065Z" fill="#E8F5FF"/>
<path opacity="0.1" d="M85.7398 91.8028C85.7398 91.8028 89.5543 92.7468 90.2743 94.9127C90.9942 97.0785 87.4546 97.1337 87.4546 97.1337C87.4546 97.1337 85.2982 93.3025 85.7398 91.8028Z" fill="black"/>
<path opacity="0.1" d="M99.9482 107.794C99.9482 107.794 90.6059 127.007 92.7624 128.84C94.9188 130.673 99.9482 107.794 99.9482 107.794Z" fill="black"/>
<path opacity="0.1" d="M112.83 93.6356C112.83 93.6356 120.294 112.298 118.801 115.18C117.308 118.062 122.007 115.18 122.007 115.18L112.83 93.6356Z" fill="black"/>
<path d="M123.223 112.07C123.223 112.07 98.0132 113.292 105.367 121.177C112.721 129.062 127.813 121.512 127.813 121.512L123.223 112.07Z" fill="#FFC1C7"/>
<path opacity="0.1" d="M119.576 37.1078C119.578 38.9238 119.223 40.7224 118.531 42.4002C118.299 42.427 118.067 42.4437 117.844 42.4538C117.511 41.719 117.689 40.8704 117.696 40.0619C117.703 39.2535 117.406 38.3028 116.631 38.0852C115.086 37.6484 114.02 40.549 112.496 40.0251C111.33 39.6268 111.635 37.8492 110.963 36.8232C110.432 36.0115 109.367 35.7821 108.539 35.2733C106.777 34.1871 106.83 32.4497 106.012 30.8061C105.156 29.0838 103.346 29.5926 101.774 30.6086C100.581 31.3818 99.5514 32.4179 98.2748 33.0338C97.17 33.5694 95.9285 33.7636 94.7036 33.7921C93.9495 33.8214 93.1952 33.7414 92.4639 33.5544C93.3241 30.3063 95.3312 27.4833 98.1109 25.6118C100.891 23.7404 104.253 22.9483 107.571 23.3832C110.89 23.8182 113.937 25.4505 116.146 27.9757C118.354 30.5009 119.572 33.7467 119.574 37.1078H119.576Z" fill="black"/>
<path d="M101.78 30.165C100.585 30.9383 99.5565 31.9727 98.28 32.592C97.1751 33.1259 95.9336 33.32 94.7087 33.3485C93.2089 33.382 91.5941 33.1175 90.5692 32.0296C89.6277 31.0253 89.4027 29.4804 89.801 28.1632C90.1993 26.846 91.1542 25.753 92.2757 24.9613C93.3972 24.1696 94.6987 23.6223 95.442 22.4892C95.8353 21.89 96.0252 21.1836 96.3519 20.5459C97.3967 18.5056 99.7465 17.4009 102.018 17.2637C104.289 17.1264 106.541 17.806 108.704 18.5424C110.867 19.2789 113.047 20.089 115.33 20.2413C116.346 20.3049 117.403 20.2413 118.346 20.6279C119.614 21.1451 120.446 22.382 121.012 23.6407C121.647 25.0601 122.042 26.6099 121.975 28.1598C121.835 31.4689 119.659 34.716 120.616 37.8861C120.869 38.7313 121.344 39.5983 121.091 40.4436C120.721 41.6771 119.136 41.9583 117.854 42.0169C117.521 41.2821 117.699 40.4318 117.706 39.6251C117.713 38.8183 117.416 37.866 116.643 37.6484C115.096 37.2149 114.03 40.1105 112.51 39.5883C111.352 39.1882 111.652 37.4124 110.978 36.3864C110.447 35.5729 109.38 35.3453 108.554 34.8365C106.792 33.7502 106.846 32.0128 106.027 30.3692C105.164 28.6385 103.353 29.1474 101.78 30.165Z" fill="#99607E"/>
<path d="M77.334 93.8565L76.0625 94.3017C76.0625 94.3017 76.5624 101.854 74.896 104.02C73.2295 106.185 80.3686 111.57 80.3686 111.57C80.3686 111.57 90.1541 111.515 90.4308 110.733C90.7074 109.951 89.9308 96.7404 89.9308 96.7404C89.9308 96.7404 84.6781 94.685 85.1197 91.4095C85.1197 91.4095 83.5166 99.1272 81.1402 98.7941C78.7638 98.461 76.0658 96.4676 77.334 93.8565Z" fill="#E8F5FF"/>
<path opacity="0.1" d="M81.5753 101.131C83.428 101.131 84.9299 99.7511 84.9299 98.0493C84.9299 96.3475 83.428 94.9679 81.5753 94.9679C79.7226 94.9679 78.2207 96.3475 78.2207 98.0493C78.2207 99.7511 79.7226 101.131 81.5753 101.131Z" fill="black"/>
<path d="M85.2431 94.0791C85.2431 94.0791 84.5765 73.6459 78.7738 78.1985C72.9712 82.7511 72.9145 88.1959 74.0194 89.8043C75.1243 91.4128 78.6672 99.4653 78.6672 99.4653C79.2214 99.7879 79.8438 99.974 80.4834 100.008C81.123 100.043 81.7616 99.9245 82.3469 99.6632C82.9323 99.402 83.4476 99.0051 83.8508 98.5052C84.254 98.0053 84.5335 97.4166 84.6665 96.7873L85.2431 94.0791Z" fill="#FFC1C7"/>
<path opacity="0.1" d="M121.44 42.3215C121.413 42.2317 121.361 42.1516 121.29 42.0905C121.004 41.8278 120.387 41.7357 119.457 41.816L119.496 42.2579C120.736 42.1508 120.981 42.3985 121.012 42.4403V42.4822L121.051 42.5374C121.205 42.7461 121.315 42.9849 121.372 43.2385C121.429 43.4922 121.433 43.755 121.384 44.0103C121.112 45.3744 119.444 46.4607 119.427 46.4724L119.387 46.4959L119.362 46.5344C118.642 47.6072 114.571 50.6351 113.506 51.4184L113.413 51.3113C112.936 51.7264 108.747 55.4103 108.52 56.8213C108.374 57.7067 107.38 58.0498 107.021 58.1452C106.641 57.8557 105.407 56.8698 104.766 55.7651C104.164 54.7257 106.586 52.6971 106.799 51.9054L106.466 51.5623C106.431 51.6895 103.321 54.6086 104.186 56.0999C104.879 57.2966 106.146 58.321 106.589 58.6591C106.447 59.9512 105.566 67.5383 104.211 69.336C102.528 71.5704 101.113 82.8315 101.27 86.7631C101.408 90.2563 100.5 96.8542 97.4667 99.6879C96.9416 100.2 96.3081 100.586 95.6136 100.818C94.919 101.05 94.1813 101.121 93.4555 101.027H93.4188H93.3821C93.3388 101.027 88.9393 101.479 85.2431 98.3489C82.2185 95.793 80.5054 91.622 80.1487 85.948H80.0754L80.0454 84.296C80.8655 84.1675 81.6041 83.7246 82.1059 83.0606C82.6077 82.3966 82.8338 81.5631 82.7366 80.7352C82.6394 79.9073 82.2265 79.1494 81.5846 78.6209C80.9427 78.0924 80.1218 77.8343 79.2945 77.9009C78.4671 77.9675 77.6976 78.3536 77.1478 78.978C76.5979 79.6025 76.3104 80.4167 76.3457 81.2496C76.381 82.0825 76.7363 82.8692 77.3371 83.4445C77.9378 84.0197 78.7371 84.3388 79.5671 84.3345H79.6038L79.6338 85.9765L79.4871 85.9865C79.8538 91.8447 81.6535 96.178 84.8198 98.8544C87.2264 100.857 90.3005 101.868 93.4205 101.681C93.6419 101.706 93.8644 101.718 94.0871 101.718C95.5171 101.726 96.8932 101.17 97.9199 100.17C101.115 97.1823 102.086 90.3416 101.934 86.7297C101.768 82.5637 103.253 71.7077 104.742 69.731C106.202 67.7911 107.087 60.2324 107.242 58.7679C107.77 58.6189 108.965 58.1486 109.169 56.9267C109.315 56.043 112.113 53.3198 113.835 51.8117L113.783 51.7515C114.71 51.0719 117.591 48.9295 119.019 47.5537C119.462 47.1269 119.902 46.7001 120.362 46.2933C120.916 45.8013 121.619 45.0196 121.804 44.0957C121.867 43.7907 121.867 43.476 121.805 43.1709C121.742 42.8658 121.618 42.5767 121.44 42.3215V42.3215Z" fill="black"/>
<path d="M106.532 58.5536C106.462 58.5051 104.802 57.3117 103.971 55.8756C103.108 54.3843 106.217 51.4669 106.251 51.3397L106.584 51.6828C106.372 52.4729 103.951 54.5031 104.553 55.5409C105.311 56.8514 106.907 57.9979 106.924 58.0096L106.532 58.5536Z" fill="#353146"/>
<path d="M113.29 51.7431L113.03 51.3832C113.083 51.3448 118.317 47.542 119.142 46.3118L119.169 46.2749L119.207 46.2498C119.224 46.2381 120.892 45.1535 121.164 43.7877C121.214 43.5327 121.21 43.27 121.153 43.0166C121.095 42.7631 120.986 42.5246 120.831 42.3165L120.792 42.2596V42.2194C120.759 42.1759 120.514 41.9299 119.274 42.037L119.236 41.5934C120.167 41.5131 120.782 41.6052 121.069 41.8679C121.14 41.9296 121.193 42.0102 121.22 42.1006C121.401 42.3551 121.527 42.6439 121.592 42.9494C121.657 43.2548 121.658 43.5703 121.597 43.8764C121.412 44.802 120.711 45.5837 120.156 46.0741C119.697 46.4808 119.256 46.911 118.814 47.3344C117.139 48.9463 113.473 51.6109 113.29 51.7431Z" fill="#E8F5FF"/>
<path d="M79.8305 83.7133L79.3889 83.7214L79.4381 86.4174L79.8797 86.4093L79.8305 83.7133Z" fill="#E8F5FF"/>
<path d="M79.3521 84.1219C81.133 84.1219 82.5767 82.6719 82.5767 80.8832C82.5767 79.0945 81.133 77.6445 79.3521 77.6445C77.5712 77.6445 76.1274 79.0945 76.1274 80.8832C76.1274 82.6719 77.5712 84.1219 79.3521 84.1219Z" fill="#469BB1"/>
<path d="M79.3521 83.573C80.8311 83.573 82.0301 82.3687 82.0301 80.8832C82.0301 79.3977 80.8311 78.1935 79.3521 78.1935C77.8731 78.1935 76.6741 79.3977 76.6741 80.8832C76.6741 82.3687 77.8731 83.573 79.3521 83.573Z" fill="#E8F5FF"/>
<path d="M93.877 101.502C93.6544 101.503 93.4318 101.491 93.2104 101.467C90.0907 101.652 87.0173 100.641 84.6098 98.6401C81.4435 95.9621 79.6471 91.6338 79.2771 85.7706L79.9437 85.7288C80.3003 91.4028 82.0134 95.5755 85.0397 98.1296C88.736 101.251 93.1338 100.808 93.1771 100.808H93.2138H93.2504C93.9765 100.902 94.7143 100.83 95.4091 100.598C96.1038 100.366 96.7376 99.9803 97.2633 99.4686C100.295 96.635 101.203 90.037 101.065 86.5439C100.898 82.6089 102.313 71.3478 103.997 69.115C105.472 67.1584 106.387 58.3394 106.397 58.2507L106.422 57.9996L106.669 57.9561C106.684 57.9561 108.124 57.6816 108.304 56.6003C108.537 55.191 112.72 51.5071 113.195 51.0903L113.63 51.5925C111.902 53.0988 109.104 55.8237 108.964 56.7091C108.76 57.9343 107.565 58.403 107.039 58.5503C106.872 60.0165 105.994 67.5735 104.539 69.5134C103.049 71.4901 101.564 82.3461 101.731 86.5121C101.874 90.124 100.913 96.9664 97.7182 99.9523C96.6896 100.955 95.3102 101.511 93.877 101.502Z" fill="#353146"/>
<g opacity="0.1">
<path opacity="0.1" d="M120.995 33.151C121.269 32.1367 121.599 31.1157 121.829 30.088C121.554 31.1207 121.222 32.1367 120.995 33.151Z" fill="black"/>
<path opacity="0.1" d="M118.207 41.1214C117.874 40.3866 118.052 39.5364 118.059 38.7296C118.066 37.9229 117.769 36.9789 116.996 36.7529C115.449 36.3194 114.383 39.2167 112.863 38.6928C111.697 38.2928 112.005 36.5169 111.332 35.4909C110.8 34.6775 109.735 34.4498 108.909 33.941C107.145 32.8547 107.199 31.1174 106.382 29.4737C105.524 27.7498 103.716 28.2586 102.143 29.2762C100.948 30.0495 99.9196 31.0856 98.6431 31.7032C97.5382 32.2371 96.2967 32.4313 95.0719 32.4597C93.5804 32.4949 91.9572 32.2287 90.9324 31.1408C90.1425 30.3039 89.8575 29.0771 90.0208 27.9272C89.9925 28.0059 89.9675 28.0845 89.9425 28.1632C89.5425 29.4804 89.7758 31.0287 90.7107 32.0296C91.7356 33.1175 93.3587 33.382 94.8502 33.3485C96.0767 33.32 97.3166 33.1259 98.4231 32.5919C99.703 31.9727 100.731 30.9383 101.923 30.165C103.496 29.1474 105.306 28.6385 106.162 30.3625C106.979 32.0061 106.927 33.7435 108.689 34.8298C109.522 35.3319 110.58 35.5662 111.113 36.3797C111.78 37.409 111.485 39.1815 112.645 39.5816C114.163 40.1038 115.229 37.2082 116.776 37.6417C117.549 37.8593 117.847 38.8133 117.839 39.6184C117.831 40.4235 117.658 41.2754 117.987 42.0102C119.269 41.9516 120.854 41.6754 121.225 40.4369C121.277 40.2591 121.3 40.0745 121.295 39.8895C120.754 40.8285 119.361 41.0695 118.207 41.1214Z" fill="black"/>
</g>
<path opacity="0.1" d="M148.326 82.3628L150.26 84.4182C150.26 84.4182 151.809 95.7445 152.582 96.804C153.355 97.8635 155.181 102.078 153.467 105.243C153.467 105.243 152.913 106.965 153.245 107.687C153.577 108.408 150.759 112.018 150.759 112.018C150.759 112.018 147.054 115.349 146.279 115.85C145.504 116.35 141.415 120.347 140.033 120.402C138.652 120.458 138.2 122.18 138.2 122.18L130.404 122.458C130.404 122.458 126.098 122.232 125.162 122.843C125.162 122.843 125.662 116.235 120.851 111.903L126.987 109.682C126.987 109.682 129.31 108.678 130.028 107.628C130.48 106.985 131.121 106.5 131.861 106.241C131.861 106.241 133.574 105.019 133.629 104.353C133.684 103.687 135.724 102.87 135.724 102.87L134.569 92.9694L135.177 76.5331C135.177 76.5331 137.112 62.7615 141.203 63.5398C145.294 64.3181 148.326 82.3628 148.326 82.3628Z" fill="black"/>
<path d="M148.992 82.3628L150.927 84.4182C150.927 84.4182 152.475 95.7445 153.248 96.804C154.022 97.8635 155.848 102.078 154.133 105.243C154.133 105.243 153.582 106.965 153.913 107.687C154.245 108.408 151.425 112.018 151.425 112.018C151.425 112.018 147.721 115.349 146.946 115.85C146.171 116.35 142.081 120.347 140.7 120.402C139.318 120.458 138.867 122.18 138.867 122.18L131.071 122.458C131.071 122.458 126.761 122.232 125.828 122.843C125.828 122.843 126.328 116.235 121.517 111.903L127.653 109.682C127.653 109.682 129.976 108.678 130.694 107.628C131.146 106.985 131.787 106.5 132.527 106.241C132.527 106.241 134.241 105.019 134.296 104.353C134.351 103.687 136.39 102.87 136.39 102.87L135.235 92.9694L135.844 76.5331C135.844 76.5331 137.778 62.7615 141.87 63.5398C145.961 64.3181 148.992 82.3628 148.992 82.3628Z" fill="#E8F5FF"/>
<path opacity="0.1" d="M141.8 98.9665C141.8 98.9665 147.494 97.4601 148.987 99.3012C150.48 101.142 141.8 98.9665 141.8 98.9665Z" fill="black"/>
<path opacity="0.1" d="M140.473 101.492C142.408 102.853 148.379 102.908 148.379 102.908L140.473 101.492Z" fill="black"/>
<path opacity="0.1" d="M143.403 108.294C143.569 108.35 147.507 112.571 149.16 111.294C150.814 110.017 143.403 108.294 143.403 108.294Z" fill="black"/>
<path opacity="0.1" d="M90.3691 72.8676C90.3691 72.8676 91.5257 80.8648 90.9557 84.1219C90.3858 87.3791 92.4656 91.4145 92.4656 91.4145L90.3691 72.8676Z" fill="black"/>
<path d="M64.7655 76.1197C63.4324 77.1691 62.4592 79.653 61.7542 82.3829C60.5244 87.1447 60.1228 92.6665 60.1228 92.6665C60.1228 92.6665 49.5074 90.2228 50.2806 89.1131C50.7672 88.4151 50.114 83.1562 49.569 79.3433C49.2441 77.0905 48.9541 75.3414 48.9541 75.3414C48.9541 75.3414 68.4151 73.2308 64.7655 76.1197Z" fill="#FFCCD0"/>
<path opacity="0.1" d="M64.7655 75.8971C63.4324 76.9482 62.4592 79.4304 61.7542 82.1603C59.6392 82.8053 57.3899 82.8635 55.2446 82.3287C53.0994 81.7939 51.1382 80.686 49.569 79.1224C49.2441 76.8679 48.9541 75.1188 48.9541 75.1188C48.9541 75.1188 68.4151 73.0099 64.7655 75.8971Z" fill="black"/>
<path d="M70.4716 69.9151C70.4727 72.8263 69.4484 75.644 67.5799 77.8696C65.7114 80.0952 63.1192 81.5851 60.2622 82.0757C57.4051 82.5662 54.4673 82.0258 51.9688 80.5501C49.4703 79.0743 47.5722 76.7584 46.6103 74.0122C45.6485 71.2659 45.6849 68.2665 46.7132 65.5446C47.7415 62.8228 49.6954 60.5541 52.229 59.14C54.7626 57.726 57.7126 57.2578 60.5569 57.8182C63.4012 58.3787 65.9564 59.9317 67.7703 62.2024C69.5182 64.3897 70.4711 67.1104 70.4716 69.9151V69.9151Z" fill="#FFCCD0"/>
<path opacity="0.1" d="M80.1504 147.002H76.6509L76.3559 140.794L76.0476 134.368C76.0476 134.368 76.8425 134.249 78.109 134.072L78.6206 134.003H78.6623C78.9389 135.307 79.2122 136.646 79.4755 137.983C79.9138 140.358 80.1419 142.766 80.1571 145.181C80.1571 145.348 80.1571 145.515 80.1571 145.673C80.1671 146.12 80.1571 146.567 80.1504 147.002Z" fill="black"/>
<path d="M79.4789 147.002H35.5908C35.7808 146.568 35.9074 146.305 35.9074 146.305C35.9074 146.305 39.4187 130.877 41.2035 124.349C41.204 124.343 41.204 124.338 41.2035 124.332C41.4265 123.446 41.6957 122.571 42.0101 121.713V121.713C42.0304 121.655 42.0566 121.598 42.0884 121.545C42.9716 120.103 44.0781 118.548 42.53 116.327C40.9818 114.106 41.5301 104.333 41.5301 104.333C41.5301 104.333 43.4099 96.0023 45.3996 91.5601C45.7016 90.872 46.1302 90.2474 46.6628 89.719C46.836 89.5488 47.0209 89.3911 47.2161 89.247V89.247C47.3645 89.135 47.5192 89.0316 47.6794 88.9373L47.711 88.9173C48.5469 88.4413 49.4751 88.1518 50.4324 88.0687C51.1124 87.9973 51.7988 88.0164 52.4738 88.1256C55.7001 88.6009 58.2831 89.3959 60.3362 90.3014C65.9005 92.7568 67.5853 96.0475 67.6187 96.1161L67.632 96.1445C67.8553 96.6684 71.1216 104.328 72.2981 107.901C72.6031 108.832 72.7697 109.486 72.703 109.665C72.3697 110.552 75.2461 121.658 75.2461 121.658C75.2461 121.658 76.5792 127.014 77.9124 133.292C77.9707 133.553 78.0257 133.814 78.0791 134.079C78.3174 135.218 78.554 136.38 78.7823 137.54C79.2247 139.93 79.4528 142.356 79.4639 144.787C79.4883 145.545 79.4933 146.283 79.4789 147.002Z" fill="#FF748E"/>
<path opacity="0.1" d="M50.1706 84.2492C50.1706 84.2492 47.1426 83.0775 47.1793 84.8551C47.2159 86.6326 47.9175 87.4829 47.6959 87.7423C47.4743 88.0017 47.8059 89.5566 47.8059 89.5566C47.8059 89.5566 51.8971 89.5566 53.7768 90.4069C55.6566 91.2572 62.5858 92.9611 63.4707 93.4799C64.3556 93.9988 67.6368 96.3253 67.6368 96.3253L67.9318 91.92C67.9318 91.92 64.5405 89.1064 58.9762 87.6636C53.4119 86.2208 50.1706 84.2492 50.1706 84.2492Z" fill="black"/>
<path d="M50.1706 84.0265C50.1706 84.0265 47.1426 82.8549 47.1793 84.6324C47.2159 86.41 47.9175 87.2602 47.6959 87.5197C47.4743 87.7791 47.8059 89.334 47.8059 89.334C47.8059 89.334 51.8971 89.334 53.7768 90.186C55.6566 91.0379 62.5858 92.7401 63.4707 93.2573C64.3556 93.7745 67.6368 96.1027 67.6368 96.1027L67.9351 91.7108C67.9351 91.7108 64.5439 88.8972 58.9795 87.4544C53.4152 86.0116 50.1706 84.0265 50.1706 84.0265Z" fill="#FF748E"/>
<path opacity="0.1" d="M59.3113 94.6281C59.3113 94.6281 65.0973 100.92 64.8023 102.662C64.5073 104.405 59.3113 94.6281 59.3113 94.6281Z" fill="black"/>
<path opacity="0.1" d="M49.9124 117.356C49.9124 117.356 45.6713 121.281 44.4214 121.504C43.1716 121.726 45.3796 122.466 46.8161 121.875C48.2526 121.284 51.3156 119.729 51.3156 119.729L49.9124 117.356Z" fill="black"/>
<path d="M81.202 147.002H71.3115C69.9284 145.797 68.6202 144.68 67.7869 144.009C66.4538 142.934 65.4922 141.353 64.879 140.081C64.7406 139.791 64.6207 139.52 64.519 139.274C64.337 138.85 64.1768 138.417 64.0391 137.977L71.3632 133.608C71.768 133.954 72.1483 134.328 72.5014 134.726L72.5897 134.828C72.9963 135.31 73.3546 135.858 73.3863 136.306C73.4229 136.829 74.8694 138.849 76.3476 140.789C77.8474 142.762 79.3839 144.648 79.4855 144.776C79.4855 144.776 79.7388 145.122 80.1521 145.654C80.4438 146.039 80.8037 146.501 81.202 147.002Z" fill="#FFCCD0"/>
<path opacity="0.1" d="M67.7702 62.2024C67.4186 62.9991 67.1036 63.826 67.0569 64.713C66.9253 67.2739 67.1386 72.9998 64.3156 74.2853C62.9174 74.9179 61.4209 73.5287 59.8878 73.4952C58.7846 73.4718 57.7731 74.1748 57.0998 75.0535C56.4265 75.9322 56.0083 76.975 55.52 77.9692C55.0755 78.8716 54.5636 79.7389 53.9885 80.5635C53.8166 80.8159 53.6273 81.0558 53.4219 81.2816C51.7006 80.552 50.1677 79.4375 48.9402 78.0228C47.7127 76.6082 46.8228 74.9308 46.3385 73.1184C45.8542 71.3061 45.7882 69.4066 46.1455 67.5647C46.5028 65.7228 47.274 63.9872 48.4004 62.49C49.5267 60.9928 50.9784 59.7736 52.6449 58.9253C54.3114 58.077 56.1488 57.622 58.0169 57.5949C59.885 57.5678 61.7347 57.9694 63.4249 58.769C65.1151 59.5686 66.6013 60.7452 67.7702 62.2091V62.2024Z" fill="black"/>
<path d="M66.8353 64.2611C66.702 66.822 66.917 72.5479 64.0923 73.8317C62.6942 74.4644 61.1977 73.0768 59.6645 73.0434C58.5613 73.0182 57.5514 73.7229 56.8765 74.5999C56.2016 75.477 55.7867 76.5214 55.2967 77.5173C54.8521 78.4196 54.3401 79.2869 53.7652 80.1116C53.4219 80.6004 53.042 81.0908 52.5137 81.3653C51.5938 81.8473 50.479 81.5762 49.4924 81.2665C48.2126 80.8615 46.9516 80.4051 45.7095 79.8974C45.738 79.709 45.7525 79.5188 45.7529 79.3283C45.7162 79.3986 45.6762 79.4639 45.6362 79.5342L45.5579 79.6714C45.4162 79.9225 45.2779 80.1736 45.1513 80.4313C45.1029 80.5301 45.0563 80.6322 45.0146 80.7343C44.847 81.1142 44.7418 81.5189 44.703 81.9327C44.618 83.0491 45.1663 84.1086 45.6529 85.1128C47.5243 88.9976 48.6808 93.5402 47.2727 97.6158C46.6627 99.3883 45.6062 100.963 44.8346 102.676C43.4859 105.708 43.0888 109.082 43.6964 112.347C44.0814 114.375 44.853 116.384 44.663 118.441C44.3297 121.981 41.2901 124.615 38.2454 126.426C36.6006 127.4 34.5875 128.267 32.8411 127.497C33.9543 126.192 34.2409 124.386 34.4809 122.682C35.1375 118.035 35.7957 113.385 36.4556 108.733C36.7189 106.882 36.9817 105.031 37.2439 103.179C37.7338 99.7013 38.2304 96.1847 37.9238 92.6849C37.7005 90.1056 37.0706 87.3674 38.1838 85.0325C38.772 83.7956 39.8202 82.7712 40.1469 81.4389C40.4152 80.356 40.1652 79.2045 40.3418 78.1015C40.4385 77.5996 40.6022 77.1132 40.8284 76.6553C41.1165 76.034 41.4926 75.4579 41.945 74.9447C41.4984 74.8142 41.0817 74.6351 40.8284 74.2602C41.545 73.7915 41.6533 72.7354 41.3284 71.942C41.0034 71.1487 40.3535 70.5444 39.7686 69.9184C39.1836 69.2925 38.6204 68.5627 38.547 67.7091C38.4054 66.0839 40.0219 64.8252 40.3068 63.2217C40.5951 61.5898 39.4553 60.0031 39.5469 58.3511C39.6536 56.3543 41.48 54.9032 43.2832 54.0613C46.0041 52.7962 49.0099 52.2764 51.9954 52.5549C54.4252 52.7859 56.7765 53.5407 59.1996 53.8336C60.6611 54.001 62.1426 54.0177 63.594 54.2755C65.0455 54.5333 66.5004 55.0772 67.5219 56.1468C70.2149 58.967 66.9886 61.2886 66.8353 64.2611Z" fill="#FFE0D0"/>
<path opacity="0.1" d="M64.5823 140.082C63.7324 139.712 62.186 139.933 59.5313 139.122C56.8766 138.31 56.365 134.641 56.365 134.641V134.629C56.3333 134.546 56.0867 134 54.4169 132.088C52.5721 129.978 48.5843 119.318 48.5843 119.318C48.5843 119.318 45.048 115.503 45.1597 114.097C45.2713 112.691 44.5314 108.95 44.6047 104.766C44.6781 100.582 52.5654 97.8066 52.5654 97.8066C67.752 95.1035 64.1757 112.688 63.7708 114.02C63.3658 115.353 65.4672 118.951 65.4672 118.951C65.1706 120.518 66.6838 122.943 66.6838 122.943C66.6838 122.943 67.0504 125.089 67.1254 125.904C67.1295 125.942 67.1379 125.979 67.1504 126.014C67.3937 126.783 69.3768 127.479 70.1833 127.902C71.0316 128.348 73.7596 132.234 73.7596 132.234C74.3478 135.088 65.4289 140.457 64.5823 140.082Z" fill="black"/>
<path d="M65.0238 139.413C64.1756 139.041 62.6274 139.264 59.9744 138.45C57.3214 137.637 56.8081 133.971 56.8081 133.971V133.96C56.7781 133.874 56.5298 133.33 54.86 131.419C53.0152 129.308 49.0274 118.647 49.0274 118.647C49.0274 118.647 45.4911 114.834 45.6011 113.428C45.7111 112.022 44.9745 108.281 45.0479 104.1C45.1212 99.9189 53.0036 97.1454 53.0036 97.1454C68.1901 94.4423 64.6139 112.027 64.2089 113.359C63.804 114.691 65.9054 118.29 65.9054 118.29C65.6087 119.857 67.1219 122.282 67.1219 122.282C67.1219 122.282 67.4885 124.428 67.5652 125.243C67.568 125.281 67.5758 125.318 67.5885 125.353C67.8318 126.122 69.8149 126.818 70.6231 127.241C71.4697 127.685 74.1994 131.573 74.1994 131.573C74.791 134.422 65.872 139.791 65.0238 139.413Z" fill="#FF748E"/>
<path opacity="0.1" d="M53.3037 106.326C53.3037 106.326 59.9379 113.356 61.6694 113.356C63.4008 113.356 53.3037 106.326 53.3037 106.326Z" fill="black"/>
<path d="M65.0238 139.413C64.1756 139.041 62.6274 139.264 59.9744 138.45C57.3214 137.637 56.8081 133.971 56.8081 133.971V133.96C58.5662 132.788 63.019 129.479 64.7738 128.269C66.0087 127.42 67.0169 126.173 67.6068 125.347C67.8501 126.115 69.8332 126.811 70.6415 127.235C71.488 127.678 74.2177 131.566 74.2177 131.566C74.791 134.422 65.872 139.791 65.0238 139.413Z" fill="#FF748E"/>
<g opacity="0.1">
<path opacity="0.1" d="M40.8384 74.2786C40.8467 74.292 40.8584 74.3037 40.8684 74.3171C40.9184 74.2535 40.97 74.1899 41.0234 74.1296C40.9666 74.1851 40.9046 74.235 40.8384 74.2786V74.2786Z" fill="black"/>
<path opacity="0.1" d="M44.7046 81.9511C44.7746 81.0221 45.2696 80.2037 45.7329 79.3869C45.4296 79.2697 45.1263 79.1509 44.8263 79.027C44.8549 78.8392 44.8694 78.6496 44.8696 78.4596C44.4013 79.2965 43.8914 80.12 43.8198 81.0623C43.7348 82.1804 44.283 83.2382 44.7696 84.2424C46.6427 88.1256 47.7976 92.6681 46.3894 96.7454C45.7778 98.5163 44.723 100.093 43.9514 101.805C42.6031 104.837 42.2067 108.21 42.8149 111.474C43.1965 113.505 43.9697 115.512 43.7798 117.569C43.4465 121.109 40.4085 123.743 37.3622 125.552C36.1173 126.292 34.6625 126.97 33.271 126.922C33.1422 127.13 32.9985 127.328 32.8411 127.516C34.5892 128.291 36.6006 127.419 38.2454 126.441C41.2934 124.634 44.338 122.006 44.6713 118.459C44.8613 116.402 44.0881 114.395 43.7048 112.365C43.0964 109.101 43.4916 105.728 44.838 102.696C45.6045 100.985 46.6711 99.4067 47.276 97.6359C48.6842 93.5586 47.5276 89.016 45.6562 85.1329C45.1713 84.1219 44.6197 83.0691 44.7046 81.9511Z" fill="black"/>
<path opacity="0.1" d="M67.5185 56.1668C67.3546 55.9979 67.1786 55.8413 66.9919 55.6982C69.0117 58.3293 66.0954 60.5655 65.9504 63.3975C65.8204 65.9583 66.0337 71.6859 63.209 72.968C61.8125 73.6024 60.3144 72.2132 58.7829 72.1797C57.678 72.1562 56.6682 72.8609 55.9932 73.7379C55.3183 74.615 54.9034 75.6594 54.4151 76.6536C53.9697 77.5559 53.4572 78.4231 52.8819 79.248C52.5487 79.7384 52.1587 80.2271 51.6288 80.5033C50.7122 80.9836 49.5973 80.7142 48.6091 80.4029C47.6481 80.0993 46.696 79.7646 45.7528 79.3986C45.7509 79.5729 45.7364 79.7469 45.7095 79.9191C46.9527 80.428 48.2142 80.8843 49.494 81.2883C50.4806 81.5996 51.5954 81.8691 52.5137 81.3887C53.0419 81.1125 53.4252 80.6221 53.7668 80.1317C54.3425 79.308 54.8545 78.4413 55.2983 77.539C55.7883 76.5448 56.2015 75.4987 56.8781 74.6217C57.5547 73.7446 58.5629 73.0417 59.6661 73.0651C61.1993 73.0986 62.6974 74.4878 64.0939 73.8534C66.9186 72.5713 66.7036 66.8437 66.8353 64.2829C66.9886 61.3053 70.2149 58.9854 67.5185 56.1668Z" fill="black"/>
</g>
<path opacity="0.1" d="M45.5595 79.6731C45.4179 79.9242 45.2795 80.1752 45.1529 80.433C45.1046 80.5317 45.0579 80.6338 45.0162 80.7359C44.143 79.8522 42.0166 77.7516 40.8301 77.1005C41.1186 76.4795 41.4946 75.9034 41.9466 75.39C41.9466 75.39 44.7746 76.8913 45.5595 79.6731Z" fill="black"/>
<path d="M45.6378 79.5359C44.9829 76.5582 41.9466 74.9464 41.9466 74.9464C41.4942 75.4595 41.1182 76.0357 40.8301 76.657C42.0816 77.3449 44.388 79.6513 45.1529 80.433L45.6378 79.5359Z" fill="#FF748E"/>
</g>
<defs>
<linearGradient id="paint0_linear_191_625" x1="121.657" y1="31.9693" x2="121.657" y2="28.8929" gradientUnits="userSpaceOnUse">
<stop stop-color="#808080" stop-opacity="0.25"/>
<stop offset="0.54" stop-color="#808080" stop-opacity="0.12"/>
<stop offset="1" stop-color="#808080" stop-opacity="0.1"/>
</linearGradient>
<linearGradient id="paint1_linear_191_625" x1="93.7937" y1="147.002" x2="93.7937" y2="16" gradientUnits="userSpaceOnUse">
<stop stop-color="#808080" stop-opacity="0.25"/>
<stop offset="0.54" stop-color="#808080" stop-opacity="0.12"/>
<stop offset="1" stop-color="#808080" stop-opacity="0.1"/>
</linearGradient>
<clipPath id="clip0_191_625">
<rect width="181" height="131" fill="white" transform="translate(0 16)"/>
</clipPath>
</defs>
</svg>
