<svg width="181" height="131" viewBox="0 0 181 131" fill="none" xmlns="http://www.w3.org/2000/svg">
<g clip-path="url(#clip0_170_648)">
<path opacity="0.1" d="M105.164 23.1028C93.5606 22.6978 82.5003 18.9352 71.9549 14.8194C61.4095 10.7036 50.9574 6.14265 39.6254 3.96174C32.3396 2.55746 24.0073 2.35995 18.138 6.28324C12.4887 10.0576 10.6639 16.5735 9.68235 22.6191C8.94411 27.1684 8.51582 31.9553 10.5339 36.2151C11.9387 39.1709 14.4318 41.6564 16.1566 44.4884C22.1559 54.3419 17.9147 66.4933 11.4121 76.1225C8.36251 80.6416 4.8246 84.9415 2.47155 89.7468C0.118495 94.5522 -0.971374 100.057 1.08838 104.958C3.1298 109.812 7.99255 113.464 13.2619 116.03C23.964 121.237 36.5741 122.727 48.871 123.58C76.0911 125.45 103.458 124.64 130.75 123.83C140.85 123.528 150.995 123.225 160.931 121.654C166.449 120.782 172.146 119.399 176.152 116.062C181.237 111.824 182.498 104.65 179.09 99.3358C173.374 90.4247 157.571 88.2103 153.575 78.6465C151.377 73.3825 153.635 67.5177 156.831 62.6353C163.686 52.1626 175.178 42.9737 175.782 31.0013C176.199 22.7781 170.675 14.5449 162.132 10.6534C153.18 6.57113 140.765 7.08665 134.161 13.8336C127.36 20.7847 115.408 23.4593 105.164 23.1028Z" fill="#469BB1"/>
<path d="M40.3702 121.354C40.3702 121.354 31.2047 114.395 29.4732 105.542C28.7711 101.824 26.8877 98.435 24.1055 95.8829C22.7746 94.6824 21.3371 93.6067 19.811 92.6693" stroke="#535461" stroke-width="2" stroke-miterlimit="10"/>
<path d="M18.6894 87.0923C19.4926 88.1835 19.8559 92.8081 19.8559 92.8081C19.8559 92.8081 15.5615 91.1093 14.7565 90.0197C14.37 89.4958 14.2065 88.8393 14.302 88.1944C14.3975 87.5495 14.7441 86.9691 15.2657 86.5809C15.7872 86.1927 16.4409 86.0285 17.083 86.1244C17.7251 86.2203 18.3029 86.5684 18.6894 87.0923Z" fill="#469BB1"/>
<path d="M26.3919 90.721C26.4752 92.0751 24.2805 96.1557 24.2805 96.1557C24.2805 96.1557 21.5925 92.3831 21.5075 91.029C21.4752 90.3834 21.6974 89.7511 22.126 89.269C22.5547 88.7869 23.1552 88.4938 23.7974 88.4533C24.4397 88.4128 25.072 88.6281 25.5573 89.0526C26.0426 89.477 26.3419 90.0765 26.3902 90.721H26.3919Z" fill="#469BB1"/>
<path d="M33.8577 101.152C33.2511 102.364 29.3033 104.774 29.3033 104.774C29.3033 104.774 28.8816 100.154 29.4882 98.9425C29.7868 98.3726 30.2963 97.9433 30.9069 97.7469C31.5175 97.5504 32.1805 97.6026 32.7532 97.8922C33.3258 98.1818 33.7625 98.6856 33.969 99.2952C34.1756 99.9048 34.1356 100.572 33.8577 101.152Z" fill="#469BB1"/>
<path d="M37.739 110.317C37.344 111.614 33.8594 114.659 33.8594 114.659C33.8594 114.659 32.6646 110.178 33.0595 108.88C33.2494 108.256 33.6779 107.734 34.2509 107.428C34.824 107.123 35.4945 107.058 36.115 107.248C36.7355 107.439 37.2553 107.87 37.5598 108.445C37.8644 109.021 37.9288 109.694 37.739 110.317Z" fill="#469BB1"/>
<path d="M20.3077 99.4362C21.6409 99.617 25.8554 97.7056 25.8554 97.7056C25.8554 97.7056 22.2992 94.7464 20.9593 94.5656C20.3162 94.4788 19.6652 94.6522 19.1494 95.0475C18.6335 95.4428 18.2952 96.0278 18.2088 96.6737C18.1224 97.3196 18.295 97.9735 18.6886 98.4916C19.0822 99.0096 19.6647 99.3494 20.3077 99.4362Z" fill="#469BB1"/>
<path d="M24.9821 110.1C26.3153 109.87 29.7599 106.782 29.7599 106.782C29.7599 106.782 25.4837 105.028 24.1522 105.258C23.8334 105.31 23.5281 105.425 23.254 105.597C22.9798 105.769 22.7422 105.993 22.5549 106.257C22.3676 106.522 22.2342 106.821 22.1625 107.137C22.0909 107.454 22.0823 107.781 22.1373 108.101C22.1923 108.42 22.3098 108.726 22.4831 109C22.6563 109.274 22.8818 109.511 23.1466 109.696C23.4114 109.882 23.7103 110.014 24.0259 110.083C24.3415 110.152 24.6676 110.158 24.9854 110.1H24.9821Z" fill="#469BB1"/>
<path d="M30.9397 119.839C32.2912 119.839 36.2074 117.381 36.2074 117.381C36.2074 117.381 32.2896 114.925 30.9381 114.925C30.2893 114.925 29.667 115.184 29.2082 115.645C28.7494 116.106 28.4917 116.731 28.4917 117.382C28.4917 118.034 28.7494 118.659 29.2082 119.12C29.667 119.581 30.2893 119.839 30.9381 119.839H30.9397Z" fill="#469BB1"/>
<path d="M129.41 61.1608C129.41 61.1608 135.059 51.1099 143.575 48.2143C147.15 47.0216 150.245 44.6965 152.394 41.5879C153.401 40.1017 154.271 38.5257 154.992 36.8796" stroke="#535461" stroke-width="2" stroke-miterlimit="10"/>
<path d="M160.337 35.0384C159.367 35.9824 154.853 36.9599 154.853 36.9599C154.853 36.9599 155.961 32.4575 156.931 31.5118C157.399 31.0716 158.021 30.8336 158.662 30.8491C159.303 30.8646 159.912 31.1323 160.359 31.5946C160.806 32.0569 161.053 32.6769 161.049 33.321C161.045 33.9651 160.79 34.5818 160.337 35.0384Z" fill="#469BB1"/>
<path d="M157.784 43.1779C156.451 43.4423 152.14 41.7987 152.14 41.7987C152.14 41.7987 155.506 38.6186 156.831 38.3591C157.149 38.2882 157.478 38.2819 157.799 38.3404C158.12 38.399 158.425 38.5213 158.698 38.7001C158.971 38.879 159.206 39.1107 159.388 39.3819C159.571 39.653 159.697 39.958 159.761 40.279C159.824 40.6 159.823 40.9305 159.758 41.2512C159.692 41.5718 159.564 41.876 159.38 42.146C159.196 42.4161 158.96 42.6465 158.686 42.8236C158.412 43.0008 158.105 43.1213 157.784 43.1779Z" fill="#469BB1"/>
<path d="M148.492 51.9953C147.216 51.5517 144.314 47.9431 144.314 47.9431C144.314 47.9431 148.814 46.9087 150.094 47.3522C150.401 47.4547 150.685 47.6175 150.93 47.8311C151.174 48.0448 151.374 48.3051 151.517 48.5968C151.661 48.8886 151.745 49.2061 151.765 49.5309C151.785 49.8556 151.741 50.1812 151.635 50.4887C151.529 50.7961 151.363 51.0794 151.147 51.322C150.931 51.5646 150.67 51.7616 150.377 51.9018C150.085 52.042 149.768 52.1224 149.444 52.1384C149.121 52.1545 148.797 52.1058 148.492 51.9953Z" fill="#469BB1"/>
<path d="M139.953 57.0768C138.62 56.8559 135.161 53.7845 135.161 53.7845C135.161 53.7845 139.425 52.0003 140.757 52.2212C141.398 52.3271 141.97 52.6843 142.349 53.2143C142.727 53.7443 142.881 54.4037 142.776 55.0474C142.67 55.691 142.314 56.2663 141.787 56.6465C141.259 57.0268 140.603 57.181 139.962 57.0751L139.953 57.0768Z" fill="#469BB1"/>
<path d="M148.375 38.2788C148.374 39.6362 150.825 43.5746 150.825 43.5746C150.825 43.5746 153.273 39.6412 153.273 38.2855C153.282 37.9575 153.225 37.6312 153.106 37.3257C152.987 37.0202 152.808 36.7418 152.58 36.5068C152.352 36.2718 152.08 36.085 151.779 35.9575C151.478 35.83 151.154 35.7643 150.828 35.7643C150.501 35.7643 150.178 35.83 149.877 35.9575C149.576 36.085 149.303 36.2718 149.075 36.5068C148.847 36.7418 148.669 37.0202 148.55 37.3257C148.431 37.6312 148.374 37.9575 148.382 38.2855L148.375 38.2788Z" fill="#469BB1"/>
<path d="M138.472 44.3479C138.875 45.6434 142.381 48.6645 142.381 48.6645C142.381 48.6645 143.548 44.1755 143.141 42.88C142.93 42.2798 142.496 41.7852 141.929 41.5003C141.362 41.2154 140.708 41.1626 140.103 41.3528C139.498 41.543 138.99 41.9616 138.687 42.5202C138.383 43.0789 138.307 43.7341 138.475 44.3479H138.472Z" fill="#469BB1"/>
<path d="M129.661 51.5735C129.841 52.9125 132.787 56.4893 132.787 56.4893C132.787 56.4893 134.689 52.2631 134.509 50.9191C134.473 50.5934 134.373 50.2782 134.214 49.9921C134.055 49.7059 133.841 49.4545 133.584 49.2526C133.327 49.0508 133.033 48.9026 132.718 48.8168C132.403 48.7309 132.075 48.7092 131.751 48.7529C131.428 48.7965 131.117 48.9046 130.836 49.0709C130.555 49.2372 130.31 49.4582 130.115 49.721C129.92 49.9838 129.78 50.2831 129.702 50.6013C129.624 50.9194 129.61 51.25 129.661 51.5735Z" fill="#469BB1"/>
<path opacity="0.25" d="M160.337 35.0384C159.367 35.9824 154.853 36.9599 154.853 36.9599C154.853 36.9599 155.961 32.4575 156.931 31.5118C157.399 31.0716 158.021 30.8336 158.662 30.8491C159.303 30.8646 159.912 31.1323 160.359 31.5946C160.806 32.0569 161.053 32.6769 161.049 33.321C161.045 33.9651 160.79 34.5818 160.337 35.0384Z" fill="black"/>
<path opacity="0.25" d="M157.784 43.1779C156.451 43.4423 152.14 41.7987 152.14 41.7987C152.14 41.7987 155.506 38.6186 156.831 38.3591C157.149 38.2882 157.478 38.2819 157.799 38.3404C158.12 38.399 158.425 38.5213 158.698 38.7001C158.971 38.879 159.206 39.1107 159.388 39.3819C159.571 39.653 159.697 39.958 159.761 40.279C159.824 40.6 159.823 40.9305 159.758 41.2512C159.692 41.5718 159.564 41.876 159.38 42.146C159.196 42.4161 158.96 42.6465 158.686 42.8236C158.412 43.0008 158.105 43.1213 157.784 43.1779Z" fill="black"/>
<path opacity="0.25" d="M148.492 51.9953C147.216 51.5517 144.314 47.9431 144.314 47.9431C144.314 47.9431 148.814 46.9087 150.094 47.3522C150.401 47.4547 150.685 47.6175 150.93 47.8311C151.174 48.0448 151.374 48.3051 151.517 48.5968C151.661 48.8886 151.745 49.2061 151.765 49.5309C151.785 49.8556 151.741 50.1812 151.635 50.4887C151.529 50.7961 151.363 51.0794 151.147 51.322C150.931 51.5646 150.67 51.7616 150.377 51.9018C150.085 52.042 149.768 52.1224 149.444 52.1384C149.121 52.1545 148.797 52.1058 148.492 51.9953Z" fill="black"/>
<path opacity="0.25" d="M139.953 57.0768C138.62 56.8559 135.161 53.7845 135.161 53.7845C135.161 53.7845 139.425 52.0003 140.757 52.2212C141.398 52.3271 141.97 52.6843 142.349 53.2143C142.727 53.7443 142.881 54.4037 142.776 55.0474C142.67 55.691 142.314 56.2663 141.787 56.6465C141.259 57.0268 140.603 57.181 139.962 57.0751L139.953 57.0768Z" fill="black"/>
<path opacity="0.25" d="M148.375 38.2788C148.374 39.6362 150.825 43.5746 150.825 43.5746C150.825 43.5746 153.273 39.6412 153.273 38.2855C153.282 37.9575 153.225 37.6312 153.106 37.3257C152.987 37.0202 152.808 36.7418 152.58 36.5068C152.352 36.2718 152.08 36.085 151.779 35.9575C151.478 35.83 151.154 35.7643 150.828 35.7643C150.501 35.7643 150.178 35.83 149.877 35.9575C149.576 36.085 149.303 36.2718 149.075 36.5068C148.847 36.7418 148.669 37.0202 148.55 37.3257C148.431 37.6312 148.374 37.9575 148.382 38.2855L148.375 38.2788Z" fill="black"/>
<path opacity="0.25" d="M138.472 44.3479C138.875 45.6434 142.381 48.6645 142.381 48.6645C142.381 48.6645 143.548 44.1755 143.141 42.88C142.93 42.2798 142.496 41.7852 141.929 41.5003C141.362 41.2154 140.708 41.1626 140.103 41.3528C139.498 41.543 138.99 41.9616 138.687 42.5202C138.383 43.0789 138.307 43.7341 138.475 44.3479H138.472Z" fill="black"/>
<path opacity="0.25" d="M129.661 51.5735C129.841 52.9125 132.787 56.4893 132.787 56.4893C132.787 56.4893 134.689 52.2631 134.509 50.9191C134.473 50.5934 134.373 50.2782 134.214 49.9921C134.055 49.7059 133.841 49.4545 133.584 49.2526C133.327 49.0508 133.033 48.9026 132.718 48.8168C132.403 48.7309 132.075 48.7092 131.751 48.7529C131.428 48.7965 131.117 48.9046 130.836 49.0709C130.555 49.2372 130.31 49.4582 130.115 49.721C129.92 49.9838 129.78 50.2831 129.702 50.6013C129.624 50.9194 129.61 51.25 129.661 51.5735Z" fill="black"/>
<path d="M129.734 60.9616C129.734 60.9616 130.844 49.4729 137.453 43.3637C140.241 40.8176 142.132 37.4326 142.843 33.7161C143.166 31.9494 143.327 30.1565 143.324 28.3601" stroke="#535461" stroke-width="2" stroke-miterlimit="10"/>
<path d="M147.467 24.4838C146.967 25.7424 143.228 28.474 143.228 28.474C143.228 28.474 142.424 23.9063 142.929 22.6476C143.172 22.0433 143.645 21.5606 144.242 21.3059C144.839 21.0512 145.513 21.0452 146.115 21.2894C146.717 21.5335 147.197 22.0078 147.451 22.6078C147.704 23.2078 147.71 23.8844 147.467 24.4888V24.4838Z" fill="#469BB1"/>
<path d="M148.419 32.973C147.314 33.7529 142.703 34.009 142.703 34.009C142.703 34.009 144.5 29.7343 145.604 28.9543C145.866 28.7573 146.165 28.6152 146.483 28.5362C146.801 28.4573 147.131 28.4432 147.454 28.4948C147.777 28.5464 148.087 28.6625 148.365 28.8365C148.642 29.0104 148.883 29.2385 149.071 29.5073C149.259 29.7762 149.392 30.0802 149.461 30.4015C149.531 30.7228 149.535 31.0547 149.474 31.3777C149.413 31.7007 149.289 32.0082 149.107 32.2819C148.926 32.5556 148.692 32.7901 148.419 32.9713V32.973Z" fill="#469BB1"/>
<path d="M143.476 44.8199C142.13 44.9337 138.02 42.8114 138.02 42.8114C138.02 42.8114 141.72 40.033 143.066 39.9192C143.713 39.8646 144.354 40.0702 144.85 40.4908C145.346 40.9114 145.655 41.5126 145.709 42.162C145.763 42.8114 145.559 43.456 145.14 43.9538C144.721 44.4516 144.123 44.762 143.476 44.8166V44.8199Z" fill="#469BB1"/>
<path d="M137.725 52.936C136.417 53.2707 132.011 51.8865 132.011 51.8865C132.011 51.8865 135.189 48.5206 136.497 48.1791C137.125 48.0156 137.792 48.1093 138.351 48.4396C138.91 48.77 139.316 49.31 139.479 49.9408C139.642 50.5716 139.549 51.2415 139.22 51.8032C138.891 52.3649 138.353 52.7724 137.725 52.936Z" fill="#469BB1"/>
<path d="M137.842 32.3236C138.388 33.5639 142.211 36.1733 142.211 36.1733C142.211 36.1733 142.861 31.5805 142.314 30.3402C142.042 29.76 141.555 29.3097 140.956 29.0856C140.358 28.8616 139.696 28.8815 139.111 29.1412C138.527 29.4008 138.068 29.8796 137.83 30.4752C137.593 31.0708 137.597 31.736 137.842 32.3286V32.3236Z" fill="#469BB1"/>
<path d="M131.236 41.9008C132.127 42.9202 136.55 44.2558 136.55 44.2558C136.55 44.2558 135.804 39.6781 134.912 38.6588C134.702 38.4112 134.444 38.208 134.155 38.0611C133.866 37.9143 133.55 37.8266 133.227 37.8032C132.904 37.7798 132.579 37.8212 132.272 37.925C131.964 38.0288 131.681 38.1928 131.437 38.4076C131.194 38.6224 130.995 38.8837 130.853 39.1763C130.711 39.4689 130.628 39.7869 130.609 40.1119C130.59 40.4369 130.636 40.7625 130.744 41.0696C130.851 41.3767 131.019 41.6592 131.236 41.9008Z" fill="#469BB1"/>
<path d="M126.088 52.0974C126.795 53.2523 130.929 55.3194 130.929 55.3194C130.929 55.3194 130.964 50.6814 130.263 49.5249C129.913 48.9909 129.371 48.6145 128.75 48.4755C128.129 48.3366 127.479 48.4461 126.937 48.7807C126.395 49.1153 126.004 49.6488 125.847 50.268C125.69 50.8872 125.78 51.5434 126.096 52.0974H126.088Z" fill="#469BB1"/>
<path d="M121.235 15.9693C121.512 14.95 121.845 13.9257 122.079 12.8929C121.799 13.9257 121.464 14.9533 121.235 15.9693Z" fill="url(#paint0_linear_170_648)"/>
<path d="M119.996 25.7876C119.972 25.7474 119.956 25.7072 119.937 25.6704C119.937 25.6537 119.921 25.6403 119.914 25.6235C119.878 25.6407 119.84 25.6558 119.802 25.6687C119.729 25.6972 119.654 25.724 119.577 25.7457C119.501 25.7675 119.469 25.7792 119.411 25.7926C119.362 25.8093 119.313 25.8222 119.262 25.8311L119.276 25.8612C119.337 25.8478 119.397 25.8361 119.459 25.8194L119.476 26.0269C119.546 26.0269 119.611 26.0169 119.674 26.0169C119.704 26.0152 119.734 26.0152 119.764 26.0169C119.894 26.0169 120.007 26.0169 120.097 26.0169C120.062 25.9415 120.026 25.8629 119.996 25.7876ZM153.825 79.8717C153.042 78.8122 151.478 67.4407 151.478 67.4407C151.478 67.4407 148.404 59.3548 149.242 56.1278C150.08 52.9008 146.952 44.6441 146.952 44.6441C146.952 44.6441 144.886 43.742 144.774 42.403C144.774 42.403 136.337 39.7249 135.942 37.7164C135.622 36.0695 130.389 34.8878 128.51 34.5145C127.936 32.1914 127.36 30.0238 126.935 28.8405C126.82 28.4723 126.711 28.1543 126.611 27.9032C125.893 26.0621 123.673 25.8947 122.064 26.042C121.994 25.7282 121.864 25.4309 121.682 25.1666C121.655 25.0757 121.603 24.9948 121.53 24.9339C121.496 24.9044 121.459 24.8775 121.42 24.8536C121.391 24.7994 121.353 24.7506 121.307 24.7097C121.261 24.6683 121.211 24.6323 121.157 24.6025C121.118 24.5815 121.078 24.563 121.037 24.5473C120.941 24.5104 120.841 24.4829 120.739 24.4653C120.62 24.4408 120.5 24.4251 120.379 24.4184C120.673 24.2892 120.935 24.0966 121.147 23.8544C121.291 23.6843 121.398 23.4859 121.462 23.2719C121.515 23.0939 121.538 22.9085 121.532 22.7229C121.489 22.7994 121.439 22.8717 121.382 22.9388C121.452 22.1974 121.062 21.4442 120.839 20.706C120.568 19.7451 120.518 18.7351 120.692 17.7518C120.915 16.2689 121.469 14.7692 121.844 13.2595C121.845 13.2511 121.845 13.2427 121.844 13.2344C122.04 12.4846 122.162 11.717 122.207 10.943C122.272 9.38139 121.874 7.82312 121.234 6.40042C120.665 5.14008 119.827 3.89983 118.544 3.38766C117.591 3.00102 116.523 3.06295 115.496 2.99935C113.193 2.8554 110.997 2.04196 108.807 1.30216C106.617 0.562356 104.364 -0.110495 102.059 0.0183839C99.7546 0.147263 97.3833 1.26366 96.3317 3.31234C95.9984 3.95171 95.8068 4.66306 95.4085 5.26394C94.6619 6.39708 93.3254 6.96448 92.2105 7.74612C91.0957 8.52777 90.1141 9.63747 89.7108 10.9614C89.4906 11.6747 89.4596 12.4334 89.6208 13.1624C89.6571 13.327 89.7039 13.4892 89.7608 13.6478C89.919 14.09 90.1657 14.4951 90.4857 14.8378C90.7271 15.0912 91.0045 15.3072 91.309 15.4789C91.6913 15.6917 92.1005 15.8516 92.5255 15.9542C92.5105 16.0044 92.4955 16.058 92.4788 16.1099C92.4522 16.1953 92.4288 16.2773 92.4038 16.3693C92.3489 16.5752 92.2972 16.7844 92.2539 16.9953C92.2521 17.0103 92.2521 17.0255 92.2539 17.0405C92.0492 17.9925 91.9464 18.9638 91.9472 19.9378C91.9469 20.3984 91.9703 20.8587 92.0172 21.317C92.6838 28.1091 98.2665 33.4668 105.164 33.8149C105.401 33.8266 105.639 33.8333 105.881 33.8333C105.991 33.8333 106.099 33.8333 106.214 33.8333C106.322 33.9773 106.429 34.1245 106.53 34.2685C106.632 34.4124 106.725 34.5597 106.814 34.7037L106.572 34.4526L106.331 34.23C106.265 34.3203 106.192 34.4048 106.112 34.4827C105.955 34.4271 105.794 34.3812 105.631 34.3455C104.939 34.1915 103.886 34.1346 102.499 34.5547C101.224 34.938 99.6663 35.7263 97.8432 37.2243L88.9593 42.5804L84.1532 45.5161L82.4217 49.7675C82.4217 49.7675 81.1202 54.8189 79.672 60.6067C79.6154 60.6235 79.5604 60.6402 79.5054 60.6603C79.3881 60.6469 79.2701 60.6402 79.1521 60.6402C78.3119 60.6382 77.5036 60.9634 76.897 61.5473C76.2904 62.1313 75.9328 62.9286 75.8992 63.7718C73.0195 67.2867 72.8562 70.8016 73.5328 72.4151C73.594 72.5663 73.6711 72.7105 73.7627 72.8453C74.206 73.488 75.0343 75.145 75.8742 76.9108C75.8525 77.0564 75.8392 77.1786 75.8325 77.2707C75.831 77.3008 75.831 77.331 75.8325 77.3611C75.8325 77.3611 76.3324 84.9449 74.666 87.1191C74.301 87.5927 74.356 88.2154 74.666 88.905C75.7825 91.3855 80.197 94.6978 80.197 94.6978C80.197 94.6978 85.4913 94.6694 88.441 94.3464C88.4327 94.6443 88.426 94.9405 88.4193 95.2301C88.3527 98.1558 88.3527 100.608 88.3527 100.608L88.2427 103.676C88.2427 103.676 87.2428 110.142 86.7429 111.924C86.4279 113.042 86.7912 123.394 87.1078 131.005H139.272C139.885 126.503 139.02 112.823 139.02 112.823C139.02 112.823 138.198 109.286 138.168 106.203C138.167 106.2 138.166 106.196 138.166 106.192C138.166 106.189 138.167 106.185 138.168 106.181C138.168 105.912 138.168 105.649 138.178 105.391L138.557 105.378L139.237 105.355H139.298C139.298 105.355 139.315 105.291 139.353 105.187C139.443 104.929 139.566 104.683 139.718 104.456C140.008 104.026 140.461 103.604 141.143 103.575C141.52 103.56 142.103 103.254 142.761 102.802C142.766 102.803 142.77 102.803 142.774 102.802C144.546 101.599 146.887 99.3777 147.456 99.0128C148.237 98.5107 151.98 95.1631 151.98 95.1631C151.98 95.1631 152.538 94.4535 153.133 93.5982L153.155 93.5681C153.895 92.4969 154.681 91.2164 154.488 90.813C154.155 90.09 154.711 88.361 154.711 88.361C156.45 85.1658 154.608 80.9312 153.825 79.8717ZM121.6 28.3903C121.616 28.4402 121.626 28.4919 121.63 28.5442C121.589 28.489 121.547 28.4304 121.505 28.3769L121.465 28.3233L121.437 28.2831L121.5 28.1961C121.5 28.1961 121.5 28.1961 121.5 28.2078C121.544 28.2621 121.578 28.3239 121.6 28.3903ZM121.04 26.9073C120.859 26.9441 120.715 26.9776 120.622 27.0027C120.504 26.7918 120.391 26.5809 120.289 26.3667C120.556 26.5224 120.808 26.7034 121.04 26.9073ZM120.727 27.1718C120.727 27.1684 120.727 27.165 120.727 27.1617L120.74 27.1718C120.809 27.217 120.875 27.2605 120.937 27.3057C120.992 27.3458 121.042 27.3843 121.092 27.4245C121.059 27.4831 121.022 27.5433 120.985 27.5919C120.927 27.4998 120.872 27.4111 120.819 27.319C120.785 27.2822 120.755 27.232 120.727 27.1718ZM119.727 25.1063C120.049 25.0744 120.374 25.0744 120.695 25.1063C120.74 25.1063 120.78 25.1147 120.82 25.1214C120.911 25.1354 121 25.1584 121.085 25.19C121.282 25.4668 121.404 25.7905 121.437 26.129L121.347 26.1424L121.259 26.1591C121.092 26.1876 120.925 26.216 120.795 26.2428L120.629 26.278C120.407 26.3265 120.279 26.3633 120.274 26.365C120.252 26.3198 120.231 26.278 120.207 26.2345C120.171 26.1625 120.132 26.0888 120.099 26.0169C120.066 25.9449 120.022 25.8629 119.987 25.7876C119.964 25.7474 119.947 25.7072 119.929 25.6704C119.929 25.6537 119.912 25.6403 119.906 25.6235C119.896 25.6058 119.887 25.5873 119.881 25.5683C119.779 25.3608 119.686 25.1532 119.596 24.949C119.586 24.9289 119.577 24.9072 119.569 24.8871L119.696 24.8787V24.9222L119.727 25.1063ZM79.967 128.936C79.9537 126.444 79.7737 123.748 79.2738 121.217C79.0604 120.141 78.8405 119.064 78.6172 118.007C78.5605 117.742 78.5055 117.481 78.4505 117.22L77.9372 117.289H77.8906C76.4908 110.659 75.0276 104.817 75.0276 104.817C75.0276 104.817 72.1213 93.6718 72.4579 92.7831C72.5012 92.6676 72.4462 92.3563 72.3229 91.8993C71.6197 89.3652 68.6833 82.3823 67.6568 79.9956C67.6568 79.9855 67.6485 79.9738 67.6451 79.9654C67.4785 79.5654 67.3585 79.2959 67.3218 79.2173L67.5635 75.6555L67.5768 75.4413L67.6085 74.986L67.5951 74.9743L67.6085 74.7634C67.6085 74.7634 65.0721 72.6745 60.776 71.1665C60.6093 71.1062 60.4327 71.0476 60.2577 70.9907C60.4727 69.5496 60.7576 67.9227 61.1293 66.3377C61.1643 66.1787 61.2026 66.0247 61.2426 65.869C61.2776 65.7134 61.3176 65.5627 61.3576 65.4104C61.4209 65.1627 61.4892 64.9183 61.5592 64.6773C61.7908 64.6037 62.0192 64.5217 62.2441 64.4346L62.3308 64.4012C65.1023 63.318 67.3891 61.2629 68.7679 58.6164C70.1466 55.9699 70.5239 52.9113 69.8299 50.0068C69.4341 48.3596 68.7034 46.8124 67.6835 45.4626C67.6068 45.3588 67.5252 45.255 67.4435 45.1529C67.3618 45.0508 67.2635 44.937 67.1719 44.8333C67.6535 43.7336 68.2217 42.6875 68.2684 41.618C68.2767 41.4825 68.2767 41.3467 68.2684 41.2112V41.1945C68.2067 40.5066 67.9034 39.8103 67.1969 39.0789C66.1653 38.006 64.6972 37.462 63.229 37.2009C61.7608 36.9398 60.2644 36.9331 58.7879 36.7574C56.3398 36.4628 53.9551 35.7046 51.5071 35.4719C48.4917 35.1915 45.4559 35.7109 42.7031 36.9783C40.8817 37.8152 39.0369 39.278 38.9269 41.2849C38.8369 42.9436 39.9868 44.5336 39.6968 46.1723C39.4085 47.7824 37.7754 49.0494 37.9187 50.678C37.9737 51.314 38.2987 51.8831 38.7053 52.3903C38.8453 52.5576 38.9936 52.725 39.1469 52.8924C39.7402 53.5234 40.3934 54.1293 40.725 54.9243C40.7384 54.9578 40.7517 54.9913 40.7634 55.0248C41.045 55.8098 40.9183 56.8023 40.2218 57.2525C40.2256 57.2555 40.2285 57.2596 40.2301 57.2643C40.2401 57.2776 40.2501 57.2877 40.2584 57.3011C40.2594 57.2984 40.2594 57.2954 40.2584 57.2927C40.5054 57.5868 40.8383 57.7953 41.21 57.8886L41.3516 57.9321C41.2366 58.0576 41.1283 58.1882 41.0183 58.3254L40.9467 58.4208C40.763 58.6688 40.596 58.9288 40.4467 59.1991C40.3617 59.3498 40.2801 59.5004 40.2118 59.651C39.9833 60.1102 39.818 60.5984 39.7202 61.1022C39.5418 62.2102 39.7935 63.3651 39.5235 64.4497C39.1902 65.7887 38.1353 66.8164 37.5404 68.06C36.4139 70.4033 37.0521 73.1532 37.2788 75.7409C37.5871 79.2558 37.0871 82.7857 36.5889 86.2772C36.3244 88.1339 36.06 89.9924 35.7956 91.8525C35.129 96.5211 34.4624 101.19 33.7959 105.858C33.5526 107.569 33.2643 109.373 32.1294 110.694H32.1411C32.1411 110.694 32.1411 110.704 32.1294 110.707C32.4701 110.857 32.8324 110.951 33.2026 110.985C34.6841 111.134 36.2539 110.414 37.5871 109.628C38.6429 109.015 39.6427 108.31 40.5751 107.521C40.4384 108.023 40.2917 108.57 40.1351 109.159C40.1356 109.165 40.1356 109.17 40.1351 109.176C38.2537 116.373 35.2274 129.567 35.2274 129.567C35.2274 129.567 34.9524 130.141 34.5958 130.997H81.5901C81.0402 130.327 80.5286 129.686 80.1287 129.169L79.967 128.936ZM45.1712 62.3876C45.1828 62.3675 45.1912 62.3491 45.2028 62.3307C45.2028 62.3843 45.2028 62.4362 45.2028 62.4864C45.2028 62.5366 45.2028 62.5818 45.2028 62.6286C45.2028 62.6755 45.2028 62.6705 45.2028 62.6939C45.2028 62.7174 45.2028 62.6939 45.2028 62.6939C45.2028 62.7626 45.1878 62.8312 45.1762 62.8998C45.1762 62.8998 45.1762 62.9082 45.1762 62.9149L45.3428 62.9768L45.5361 63.0571C46.6782 63.5102 47.8347 63.9202 49.0057 64.2873C49.1257 64.3258 49.2473 64.3627 49.369 64.3978L49.394 64.6054C49.424 64.8179 49.4523 65.0338 49.479 65.2497C49.479 65.2497 49.479 65.2598 49.479 65.2665C49.554 65.864 49.6273 66.4599 49.6923 67.0423C49.6923 67.0423 46.6327 65.8707 46.671 67.6499C46.6692 67.6817 46.6692 67.7135 46.671 67.7453C46.6676 67.7877 46.6676 67.8302 46.671 67.8725C46.6993 69.2584 47.1309 70.0802 47.2176 70.502C47.2124 70.5195 47.2033 70.5355 47.1909 70.5489C47.117 70.7105 47.0915 70.8902 47.1176 71.0661C47.1147 71.3655 47.1381 71.6646 47.1876 71.9598C47.0976 72.0151 47.0093 72.0703 46.921 72.1272C46.8543 72.1691 46.791 72.2159 46.726 72.2628C46.3172 70.8385 45.7823 69.4538 45.1278 68.1253C44.6696 67.1779 44.1546 66.1904 44.1596 65.151C44.1596 65.0841 44.1596 65.0154 44.168 64.9468C44.1865 64.6456 44.2437 64.348 44.3379 64.0614C44.3763 63.9526 44.4179 63.8455 44.4646 63.74C44.5735 63.4895 44.6953 63.2448 44.8295 63.0069C44.9162 62.8496 45.0078 62.6939 45.0962 62.5366C45.1245 62.4897 45.1512 62.4412 45.1778 62.3943L45.1712 62.3876ZM119.996 25.7876C119.972 25.7474 119.956 25.7072 119.937 25.6704C119.937 25.6537 119.921 25.6403 119.914 25.6235C119.878 25.6407 119.84 25.6558 119.802 25.6687C119.729 25.6972 119.654 25.724 119.577 25.7457C119.501 25.7675 119.469 25.7792 119.411 25.7926L119.262 25.8311L119.276 25.8612C119.337 25.8478 119.397 25.8361 119.459 25.8194L119.476 26.0269C119.546 26.0269 119.611 26.0169 119.674 26.0169H119.764C119.894 26.0169 120.007 26.0169 120.097 26.0169C120.062 25.9415 120.026 25.8629 119.996 25.7876Z" fill="url(#paint1_linear_170_648)"/>
<path d="M83.5833 50.3717L82.5835 50.8153C82.5835 50.8153 76.0659 76.2464 76.0659 78.3017C76.0659 80.3571 89.8859 91.7939 89.8859 91.7939L92.0423 77.1753C92.0423 77.1753 88.946 43.6516 83.5833 50.3717Z" fill="#E8F5FF"/>
<path d="M113.898 42.2824L108.124 39.2563C107.801 37.8715 107.227 36.5581 106.431 35.3815C105.586 34.1563 104.463 32.9529 103.063 32.3252C99.525 30.7318 118.028 22.368 118.028 22.368C118.319 23.3728 118.662 24.3616 119.056 25.3306C120.009 27.6939 121.591 30.7502 123.629 31.6206C127.093 33.1019 113.898 42.2824 113.898 42.2824Z" fill="#FFC1C7"/>
<path opacity="0.1" d="M119.056 25.3306C118.265 28.1232 116.621 30.5959 114.356 32.3994C112.091 34.2028 109.318 35.246 106.431 35.3815C105.586 34.1563 104.463 32.9529 103.063 32.3252C99.525 30.7318 118.028 22.368 118.028 22.368C118.319 23.3728 118.662 24.3616 119.056 25.3306Z" fill="black"/>
<path d="M119.576 21.1077C119.576 23.8466 118.768 26.5242 117.254 28.8018C115.739 31.0794 113.586 32.8547 111.067 33.9032C108.548 34.9517 105.776 35.2263 103.101 34.6923C100.426 34.1582 97.9694 32.8395 96.0411 30.903C94.1127 28.9664 92.7994 26.4989 92.2674 23.8127C91.7353 21.1264 92.0084 18.342 93.0521 15.8117C94.0957 13.2813 95.863 11.1186 98.1305 9.59712C100.398 8.07565 103.064 7.26373 105.791 7.26406C107.603 7.25564 109.399 7.60796 111.076 8.30067C112.752 8.99337 114.275 10.0127 115.556 11.2999C116.838 12.5871 117.853 14.1165 118.543 15.7999C119.233 17.4833 119.584 19.2873 119.576 21.1077Z" fill="#FFC1C7"/>
<path d="M121.565 40.5049L117.806 49.3155L114.49 55.1636H103.874L100.778 47.1681L102.033 38.8763H110.14L115.374 38.5801L117.143 37.9875L118.282 38.637L121.565 40.5049Z" fill="#575A89"/>
<path opacity="0.1" d="M120.271 28.7602C120.271 28.7602 122.616 29.2623 120.516 30.9913C118.416 32.7203 111.172 38.2186 111.172 38.2186C111.172 38.2186 113.717 40.4949 113.19 43.1612L121.621 38.4412L123.12 30.8892C123.12 30.8892 123.289 28.6196 120.271 28.7602Z" fill="black"/>
<path opacity="0.1" d="M112.83 38.2186L107.467 39.1074C107.467 39.1074 108.574 43.2165 108.02 44.3831C108.004 44.4193 107.99 44.4568 107.979 44.4952L105.791 50.4354L107.43 55.1001L113.106 47.3255L111.172 44.3831C111.172 44.3831 113.216 41.6615 114.433 40.7175C115.649 39.7735 112.83 38.2186 112.83 38.2186Z" fill="black"/>
<path d="M112.83 37.9893L107.467 38.8763C107.467 38.8763 108.574 42.9854 108.02 44.152C108.004 44.1883 107.99 44.2258 107.979 44.2642L105.791 50.2043L107.43 54.8691L113.106 47.0895L111.172 44.147C111.172 44.147 113.216 41.4255 114.433 40.4815C115.649 39.5375 112.83 37.9893 112.83 37.9893Z" fill="#DCE6F2"/>
<path d="M120.496 28.3166C120.496 28.3166 122.84 28.8187 120.739 30.5477C118.638 32.2767 111.172 38.2185 111.172 38.2185C111.172 38.2185 113.937 40.0513 113.412 42.7159L121.842 37.9976L123.342 30.4456C123.342 30.4456 123.509 28.176 120.496 28.3166Z" fill="#575A89"/>
<path opacity="0.1" d="M106.799 35.9054C106.799 35.9054 107.311 36.8661 109.569 38.5985C109.569 38.5985 105.809 40.607 107.247 43.4306L101.496 41.9242L100.611 39.1475L106.799 35.9054Z" fill="black"/>
<path d="M106.577 35.6846C106.577 35.6846 107.089 36.6453 109.347 38.3777C109.347 38.3777 105.587 40.3761 107.025 43.2081L101.276 41.7017L100.391 38.9266L106.577 35.6846Z" fill="#575A89"/>
<path opacity="0.1" d="M121.565 40.5049L117.806 49.3155L114.496 55.1636H103.874L100.778 47.1681L102.031 38.8763H104.286C104.249 40.8112 104.952 43.0841 104.907 43.9294C104.831 45.3186 106.97 52.8137 106.97 52.8137C106.97 52.8137 111.448 45.5395 113.216 44.8918C114.328 44.4851 116.683 41.1007 118.281 38.637L121.565 40.5049Z" fill="black"/>
<path d="M136.375 86.8697L135.994 87.3517C135.994 87.3517 138.758 101.289 137.994 104.454C137.864 105.025 137.789 105.607 137.772 106.192V106.217C137.637 109.437 138.605 113.616 138.605 113.616C138.605 113.616 139.378 125.935 138.938 131.002H87.1747C86.8714 123.51 86.5447 113.804 86.8414 112.728C87.3413 110.952 88.3412 104.509 88.3412 104.509L88.4512 101.457C88.4512 101.457 88.4512 98.5057 88.5412 95.2184C88.5795 93.7405 88.6362 92.1889 88.7178 90.8131C88.8228 89.0824 88.9695 87.6246 89.1711 86.9082C89.2953 86.3652 89.3667 85.8114 89.3844 85.2545C89.3844 85.2027 89.3844 85.1491 89.3944 85.0955C89.3944 84.9282 89.4111 84.7474 89.4177 84.5616C89.4177 84.5097 89.4177 84.4578 89.4177 84.3942C89.4494 83.3163 89.4377 82.0376 89.4027 80.712C89.4027 80.64 89.4027 80.5663 89.4027 80.4927C89.3744 79.4985 89.3327 78.4842 89.2861 77.5201C89.1411 74.5073 88.9528 71.9599 88.9528 71.9599L82.5952 50.8036L84.3083 46.5656L89.0628 43.6399L97.8534 38.309C102.141 34.769 104.964 35.1941 106.041 35.5824C106.145 35.6183 106.248 35.6602 106.347 35.708C106.381 35.7247 106.407 35.7381 106.432 35.7531C106.467 35.7694 106.499 35.7885 106.531 35.8101C106.236 35.9525 105.98 36.1644 105.784 36.4277C105.564 36.7273 105.407 37.0691 105.322 37.4319C105.266 37.6568 105.227 37.8857 105.204 38.1165C105.183 38.3592 105.174 38.6103 105.174 38.863C105.186 39.4173 105.233 39.9702 105.316 40.5183C105.316 40.5284 105.316 40.5418 105.316 40.5552C105.371 40.9468 105.439 41.3301 105.506 41.69C105.505 41.6961 105.505 41.7023 105.506 41.7084C105.582 42.1285 105.659 42.5168 105.711 42.8516C105.721 42.9118 105.729 42.967 105.737 43.0189C105.774 43.2401 105.791 43.4642 105.789 43.6884C105.808 44.2299 105.88 44.7682 106.006 45.2952C106.049 45.5162 106.099 45.7522 106.154 45.9982C106.229 46.333 106.311 46.6979 106.399 47.0694C106.447 47.2736 106.499 47.4845 106.552 47.6937C106.572 47.7774 106.594 47.8611 106.614 47.9465L106.647 48.0787C107.002 49.4964 107.387 50.9074 107.624 51.761C107.764 52.2631 107.852 52.5727 107.852 52.5727C107.852 52.5727 110.362 48.4971 112.365 46.1773C112.395 46.1438 112.422 46.112 112.45 46.0819C112.648 45.8526 112.843 45.6434 113.03 45.4593C113.438 45.0509 113.805 44.7596 114.1 44.6525C114.163 44.6294 114.223 44.6008 114.281 44.5672C115.101 44.1002 116.424 42.4047 117.663 40.6288C117.784 40.4614 117.903 40.279 118.023 40.1066C118.298 39.7082 118.564 39.3082 118.816 38.9249C119.009 38.632 119.194 38.3475 119.369 38.0763C120.202 36.7741 120.789 35.8034 120.789 35.8034L121.946 35.7515L122.147 35.7414H122.282L127.533 35.4971C127.533 35.4971 127.76 35.5356 128.133 35.6109C128.153 35.6109 128.173 35.6109 128.195 35.6243C130.058 35.9958 135.234 37.1725 135.551 38.8044C135.937 40.8029 144.286 43.4692 144.286 43.4692C144.396 44.8082 146.441 45.6903 146.441 45.6903C146.441 45.6903 149.537 53.9084 148.709 57.1287C147.891 60.3089 150.839 68.1755 150.917 68.3964L150.352 69.1128L136.375 86.8697Z" fill="#E8F5FF"/>
<path opacity="0.1" d="M120.269 28.176C120.269 28.176 125.38 26.7198 126.542 29.7175C127.703 32.7152 130.301 44.8215 130.301 44.8215C130.301 44.8215 123.555 46.0986 121.787 44.8215C120.75 44.0636 119.466 43.7265 118.193 43.8775L114.378 46.4869L113.251 46.1521C113.251 46.1521 119.354 37.0402 120.681 33.9438C122.007 30.8473 122.455 29.4631 120.269 28.176Z" fill="black"/>
<path d="M120.047 27.5066C120.047 27.5066 125.162 26.0504 126.328 29.0481C127.495 32.0458 130.088 44.1521 130.088 44.1521C130.088 44.1521 123.344 45.4292 121.574 44.1521C120.537 43.3941 119.254 43.057 117.981 43.2081L114.163 45.8175L113.037 45.4827C113.037 45.4827 119.139 36.3708 120.466 33.2743C121.792 30.1779 122.234 28.797 120.047 27.5066Z" fill="#E8F5FF"/>
<path opacity="0.1" d="M85.7398 75.8029C85.7398 75.8029 89.5543 76.7469 90.2743 78.9127C90.9942 81.0785 87.4546 81.1338 87.4546 81.1338C87.4546 81.1338 85.2982 77.3025 85.7398 75.8029Z" fill="black"/>
<path opacity="0.1" d="M99.9479 91.7939C99.9479 91.7939 90.6057 111.007 92.7621 112.84C94.9185 114.673 99.9479 91.7939 99.9479 91.7939Z" fill="black"/>
<path opacity="0.1" d="M112.83 77.6356C112.83 77.6356 120.294 96.298 118.801 99.1802C117.307 102.062 122.007 99.1802 122.007 99.1802L112.83 77.6356Z" fill="black"/>
<path d="M123.224 96.0703C123.224 96.0703 98.0134 97.2922 105.368 105.177C112.722 113.062 127.813 105.512 127.813 105.512L123.224 96.0703Z" fill="#FFC1C7"/>
<path opacity="0.1" d="M119.576 21.1077C119.578 22.9238 119.223 24.7224 118.531 26.4001C118.299 26.4269 118.067 26.4436 117.844 26.4537C117.511 25.7189 117.689 24.8703 117.696 24.0619C117.703 23.2535 117.406 22.3028 116.631 22.0852C115.086 21.6483 114.02 24.549 112.496 24.0251C111.33 23.6267 111.635 21.8492 110.963 20.8232C110.432 20.0114 109.367 19.7821 108.539 19.2733C106.777 18.187 106.83 16.4496 106.012 14.806C105.156 13.0837 103.346 13.5925 101.774 14.6085C100.581 15.3818 99.5514 16.4178 98.2748 17.0338C97.17 17.5694 95.9285 17.7635 94.7036 17.792C93.9495 17.8213 93.1952 17.7413 92.4639 17.5543C93.3241 14.3062 95.3312 11.4832 98.1109 9.61179C100.891 7.74035 104.253 6.94825 107.571 7.38318C110.89 7.81812 113.937 9.4504 116.146 11.9756C118.354 14.5009 119.572 17.7467 119.574 21.1077H119.576Z" fill="black"/>
<path d="M101.779 14.1651C100.584 14.9383 99.5562 15.9727 98.2797 16.592C97.1749 17.1259 95.9333 17.3201 94.7085 17.3486C93.2087 17.382 91.5939 17.1176 90.569 16.0296C89.6274 15.0254 89.4025 13.4805 89.8007 12.1633C90.199 10.846 91.1539 9.75305 92.2754 8.96136C93.397 8.16967 94.6985 7.62235 95.4417 6.48922C95.835 5.89001 96.025 5.18369 96.3516 4.54599C97.3965 2.50568 99.7462 1.401 102.018 1.26375C104.289 1.1265 106.54 1.80605 108.703 2.5425C110.867 3.27895 113.046 4.08905 115.329 4.24136C116.346 4.30497 117.402 4.24136 118.346 4.628C119.614 5.14519 120.445 6.3821 121.012 7.64077C121.647 9.06011 122.042 10.61 121.975 12.1599C121.835 15.4689 119.659 18.716 120.615 21.8861C120.869 22.7314 121.344 23.5984 121.09 24.4436C120.72 25.6772 119.136 25.9584 117.854 26.017C117.521 25.2822 117.699 24.4319 117.706 23.6252C117.712 22.8184 117.416 21.866 116.643 21.6484C115.096 21.2149 114.03 24.1105 112.51 23.5883C111.351 23.1883 111.651 21.4124 110.978 20.3864C110.447 19.573 109.38 19.3454 108.554 18.8365C106.792 17.7503 106.845 16.0129 106.027 14.3693C105.164 12.6386 103.352 13.1474 101.779 14.1651Z" fill="#99607E"/>
<path d="M77.3342 77.8565L76.0627 78.3017C76.0627 78.3017 76.5627 85.8537 74.8962 88.0195C73.2297 90.1854 80.3689 95.5698 80.3689 95.5698C80.3689 95.5698 90.1544 95.5146 90.431 94.733C90.7076 93.9513 89.9311 80.7403 89.9311 80.7403C89.9311 80.7403 84.6784 78.685 85.12 75.4094C85.12 75.4094 83.5168 83.1271 81.1405 82.794C78.7641 82.461 76.0661 80.4675 77.3342 77.8565Z" fill="#E8F5FF"/>
<path opacity="0.1" d="M81.5753 85.1307C83.428 85.1307 84.9299 83.7511 84.9299 82.0493C84.9299 80.3475 83.428 78.9679 81.5753 78.9679C79.7226 78.9679 78.2207 80.3475 78.2207 82.0493C78.2207 83.7511 79.7226 85.1307 81.5753 85.1307Z" fill="black"/>
<path d="M85.2431 78.0791C85.2431 78.0791 84.5765 57.6459 78.7738 62.1985C72.9712 66.7511 72.9145 72.1959 74.0194 73.8043C75.1243 75.4128 78.6672 83.4653 78.6672 83.4653C79.2214 83.7879 79.8438 83.974 80.4834 84.0084C81.123 84.0428 81.7616 83.9245 82.3469 83.6632C82.9323 83.402 83.4476 83.0051 83.8508 82.5052C84.254 82.0053 84.5335 81.4166 84.6665 80.7873L85.2431 78.0791Z" fill="#FFC1C7"/>
<path opacity="0.1" d="M121.44 26.3215C121.413 26.2318 121.361 26.1516 121.29 26.0906C121.004 25.8278 120.387 25.7357 119.457 25.8161L119.496 26.2579C120.736 26.1508 120.981 26.3985 121.012 26.4404V26.4822L121.05 26.5375C121.205 26.7461 121.315 26.9849 121.372 27.2386C121.429 27.4922 121.433 27.7551 121.384 28.0104C121.112 29.3745 119.444 30.4607 119.427 30.4725L119.387 30.4959L119.362 30.5344C118.642 31.6073 114.571 34.6351 113.506 35.4184L113.413 35.3113C112.936 35.7264 108.747 39.4103 108.52 40.8213C108.374 41.7067 107.38 42.0498 107.021 42.1452C106.641 41.8557 105.407 40.8698 104.766 39.7652C104.164 38.7258 106.586 36.6972 106.799 35.9055L106.466 35.5624C106.431 35.6896 103.321 38.6086 104.186 40.0999C104.879 41.2966 106.146 42.321 106.589 42.6591C106.447 43.9512 105.566 51.5384 104.211 53.336C102.528 55.5705 101.113 66.8315 101.27 70.7632C101.408 74.2563 100.5 80.8542 97.4667 83.6879C96.9416 84.2 96.3081 84.5864 95.6136 84.8182C94.919 85.0501 94.1813 85.1214 93.4555 85.0269H93.4188H93.3821C93.3388 85.0269 88.9393 85.4788 85.2431 82.3489C82.2185 79.7931 80.5054 75.6221 80.1487 69.948H80.0754L80.0454 68.296C80.8655 68.1675 81.6041 67.7247 82.1059 67.0607C82.6077 66.3967 82.8338 65.5631 82.7366 64.7352C82.6394 63.9073 82.2265 63.1495 81.5846 62.6209C80.9427 62.0924 80.1218 61.8343 79.2945 61.9009C78.4671 61.9675 77.6976 62.3536 77.1478 62.978C76.5979 63.6025 76.3104 64.4167 76.3457 65.2496C76.381 66.0825 76.7363 66.8692 77.3371 67.4445C77.9378 68.0198 78.7371 68.3388 79.5671 68.3345H79.6038L79.6338 69.9765L79.4871 69.9865C79.8538 75.8447 81.6535 80.178 84.8198 82.8544C87.2264 84.8573 90.3005 85.8678 93.4205 85.6814C93.6419 85.7057 93.8644 85.718 94.0871 85.7182C95.5171 85.7256 96.8932 85.1698 97.9199 84.17C101.115 81.1823 102.086 74.3417 101.934 70.7297C101.768 66.5637 103.253 55.7077 104.742 53.731C106.202 51.7911 107.087 44.2324 107.242 42.7679C107.77 42.6189 108.965 42.1486 109.169 40.9267C109.315 40.043 112.113 37.3198 113.835 35.8117L113.783 35.7515C114.71 35.0719 117.591 32.9295 119.019 31.5537C119.462 31.1269 119.902 30.7001 120.362 30.2934C120.916 29.8013 121.619 29.0196 121.804 28.0957C121.867 27.7907 121.867 27.476 121.805 27.1709C121.742 26.8658 121.618 26.5768 121.44 26.3215Z" fill="black"/>
<path d="M106.532 42.5536C106.462 42.5051 104.802 41.3117 103.971 39.8756C103.107 38.3843 106.217 35.4669 106.25 35.3397L106.584 35.6828C106.372 36.4729 103.951 38.5031 104.552 39.5409C105.311 40.8514 106.907 41.9979 106.924 42.0096L106.532 42.5536Z" fill="#353146"/>
<path d="M113.29 35.7431L113.03 35.3832C113.083 35.3447 118.317 31.5419 119.142 30.3117L119.169 30.2749L119.207 30.2498C119.224 30.2381 120.892 29.1535 121.164 27.7877C121.214 27.5327 121.21 27.27 121.153 27.0165C121.095 26.7631 120.986 26.5246 120.831 26.3165L120.792 26.2596V26.2194C120.759 26.1759 120.514 25.9298 119.274 26.037L119.236 25.5934C120.167 25.5131 120.782 25.6051 121.069 25.8679C121.14 25.9296 121.193 26.0102 121.22 26.1006C121.401 26.355 121.527 26.6439 121.592 26.9493C121.657 27.2548 121.658 27.5703 121.597 27.8764C121.412 28.802 120.711 29.5836 120.156 30.0741C119.697 30.4808 119.256 30.9109 118.814 31.3344C117.139 32.9462 113.473 35.6108 113.29 35.7431Z" fill="#E8F5FF"/>
<path d="M79.8302 67.7133L79.3887 67.7214L79.4379 70.4174L79.8794 70.4093L79.8302 67.7133Z" fill="#E8F5FF"/>
<path d="M79.3521 68.122C81.133 68.122 82.5767 66.672 82.5767 64.8833C82.5767 63.0946 81.133 61.6445 79.3521 61.6445C77.5712 61.6445 76.1274 63.0946 76.1274 64.8833C76.1274 66.672 77.5712 68.122 79.3521 68.122Z" fill="#469BB1"/>
<path d="M79.3523 67.5729C80.8314 67.5729 82.0303 66.3687 82.0303 64.8832C82.0303 63.3977 80.8314 62.1935 79.3523 62.1935C77.8733 62.1935 76.6743 63.3977 76.6743 64.8832C76.6743 66.3687 77.8733 67.5729 79.3523 67.5729Z" fill="#E8F5FF"/>
<path d="M93.8773 85.5022C93.6546 85.5026 93.4321 85.4908 93.2107 85.4671C90.0909 85.6516 87.0175 84.6414 84.61 82.6401C81.4438 79.9621 79.6473 75.6338 79.2773 69.7706L79.9439 69.7288C80.3006 75.4028 82.0137 79.5755 85.04 82.1296C88.7362 85.2512 93.134 84.8076 93.1774 84.8076H93.214H93.2507C93.9767 84.9017 94.7146 84.8301 95.4093 84.5983C96.104 84.3665 96.7378 83.9803 97.2635 83.4686C100.295 80.635 101.203 74.037 101.065 70.5439C100.898 66.6089 102.313 55.3478 103.998 53.115C105.473 51.1584 106.387 42.3394 106.397 42.2507L106.422 41.9996L106.669 41.9561C106.684 41.9561 108.124 41.6816 108.304 40.6003C108.537 39.191 112.72 35.5071 113.195 35.0903L113.63 35.5925C111.902 37.0988 109.104 39.8237 108.964 40.7091C108.76 41.9343 107.566 42.403 107.039 42.5503C106.872 44.0165 105.994 51.5735 104.539 53.5134C103.05 55.4901 101.565 66.3461 101.731 70.5121C101.875 74.124 100.913 80.9664 97.7185 83.9523C96.6898 84.9546 95.3104 85.5112 93.8773 85.5022Z" fill="#353146"/>
<g opacity="0.1">
<path opacity="0.1" d="M120.996 17.151C121.269 16.1367 121.599 15.1157 121.829 14.088C121.554 15.1207 121.222 16.1367 120.996 17.151Z" fill="black"/>
<path opacity="0.1" d="M118.208 25.1215C117.874 24.3867 118.053 23.5364 118.059 22.7297C118.066 21.9229 117.769 20.9789 116.996 20.753C115.45 20.3195 114.383 23.2167 112.863 22.6929C111.697 22.2928 112.005 20.517 111.332 19.491C110.8 18.6775 109.735 18.4499 108.909 17.9411C107.146 16.8548 107.199 15.1174 106.382 13.4738C105.524 11.7498 103.716 12.2586 102.143 13.2763C100.948 14.0496 99.9199 15.0856 98.6434 15.7032C97.5385 16.2372 96.297 16.4313 95.0721 16.4598C93.5806 16.4949 91.9575 16.2288 90.9326 15.1409C90.1427 14.304 89.8577 13.0771 90.0211 11.9272C89.9927 12.0059 89.9677 12.0846 89.9427 12.1632C89.5428 13.4805 89.7761 15.0287 90.711 16.0296C91.7358 17.1176 93.359 17.382 94.8505 17.3485C96.077 17.3201 97.3168 17.1259 98.4234 16.592C99.7032 15.9727 100.731 14.9383 101.923 14.1651C103.496 13.1474 105.306 12.6386 106.162 14.3626C106.979 16.0062 106.927 17.7436 108.689 18.8298C109.522 19.332 110.58 19.5663 111.114 20.3797C111.78 21.4091 111.485 23.1816 112.645 23.5816C114.163 24.1038 115.23 21.2082 116.776 21.6417C117.549 21.8593 117.848 22.8134 117.839 23.6184C117.831 24.4235 117.658 25.2755 117.988 26.0102C119.269 25.9517 120.854 25.6755 121.226 24.4369C121.277 24.2592 121.3 24.0746 121.296 23.8896C120.754 24.8286 119.361 25.0696 118.208 25.1215Z" fill="black"/>
</g>
<path opacity="0.1" d="M148.326 66.3628L150.26 68.4182C150.26 68.4182 151.809 79.7445 152.582 80.804C153.355 81.8635 155.181 86.078 153.467 89.2431C153.467 89.2431 152.913 90.9654 153.245 91.6868C153.577 92.4081 150.759 96.0184 150.759 96.0184C150.759 96.0184 147.054 99.3492 146.279 99.8497C145.504 100.35 141.415 104.347 140.033 104.402C138.652 104.458 138.2 106.18 138.2 106.18L130.404 106.458C130.404 106.458 126.098 106.232 125.162 106.843C125.162 106.843 125.662 100.235 120.851 95.903L126.987 93.6819C126.987 93.6819 129.31 92.6776 130.028 91.6282C130.48 90.9848 131.121 90.4996 131.861 90.2406C131.861 90.2406 133.574 89.0188 133.629 88.3526C133.684 87.6865 135.724 86.8697 135.724 86.8697L134.569 76.9694L135.177 60.5331C135.177 60.5331 137.112 46.7614 141.203 47.5397C145.294 48.318 148.326 66.3628 148.326 66.3628Z" fill="black"/>
<path d="M148.992 66.3628L150.927 68.4182C150.927 68.4182 152.475 79.7445 153.248 80.804C154.022 81.8635 155.848 86.078 154.133 89.2431C154.133 89.2431 153.582 90.9654 153.913 91.6868C154.245 92.4081 151.425 96.0184 151.425 96.0184C151.425 96.0184 147.721 99.3492 146.946 99.8497C146.171 100.35 142.081 104.347 140.7 104.402C139.318 104.458 138.867 106.18 138.867 106.18L131.071 106.458C131.071 106.458 126.761 106.232 125.828 106.843C125.828 106.843 126.328 100.235 121.517 95.903L127.653 93.6819C127.653 93.6819 129.976 92.6776 130.694 91.6282C131.146 90.9848 131.787 90.4996 132.527 90.2406C132.527 90.2406 134.241 89.0188 134.296 88.3526C134.351 87.6865 136.39 86.8697 136.39 86.8697L135.235 76.9694L135.844 60.5331C135.844 60.5331 137.778 46.7614 141.87 47.5397C145.961 48.318 148.992 66.3628 148.992 66.3628Z" fill="#E8F5FF"/>
<path opacity="0.1" d="M141.8 82.9665C141.8 82.9665 147.494 81.4601 148.987 83.3012C150.48 85.1423 141.8 82.9665 141.8 82.9665Z" fill="black"/>
<path opacity="0.1" d="M140.473 85.4922C142.408 86.853 148.379 86.9082 148.379 86.9082L140.473 85.4922Z" fill="black"/>
<path opacity="0.1" d="M143.403 92.2943C143.569 92.3495 147.507 96.5708 149.16 95.2937C150.814 94.0166 143.403 92.2943 143.403 92.2943Z" fill="black"/>
<path opacity="0.1" d="M90.3691 56.8676C90.3691 56.8676 91.5257 64.8648 90.9557 68.1219C90.3858 71.379 92.4656 75.4145 92.4656 75.4145L90.3691 56.8676Z" fill="black"/>
<path d="M64.7655 60.1198C63.4324 61.1692 62.4592 63.6531 61.7542 66.383C60.5244 71.1448 60.1228 76.6665 60.1228 76.6665C60.1228 76.6665 49.5074 74.2228 50.2806 73.1131C50.7672 72.4152 50.114 67.1562 49.569 63.3434C49.2441 61.0905 48.9541 59.3415 48.9541 59.3415C48.9541 59.3415 68.4151 57.2308 64.7655 60.1198Z" fill="#FFCCD0"/>
<path opacity="0.1" d="M64.7655 59.8971C63.4324 60.9482 62.4592 63.4304 61.7542 66.1603C59.6392 66.8053 57.3899 66.8635 55.2446 66.3287C53.0994 65.7939 51.1382 64.686 49.569 63.1224C49.2441 60.8679 48.9541 59.1188 48.9541 59.1188C48.9541 59.1188 68.4151 57.0099 64.7655 59.8971Z" fill="black"/>
<path d="M70.4716 53.9151C70.4727 56.8263 69.4484 59.644 67.5799 61.8696C65.7114 64.0952 63.1192 65.5851 60.2622 66.0757C57.4051 66.5663 54.4673 66.0258 51.9688 64.5501C49.4703 63.0744 47.5722 60.7584 46.6103 58.0122C45.6485 55.266 45.6849 52.2665 46.7132 49.5447C47.7415 46.8228 49.6954 44.5541 52.229 43.1401C54.7626 41.726 57.7126 41.2578 60.5569 41.8182C63.4012 42.3787 65.9564 43.9317 67.7703 46.2024C69.5182 48.3898 70.4711 51.1104 70.4716 53.9151Z" fill="#FFCCD0"/>
<path opacity="0.1" d="M80.1502 131.002H76.6506L76.3557 124.794L76.0474 118.368C76.0474 118.368 76.8423 118.249 78.1088 118.072L78.6204 118.003H78.662C78.9387 119.307 79.212 120.646 79.4753 121.983C79.9136 124.358 80.1416 126.766 80.1569 129.181C80.1569 129.348 80.1569 129.515 80.1569 129.673C80.1669 130.12 80.1569 130.567 80.1502 131.002Z" fill="black"/>
<path d="M79.4789 131.002H35.5908C35.7808 130.568 35.9074 130.305 35.9074 130.305C35.9074 130.305 39.4187 114.877 41.2035 108.349C41.204 108.343 41.204 108.338 41.2035 108.332C41.4265 107.446 41.6957 106.571 42.0101 105.713C42.0304 105.654 42.0566 105.598 42.0884 105.545C42.9716 104.103 44.0781 102.548 42.53 100.327C40.9818 98.1056 41.5301 88.3325 41.5301 88.3325C41.5301 88.3325 43.4099 80.0022 45.3996 75.5601C45.7016 74.872 46.1302 74.2474 46.6628 73.719C46.836 73.5488 47.0209 73.3911 47.2161 73.247C47.3645 73.1349 47.5192 73.0315 47.6794 72.9373L47.711 72.9172C48.5469 72.4412 49.4751 72.1518 50.4324 72.0686C51.1124 71.9972 51.7988 72.0164 52.4738 72.1255C55.7001 72.6009 58.2831 73.3959 60.3362 74.3014C65.9005 76.7568 67.5853 80.0474 67.6187 80.1161L67.632 80.1445C67.8553 80.6684 71.1216 88.3275 72.2981 91.901C72.6031 92.8316 72.7697 93.486 72.703 93.6651C72.3697 94.5522 75.2461 105.658 75.2461 105.658C75.2461 105.658 76.5792 111.014 77.9124 117.292C77.9707 117.553 78.0257 117.814 78.0791 118.079C78.3174 119.218 78.554 120.38 78.7823 121.54C79.2247 123.93 79.4528 126.356 79.4639 128.787C79.4883 129.545 79.4933 130.283 79.4789 131.002Z" fill="#FF748E"/>
<path opacity="0.1" d="M50.1708 68.2492C50.1708 68.2492 47.1429 67.0776 47.1795 68.8551C47.2162 70.6326 47.9178 71.4829 47.6961 71.7423C47.4745 72.0018 47.8061 73.5567 47.8061 73.5567C47.8061 73.5567 51.8973 73.5567 53.7771 74.407C55.6569 75.2572 62.586 76.9611 63.4709 77.48C64.3558 77.9989 67.6371 80.3254 67.6371 80.3254L67.932 75.92C67.932 75.92 64.5408 73.1065 58.9765 71.6637C53.4121 70.2209 50.1708 68.2492 50.1708 68.2492Z" fill="black"/>
<path d="M50.1708 68.0266C50.1708 68.0266 47.1429 66.8549 47.1795 68.6325C47.2162 70.41 47.9178 71.2603 47.6961 71.5197C47.4745 71.7791 47.8061 73.334 47.8061 73.334C47.8061 73.334 51.8973 73.334 53.7771 74.186C55.6569 75.0379 62.586 76.7401 63.4709 77.2573C64.3558 77.7745 67.6371 80.1027 67.6371 80.1027L67.9354 75.7108C67.9354 75.7108 64.5441 72.8972 58.9798 71.4544C53.4154 70.0116 50.1708 68.0266 50.1708 68.0266Z" fill="#FF748E"/>
<path opacity="0.1" d="M59.311 78.6282C59.311 78.6282 65.097 84.9198 64.802 86.6622C64.5071 88.4046 59.311 78.6282 59.311 78.6282Z" fill="black"/>
<path opacity="0.1" d="M49.9124 101.356C49.9124 101.356 45.6713 105.281 44.4214 105.504C43.1716 105.726 45.3796 106.466 46.8161 105.875C48.2526 105.284 51.3156 103.729 51.3156 103.729L49.9124 101.356Z" fill="black"/>
<path d="M81.202 131.002H71.3115C69.9284 129.797 68.6202 128.68 67.7869 128.009C66.4538 126.934 65.4922 125.353 64.879 124.081C64.7406 123.791 64.6207 123.52 64.519 123.274C64.337 122.85 64.1768 122.417 64.0391 121.977L71.3632 117.608C71.768 117.954 72.1483 118.328 72.5014 118.726L72.5897 118.828C72.9963 119.31 73.3546 119.858 73.3863 120.306C73.4229 120.829 74.8694 122.849 76.3476 124.789C77.8474 126.762 79.3839 128.648 79.4855 128.776C79.4855 128.776 79.7388 129.122 80.1521 129.654C80.4438 130.039 80.8037 130.501 81.202 131.002Z" fill="#FFCCD0"/>
<path opacity="0.1" d="M67.7702 46.2024C67.4186 46.9991 67.1036 47.826 67.0569 48.713C66.9253 51.2739 67.1386 56.9998 64.3156 58.2853C62.9174 58.9179 61.4209 57.5287 59.8878 57.4952C58.7846 57.4718 57.7731 58.1748 57.0998 59.0535C56.4265 59.9322 56.0083 60.975 55.52 61.9692C55.0755 62.8716 54.5636 63.7389 53.9885 64.5635C53.8166 64.8159 53.6273 65.0558 53.4219 65.2816C51.7006 64.552 50.1677 63.4375 48.9402 62.0228C47.7127 60.6082 46.8228 58.9308 46.3385 57.1184C45.8542 55.3061 45.7882 53.4066 46.1455 51.5647C46.5028 49.7228 47.274 47.9872 48.4004 46.49C49.5267 44.9928 50.9784 43.7736 52.6449 42.9253C54.3114 42.077 56.1488 41.622 58.0169 41.5949C59.885 41.5678 61.7347 41.9694 63.4249 42.769C65.1151 43.5686 66.6013 44.7452 67.7702 46.2091V46.2024Z" fill="black"/>
<path d="M66.8356 48.2611C66.7023 50.8219 66.9172 56.5479 64.0926 57.8316C62.6944 58.4643 61.1979 57.0768 59.6648 57.0433C58.5616 57.0182 57.5517 57.7228 56.8768 58.5999C56.2018 59.4769 55.7869 60.5214 55.297 61.5173C54.8523 62.4196 54.3404 63.2868 53.7655 64.1116C53.4222 64.6003 53.0422 65.0907 52.514 65.3652C51.5941 65.8473 50.4792 65.5761 49.4926 65.2665C48.2128 64.8614 46.9518 64.405 45.7098 63.8973C45.7383 63.709 45.7528 63.5188 45.7531 63.3283C45.7164 63.3986 45.6764 63.4638 45.6364 63.5341L45.5581 63.6714C45.4165 63.9224 45.2782 64.1735 45.1515 64.4313C45.1032 64.53 45.0565 64.6321 45.0149 64.7342C44.8473 65.1142 44.742 65.5189 44.7032 65.9326C44.6182 67.049 45.1665 68.1085 45.6531 69.1128C47.5246 72.9976 48.6811 77.5401 47.2729 81.6157C46.663 83.3882 45.6065 84.9632 44.8349 86.6755C43.4861 89.7082 43.0891 93.0815 43.6967 96.3465C44.0816 98.3751 44.8532 100.384 44.6632 102.441C44.3299 105.981 41.2903 108.615 38.2457 110.426C36.6009 111.4 34.5878 112.267 32.8413 111.497C33.9545 110.192 34.2411 108.386 34.4811 106.682C35.1377 102.034 35.796 97.3848 36.4559 92.7328C36.7192 90.8817 36.9819 89.0305 37.2441 87.1793C37.7341 83.7012 38.2307 80.1847 37.924 76.6848C37.7007 74.1056 37.0708 71.3673 38.184 69.0324C38.7723 67.7955 39.8205 66.7712 40.1471 65.4389C40.4154 64.3559 40.1654 63.2044 40.3421 62.1014C40.4388 61.5996 40.6024 61.1131 40.8287 60.6553C41.1168 60.034 41.4928 59.4578 41.9452 58.9447C41.4986 58.8141 41.082 58.635 40.8287 58.2601C41.5453 57.7915 41.6536 56.7353 41.3286 55.942C41.0037 55.1486 40.3537 54.5444 39.7688 53.9184C39.1839 53.2924 38.6206 52.5626 38.5473 51.709C38.4056 50.0838 40.0221 48.8251 40.3071 47.2217C40.5954 45.5898 39.4555 44.003 39.5472 42.351C39.6538 40.3543 41.4803 38.9031 43.2834 38.0612C46.0044 36.7961 49.0101 36.2764 51.9957 36.5548C54.4254 36.7858 56.7768 37.5407 59.1998 37.8336C60.6613 38.001 62.1428 38.0177 63.5943 38.2754C65.0458 38.5332 66.5006 39.0772 67.5222 40.1467C70.2152 42.967 66.9889 45.2885 66.8356 48.2611Z" fill="#FFE0D0"/>
<path opacity="0.1" d="M64.5823 124.082C63.7324 123.712 62.186 123.933 59.5313 123.122C56.8766 122.31 56.365 118.641 56.365 118.641V118.629C56.3333 118.546 56.0867 118 54.4169 116.088C52.5721 113.978 48.5843 103.318 48.5843 103.318C48.5843 103.318 45.048 99.5032 45.1597 98.0973C45.2713 96.6913 44.5314 92.9505 44.6047 88.7661C44.6781 84.5817 52.5654 81.8066 52.5654 81.8066C67.752 79.1035 64.1757 96.6879 63.7708 98.0203C63.3658 99.3526 65.4672 102.951 65.4672 102.951C65.1706 104.518 66.6838 106.943 66.6838 106.943C66.6838 106.943 67.0504 109.089 67.1254 109.904C67.1295 109.942 67.1379 109.979 67.1504 110.014C67.3937 110.783 69.3768 111.479 70.1833 111.902C71.0316 112.348 73.7596 116.234 73.7596 116.234C74.3478 119.088 65.4289 124.457 64.5823 124.082Z" fill="black"/>
<path d="M65.0241 123.413C64.1758 123.041 62.6277 123.264 59.9747 122.45C57.3216 121.637 56.8084 117.971 56.8084 117.971V117.96C56.7784 117.874 56.5301 117.33 54.8603 115.419C53.0155 113.308 49.0276 102.647 49.0276 102.647C49.0276 102.647 45.4914 98.8337 45.6014 97.4278C45.7114 96.0218 44.9748 92.281 45.0481 88.0999C45.1214 83.9189 53.0038 81.1454 53.0038 81.1454C68.1903 78.4423 64.6141 96.0268 64.2092 97.3591C63.8042 98.6915 65.9056 102.29 65.9056 102.29C65.609 103.857 67.1221 106.282 67.1221 106.282C67.1221 106.282 67.4888 108.428 67.5654 109.243C67.5682 109.281 67.5761 109.318 67.5887 109.353C67.832 110.122 69.8151 110.818 70.6234 111.241C71.4699 111.685 74.1996 115.573 74.1996 115.573C74.7912 118.422 65.8723 123.791 65.0241 123.413Z" fill="#FF748E"/>
<path opacity="0.1" d="M53.3037 90.326C53.3037 90.326 59.9379 97.3558 61.6694 97.3558C63.4008 97.3558 53.3037 90.326 53.3037 90.326Z" fill="black"/>
<path d="M65.0238 123.413C64.1756 123.041 62.6274 123.264 59.9744 122.45C57.3214 121.637 56.8081 117.971 56.8081 117.971V117.96C58.5662 116.788 63.019 113.479 64.7738 112.269C66.0087 111.42 67.0169 110.173 67.6068 109.347C67.8501 110.115 69.8332 110.811 70.6415 111.235C71.488 111.678 74.2177 115.566 74.2177 115.566C74.791 118.422 65.872 123.791 65.0238 123.413Z" fill="#FF748E"/>
<g opacity="0.1">
<path opacity="0.1" d="M40.8389 58.2786C40.8472 58.292 40.8589 58.3037 40.8689 58.3171C40.9189 58.2535 40.9705 58.1899 41.0238 58.1296C40.967 58.1851 40.9051 58.235 40.8389 58.2786Z" fill="black"/>
<path opacity="0.1" d="M44.7049 65.9512C44.7749 65.0222 45.2698 64.2038 45.7331 63.387C45.4298 63.2698 45.1265 63.151 44.8265 63.0271C44.8551 62.8393 44.8696 62.6497 44.8699 62.4597C44.4016 63.2966 43.8917 64.1201 43.82 65.0624C43.735 66.1805 44.2833 67.2383 44.7699 68.2426C46.643 72.1257 47.7979 76.6683 46.3897 80.7455C45.7781 82.5164 44.7232 84.093 43.9516 85.8053C42.6034 88.8375 42.2069 92.2104 42.8151 95.4746C43.1967 97.5049 43.97 99.5117 43.78 101.569C43.4467 105.109 40.4087 107.743 37.3624 109.553C36.1176 110.292 34.6628 110.97 33.2713 110.922C33.1425 111.13 32.9988 111.329 32.8413 111.516C34.5894 112.291 36.6009 111.419 38.2457 110.441C41.2936 108.634 44.3383 106.006 44.6716 102.459C44.8615 100.402 44.0883 98.3953 43.705 96.365C43.0966 93.1011 43.4919 89.7285 44.8382 86.6957C45.6048 84.9852 46.6713 83.4068 47.2762 81.636C48.6844 77.5587 47.5279 73.0161 45.6564 69.133C45.1715 68.122 44.6199 67.0692 44.7049 65.9512Z" fill="black"/>
<path opacity="0.1" d="M67.519 40.1669C67.3551 39.998 67.1791 39.8414 66.9924 39.6982C69.0122 42.3294 66.0959 44.5655 65.9509 47.3975C65.8209 49.9584 66.0342 55.686 63.2095 56.9681C61.813 57.6024 60.3149 56.2132 58.7834 56.1797C57.6785 56.1563 56.6686 56.861 55.9937 57.738C55.3188 58.6151 54.9039 59.6595 54.4156 60.6537C53.9701 61.5559 53.4576 62.4232 52.8824 63.248C52.5491 63.7384 52.1592 64.2272 51.6293 64.5033C50.7127 64.9837 49.5978 64.7142 48.6096 64.4029C47.6486 64.0994 46.6965 63.7647 45.7533 63.3987C45.7513 63.573 45.7369 63.747 45.71 63.9192C46.9531 64.428 48.2147 64.8844 49.4945 65.2883C50.4811 65.5996 51.5959 65.8691 52.5141 65.3888C53.0424 65.1126 53.4257 64.6222 53.7673 64.1318C54.3429 63.3081 54.8549 62.4413 55.2988 61.5391C55.7888 60.5449 56.202 59.4988 56.8786 58.6217C57.5552 57.7447 58.5634 57.0417 59.6666 57.0652C61.1998 57.0986 62.6979 58.4879 64.0944 57.8535C66.9191 56.5714 66.7041 50.8438 66.8358 48.2829C66.9891 45.3053 70.2154 42.9855 67.519 40.1669Z" fill="black"/>
</g>
<path opacity="0.1" d="M45.5595 63.673C45.4179 63.9241 45.2795 64.1752 45.1529 64.4329C45.1046 64.5317 45.0579 64.6338 45.0162 64.7359C44.143 63.8521 42.0166 61.7516 40.8301 61.1005C41.1186 60.4794 41.4946 59.9033 41.9466 59.3899C41.9466 59.3899 44.7746 60.8913 45.5595 63.673Z" fill="black"/>
<path d="M45.6378 63.5359C44.9829 60.5582 41.9466 58.9464 41.9466 58.9464C41.4942 59.4595 41.1182 60.0357 40.8301 60.657C42.0816 61.3449 44.388 63.6513 45.1529 64.433L45.6378 63.5359Z" fill="#FF748E"/>
</g>
<defs>
<linearGradient id="paint0_linear_170_648" x1="121.657" y1="15.9693" x2="121.657" y2="12.8929" gradientUnits="userSpaceOnUse">
<stop stop-color="#808080" stop-opacity="0.25"/>
<stop offset="0.54" stop-color="#808080" stop-opacity="0.12"/>
<stop offset="1" stop-color="#808080" stop-opacity="0.1"/>
</linearGradient>
<linearGradient id="paint1_linear_170_648" x1="93.7937" y1="131.002" x2="93.7937" y2="-2.60194e-05" gradientUnits="userSpaceOnUse">
<stop stop-color="#808080" stop-opacity="0.25"/>
<stop offset="0.54" stop-color="#808080" stop-opacity="0.12"/>
<stop offset="1" stop-color="#808080" stop-opacity="0.1"/>
</linearGradient>
<clipPath id="clip0_170_648">
<rect width="181" height="131" fill="white"/>
</clipPath>
</defs>
</svg>
