<svg width="562" height="415" viewBox="0 0 562 415" fill="none" xmlns="http://www.w3.org/2000/svg">
<g clip-path="url(#clip0_171_1435)">
<path opacity="0.1" d="M36.7828 162.658H85.6276V229.189H40.3542C40.2387 229.876 40.1232 230.559 39.9932 231.247H85.6276V284.893C85.5506 284.893 85.4736 284.835 85.4014 284.806C84.1179 284.296 82.8343 283.756 81.5508 283.185C81.2765 283.06 81.0069 282.93 80.7277 282.81C79.4442 282.204 78.1607 281.563 76.8771 280.886C76.4295 280.651 75.9819 280.405 75.5439 280.155C68.4182 276.182 61.9418 271.145 56.339 265.217C56.1705 265.058 56.0165 264.885 55.8577 264.736C55.0779 263.889 54.3126 263.033 53.5714 262.158C53.2922 261.836 53.0227 261.509 52.7483 261.196C51.8723 260.128 51.0252 259.022 50.2069 257.911C50.0818 257.743 49.9663 257.579 49.8459 257.43C46.494 252.795 43.7143 247.773 41.5671 242.472C41.4997 242.314 41.4372 242.141 41.3746 241.992C40.7104 240.308 40.1087 238.601 39.5889 236.86C39.3675 236.134 39.1509 235.417 38.968 234.662C38.9006 234.445 38.8476 234.224 38.7899 234.008C36.0848 223.355 35.772 212.283 35.772 201.264C35.772 199.982 35.772 198.699 35.772 197.417C35.8105 192.918 35.8634 188.425 35.9308 183.936C35.9565 182.781 35.9805 181.622 36.003 180.458C36.0704 177.512 36.1667 174.559 36.2918 171.599C36.3207 170.782 36.3592 169.959 36.4025 169.146C36.4218 168.675 36.4458 168.204 36.4747 167.732C36.5613 166.03 36.664 164.338 36.7828 162.658Z" fill="#469BB1"/>
<path opacity="0.1" d="M85.6279 88.582H58.8325C63.1902 81.774 67.9493 75.2311 73.0846 68.9879C77.0699 64.1014 81.2671 59.34 85.6279 54.7517V88.582Z" fill="#469BB1"/>
<path opacity="0.1" d="M85.6279 90.6309V160.6H36.937C36.937 160.398 36.9659 160.191 36.9851 159.989C37.0285 159.436 37.0718 158.888 37.1199 158.335C37.168 157.69 37.2306 157.046 37.2932 156.411C37.3558 155.776 37.4183 155.006 37.4953 154.309C37.5724 153.612 37.6349 152.905 37.7119 152.207C37.789 151.51 37.866 150.813 37.9526 150.12C38.0392 149.427 38.1163 148.725 38.2125 148.033C38.2847 147.46 38.3569 146.883 38.4387 146.306C38.5494 145.493 38.665 144.68 38.7853 143.872C38.7853 143.747 38.8238 143.627 38.8431 143.507C39.7227 137.592 40.9181 131.729 42.4241 125.942C44.0056 119.873 46.0244 113.926 48.4647 108.147C51.0578 102.093 54.0952 96.2379 57.5522 90.6309H85.6279Z" fill="#469BB1"/>
<path opacity="0.1" d="M97.2949 162.658V229.189H201.627V162.658H97.2949ZM97.2949 231.247V288.384C97.8918 288.504 98.479 288.625 99.071 288.726C99.8652 288.88 100.664 289.019 101.478 289.139L101.959 289.207C102.277 289.26 102.599 289.303 102.922 289.341C103.725 289.457 104.529 289.543 105.328 289.62C105.704 289.659 106.094 289.688 106.474 289.721L107.403 289.789C107.908 289.827 108.409 289.856 108.909 289.875C109.217 289.875 109.525 289.899 109.838 289.909C110.151 289.918 110.32 289.909 110.57 289.909H111.48C111.894 289.909 112.307 289.909 112.717 289.909H113.246C113.66 289.909 114.074 289.909 114.483 289.87H114.507C114.796 289.87 115.08 289.87 115.369 289.837C115.45 289.841 115.532 289.841 115.614 289.837C115.855 289.837 116.095 289.837 116.327 289.808C116.381 289.803 116.436 289.803 116.49 289.808C117.024 289.774 117.564 289.731 118.107 289.683C118.651 289.635 119.166 289.577 119.71 289.519L120.803 289.385C125.268 288.76 129.683 287.821 134.015 286.576C143.752 283.863 153.268 280.069 163.001 277.293C175.573 273.71 189.473 271.945 201.622 276.307V231.247H97.2949ZM201.627 88.5819V0.0095721C190.206 -0.115991 178.815 1.21743 167.732 3.97743C141.312 10.6098 117.588 24.9951 97.2949 43.3675V88.5771H102.546V90.6308H97.2949V160.6H201.627V90.6308H124.028V88.5723L201.627 88.5819ZM335.666 58.6618C329.13 58.4309 322.632 56.3677 316.75 53.1693C305.516 47.066 296.535 37.6297 286.504 29.6748C265.662 13.0963 239.815 3.08767 213.299 0.605954V88.5819H362.226L362.597 88.1923L335.666 58.6618ZM349.235 56.257L363.622 72.0371V52.1064C358.78 52.7172 354.563 54.136 349.235 56.2378V56.257ZM363.622 302.572V231.247H332.942C332.865 230.944 332.778 230.636 332.682 230.328C332.774 230.636 332.855 230.944 332.937 231.247H213.299V282.824C214.435 283.666 215.557 284.556 216.668 285.45C217.868 286.432 219.061 287.424 220.245 288.428L221.438 289.413C222.011 289.894 222.593 290.375 223.171 290.832C224.329 291.765 225.496 292.689 226.67 293.603C227.258 294.064 227.848 294.518 228.442 294.964C237.843 302.143 247.759 308.623 258.11 314.351C260.43 315.645 262.774 316.89 265.133 318.107C266.702 318.915 268.282 319.707 269.874 320.483C272.261 321.647 274.668 322.769 277.094 323.85C299.459 333.881 323.109 340.764 347.367 344.3C352.752 345.092 358.16 345.717 363.593 346.176V302.563H364.074L363.622 302.572ZM213.299 90.6308V160.6H363.622V90.6308H213.299ZM213.299 162.649V229.189H363.622V162.658L213.299 162.649ZM375.289 52.0102V74.2784L393.647 54.1408C387.563 53.1373 381.444 52.427 375.289 52.0102ZM375.289 162.658V229.189H521.492V162.658H375.289ZM520.977 307.848L521.492 231.247H375.289V346.95C384.706 347.341 394.138 347.227 403.543 346.608H403.706C408.199 346.32 412.67 345.909 417.121 345.377H417.222C440.973 342.615 464.196 336.416 486.162 326.976L520.977 307.848ZM549.697 173.586C549.142 172.303 548.572 171.02 547.988 169.738C546.901 167.333 545.755 164.996 544.571 162.663H533.164V229.189H562C561.976 210.345 557.201 191.107 549.697 173.586ZM533.164 231.247V297.138C541.284 289.361 548.152 280.458 553.091 270.281C559.035 258.022 561.754 244.757 561.981 231.242L533.164 231.247ZM533.164 143.271V160.585H543.503C540.368 154.633 536.917 148.854 533.164 143.271ZM434.011 65.0681C433.25 64.7747 432.485 64.4813 431.72 64.2024C423.65 61.2225 415.404 58.7456 407.028 56.7861L378.928 87.5959L378.379 88.1875L378.74 88.5771H478.75C464.82 78.9994 449.802 71.1079 434.011 65.0681ZM481.686 90.6308H377.339L375.289 92.5017V160.6H393.267H521.492V127.606C509.897 113.596 496.515 101.165 481.686 90.6308Z" fill="#469BB1"/>
<path opacity="0.1" d="M85.6279 125.928V160.6H36.937C36.937 160.398 36.9659 160.191 36.9851 159.989C37.0285 159.436 37.0718 158.888 37.1199 158.335C37.168 157.69 37.2306 157.046 37.2932 156.411C37.3558 155.776 37.4183 155.006 37.4953 154.309C37.5724 153.612 37.6349 152.905 37.7119 152.207C37.789 151.51 37.866 150.812 37.9526 150.12C38.0392 149.427 38.1163 148.725 38.2125 148.033C38.2847 147.46 38.3569 146.883 38.4387 146.306C38.5494 145.493 38.665 144.68 38.7853 143.872C38.7853 143.747 38.8238 143.627 38.8431 143.507C39.7227 137.592 40.9181 131.729 42.4241 125.942L85.6279 125.928Z" fill="#469BB1"/>
<path opacity="0.1" d="M36.7828 162.658H85.6276V229.189H40.3542C40.2387 229.876 40.1232 230.559 39.9932 231.247H85.6276V284.893C85.5506 284.893 85.4736 284.835 85.4014 284.806C84.1179 284.296 82.8343 283.756 81.5508 283.185C81.2765 283.06 81.0069 282.93 80.7277 282.81C79.4442 282.204 78.1607 281.563 76.8771 280.886C76.4295 280.651 75.9819 280.405 75.5439 280.155C68.4182 276.182 61.9418 271.145 56.339 265.217C56.1705 265.058 56.0165 264.885 55.8577 264.736C55.0779 263.889 54.3126 263.033 53.5714 262.158C53.2922 261.836 53.0227 261.509 52.7483 261.196C51.8723 260.128 51.0252 259.022 50.2069 257.911C50.0818 257.743 49.9663 257.579 49.8459 257.43C46.494 252.795 43.7143 247.773 41.5671 242.472C41.4997 242.314 41.4372 242.141 41.3746 241.992C40.7104 240.308 40.1087 238.601 39.5889 236.86C39.3675 236.134 39.1509 235.417 38.968 234.662C38.9006 234.445 38.8476 234.224 38.7899 234.008C36.0848 223.355 35.772 212.283 35.772 201.264C35.772 199.982 35.772 198.699 35.772 197.417C35.8105 192.918 35.8634 188.425 35.9308 183.936C35.9565 182.781 35.9805 181.622 36.003 180.458C36.0704 177.512 36.1667 174.559 36.2918 171.599C36.3207 170.782 36.3592 169.959 36.4025 169.146C36.4218 168.675 36.4458 168.204 36.4747 167.732C36.5613 166.03 36.664 164.338 36.7828 162.658Z" fill="#469BB1"/>
<path opacity="0.1" d="M134.02 100.654V160.6H97.29V100.654H102.527V80.3577H124.023V100.654H134.02Z" fill="#469BB1"/>
<path opacity="0.1" d="M134.015 162.654H97.29V229.184H134.015V162.654Z" fill="#469BB1"/>
<path opacity="0.1" d="M97.2949 231.247H134.02V286.557C129.688 287.803 125.273 288.74 120.808 289.361C120.442 289.414 120.081 289.457 119.715 289.495C119.176 289.558 118.642 289.616 118.107 289.664L116.495 289.793H116.331L115.619 289.832H115.373C115.085 289.832 114.801 289.866 114.512 289.87H114.488C114.074 289.87 113.665 289.899 113.251 289.909H112.721C112.312 289.909 111.903 289.909 111.484 289.909H110.579H109.843C109.53 289.909 109.222 289.909 108.909 289.87C108.415 289.851 107.915 289.822 107.408 289.784L106.479 289.717C106.094 289.688 105.708 289.649 105.328 289.611C104.52 289.54 103.717 289.449 102.922 289.337L101.959 289.202L101.478 289.135C100.674 289.014 99.8748 288.88 99.071 288.726C98.4742 288.62 97.887 288.5 97.2949 288.375V231.247Z" fill="#469BB1"/>
<path opacity="0.1" d="M363.617 93.5742H333.332V160.595H363.617V93.5742Z" fill="#469BB1"/>
<path opacity="0.1" d="M363.622 162.654V229.189H213.299V200.49H293.368V217.42H333.332V162.654H363.622Z" fill="#469BB1"/>
<path opacity="0.1" d="M364.098 302.587C363.94 302.587 363.781 302.587 363.617 302.558V346.204C358.191 345.759 352.784 345.135 347.396 344.334C323.13 340.799 299.47 333.92 277.094 323.893C270.635 320.982 264.307 317.809 258.111 314.375C247.763 308.644 237.848 302.164 228.447 294.988C226.078 293.179 223.746 291.331 221.448 289.442C219.855 288.125 218.276 286.778 216.669 285.474C215.562 284.575 214.44 283.685 213.299 282.839V231.247H332.937C332.851 230.939 332.774 230.636 332.687 230.328C332.779 230.636 332.865 230.939 332.942 231.247H363.622V302.553C363.781 302.558 363.94 302.572 364.098 302.587Z" fill="#469BB1"/>
<path opacity="0.1" d="M442.607 88.5819H422.873V82.4546H431.715V64.2024C432.482 64.4846 433.246 64.7731 434.006 65.0681V82.4546H442.603L442.607 88.5819Z" fill="#469BB1"/>
<path opacity="0.1" d="M490.157 160.6H393.267C393.276 160.602 393.286 160.602 393.295 160.6H393.252H375.289V93.5791H380.381V143.117H403.649V113.779H422.878V90.6309H442.612V113.794H461.831V143.132H490.162L490.157 160.6Z" fill="#469BB1"/>
<path opacity="0.1" d="M375.289 162.658V229.189H490.162V162.658H375.289ZM521.328 307.497L521.492 254.833H490.162V231.266H375.289V346.95C384.706 347.341 394.138 347.227 403.543 346.608H403.706C408.199 346.32 412.67 345.909 417.121 345.377H417.222C440.973 342.615 464.196 336.416 486.162 326.976" fill="#469BB1"/>
<path opacity="0.1" d="M535.186 231.247H561.981C561.75 244.757 559.035 258.027 553.091 270.281C548.153 280.463 541.284 289.365 533.164 297.142V254.819H535.186V231.247Z" fill="#469BB1"/>
<path opacity="0.1" d="M562 229.189H535.186V173.586H549.698C557.201 191.107 561.976 210.345 562 229.189Z" fill="#469BB1"/>
<path opacity="0.1" d="M363.622 112.206H347.396V133.219H363.622V112.206Z" fill="#469BB1"/>
<path opacity="0.1" d="M363.622 155.761H347.396V160.6H363.622V155.761Z" fill="#469BB1"/>
<path opacity="0.1" d="M363.622 162.654H347.396V176.77H363.622V162.654Z" fill="#469BB1"/>
<path opacity="0.1" d="M363.622 199.317H347.396V220.329H363.622V199.317Z" fill="#469BB1"/>
<path opacity="0.1" d="M363.622 242.872H347.396V263.885H363.622V242.872Z" fill="#469BB1"/>
<path opacity="0.1" d="M363.622 302.553C363.781 302.553 363.94 302.553 364.103 302.587C363.944 302.587 363.786 302.587 363.622 302.558V307.44H347.396V286.427H363.622V302.553Z" fill="#469BB1"/>
<path opacity="0.1" d="M363.622 329.977V346.204C358.193 345.759 352.784 345.135 347.396 344.333V329.977H363.622Z" fill="#469BB1"/>
<path opacity="0.1" d="M282.836 227.645H213.299V229.189H282.836V227.645Z" fill="#469BB1"/>
<path opacity="0.1" d="M282.836 231.242H213.299V237.158H282.836V231.242Z" fill="#469BB1"/>
<path opacity="0.1" d="M282.836 256.55H213.299V266.063H282.836V256.55Z" fill="#469BB1"/>
<path opacity="0.1" d="M282.836 285.455V294.969H228.446C226.078 293.167 223.746 291.317 221.448 289.418C219.85 288.105 218.271 286.759 216.668 285.455H282.836Z" fill="#469BB1"/>
<path opacity="0.1" d="M282.836 314.356V323.893H277.094C270.634 320.982 264.307 317.809 258.11 314.375L282.836 314.356Z" fill="#469BB1"/>
<path opacity="0.1" d="M417.232 169.103H403.543V182.781H417.232V169.103Z" fill="#469BB1"/>
<path opacity="0.1" d="M120.842 105.372H107.153V119.05H120.842V105.372Z" fill="#469BB1"/>
<path opacity="0.1" d="M120.842 137.144H107.153V150.822H120.842V137.144Z" fill="#469BB1"/>
<path opacity="0.1" d="M120.842 168.916H107.153V182.594H120.842V168.916Z" fill="#469BB1"/>
<path opacity="0.1" d="M120.842 200.682H107.153V214.361H120.842V200.682Z" fill="#469BB1"/>
<path opacity="0.1" d="M120.842 232.454H107.153V246.133H120.842V232.454Z" fill="#469BB1"/>
<path opacity="0.1" d="M120.842 264.226H107.153V277.904H120.842V264.226Z" fill="#469BB1"/>
<path opacity="0.1" d="M469.489 169.103H455.8V182.781H469.489V169.103Z" fill="#469BB1"/>
<path opacity="0.1" d="M417.232 202.842H403.543V216.52H417.232V202.842Z" fill="#469BB1"/>
<path opacity="0.1" d="M469.489 202.842H455.8V216.52H469.489V202.842Z" fill="#469BB1"/>
<path opacity="0.1" d="M417.232 236.576H403.543V250.254H417.232V236.576Z" fill="#469BB1"/>
<path opacity="0.1" d="M469.489 236.576H455.8V250.254H469.489V236.576Z" fill="#469BB1"/>
<path opacity="0.1" d="M417.232 270.315H403.543V283.993H417.232V270.315Z" fill="#469BB1"/>
<path opacity="0.1" d="M469.489 270.315H455.8V283.993H469.489V270.315Z" fill="#469BB1"/>
<path opacity="0.1" d="M417.232 304.054H403.543V317.732H417.232V304.054Z" fill="#469BB1"/>
<path opacity="0.1" d="M469.489 304.054H455.8V317.732H469.489V304.054Z" fill="#469BB1"/>
<path opacity="0.1" d="M403.543 346.609V337.788H417.227V345.353L403.543 346.609Z" fill="#469BB1"/>
<path opacity="0.1" d="M38.7852 143.492V151.317H85.6277V143.492H38.7852ZM43.4492 150.827H39.5986V143.988H43.4492V150.827ZM48.1132 150.827H44.2626V143.988H48.1132V150.827ZM52.7677 150.827H48.9171V143.988H52.7677V150.827ZM57.4317 150.827H53.5811V143.988H57.4317V150.827ZM62.0909 150.827H58.2403V143.988H62.0909V150.827ZM66.755 150.827H62.9044V143.988H66.755V150.827ZM71.419 150.827H67.5684V143.988H71.419V150.827ZM76.0782 150.827H72.2276V143.988H76.0782V150.827ZM80.7375 150.827H76.8869V143.988H80.7375V150.827ZM85.4015 150.827H81.5509V143.988H85.4015V150.827Z" fill="#469BB1"/>
<path opacity="0.1" d="M38.7852 166.27V174.095H85.6277V166.27H38.7852ZM43.4492 173.605H39.5986V166.766H43.4492V173.605ZM48.1132 173.605H44.2626V166.766H48.1132V173.605ZM52.7677 173.605H48.9171V166.766H52.7677V173.605ZM57.4317 173.605H53.5811V166.766H57.4317V173.605ZM62.0909 173.605H58.2403V166.766H62.0909V173.605ZM66.755 173.605H62.9044V166.766H66.755V173.605ZM71.419 173.605H67.5684V166.766H71.419V173.605ZM76.0782 173.605H72.2276V166.766H76.0782V173.605ZM80.7375 173.605H76.8869V166.766H80.7375V173.605ZM85.4015 173.605H81.5509V166.766H85.4015V173.605Z" fill="#469BB1"/>
<path opacity="0.1" d="M38.7852 189.053V196.873H85.6277V189.053H38.7852ZM43.4492 196.378H39.5986V189.539H43.4492V196.378ZM48.1132 196.378H44.2626V189.539H48.1132V196.378ZM52.7677 196.378H48.9171V189.539H52.7677V196.378ZM57.4317 196.378H53.5811V189.539H57.4317V196.378ZM62.0909 196.378H58.2403V189.539H62.0909V196.378ZM66.755 196.378H62.9044V189.539H66.755V196.378ZM71.419 196.378H67.5684V189.539H71.419V196.378ZM76.0782 196.378H72.2276V189.539H76.0782V196.378ZM80.7375 196.378H76.8869V189.539H80.7375V196.378ZM85.4015 196.378H81.5509V189.539H85.4015V196.378Z" fill="#469BB1"/>
<path opacity="0.1" d="M38.7852 211.831V219.651H85.6277V211.831H38.7852ZM43.4492 219.161H39.5986V212.312H43.4492V219.161ZM48.1132 219.161H44.2626V212.312H48.1132V219.161ZM52.7677 219.161H48.9171V212.312H52.7677V219.161ZM57.4317 219.161H53.5811V212.312H57.4317V219.161ZM62.0909 219.161H58.2403V212.312H62.0909V219.161ZM66.755 219.161H62.9044V212.312H66.755V219.161ZM71.419 219.161H67.5684V212.312H71.419V219.161ZM76.0782 219.161H72.2276V212.312H76.0782V219.161ZM80.7375 219.161H76.8869V212.312H80.7375V219.161ZM85.4015 219.161H81.5509V212.312H85.4015V219.161Z" fill="#469BB1"/>
<path opacity="0.1" d="M39.0112 234.599C39.1941 235.34 39.4107 236.071 39.6321 236.797V235.095H43.4827V241.929H41.4179C41.4756 242.093 41.5382 242.261 41.6056 242.41H85.6468V234.599H39.0112ZM48.1564 241.929H44.3058V235.095H48.1564V241.929ZM52.8108 241.929H48.9602V235.095H52.8108V241.929ZM57.4749 241.929H53.6243V235.095H57.4749V241.929ZM62.1341 241.929H58.2835V235.095H62.1341V241.929ZM66.7981 241.929H62.9475V235.095H66.7981V241.929ZM71.4622 241.929H67.6116V235.095H71.4622V241.929ZM76.1214 241.929H72.2708V235.095H76.1214V241.929ZM80.7806 241.929H76.93V235.095H80.7806V241.929ZM85.4447 241.929H81.5941V235.095H85.4447V241.929Z" fill="#469BB1"/>
<path opacity="0.1" d="M49.8604 257.377C49.9855 257.531 50.101 257.704 50.2213 257.858H52.7676V261.143L53.5906 262.105V257.839H57.4412V264.736H55.8577C56.0117 264.894 56.1609 265.063 56.339 265.217H85.618V257.377H49.8604ZM62.1149 264.736H58.2643V257.868H62.1149V264.736ZM66.7789 264.736H62.9283V257.868H66.7789V264.736ZM71.443 264.736H67.5924V257.868H71.443V264.736ZM76.1022 264.736H72.2516V257.868H76.1022V264.736ZM80.7614 264.736H76.9108V257.868H80.7614V264.736ZM85.4255 264.736H81.5749V257.868H85.4255V264.736Z" fill="#469BB1"/>
<path opacity="0.1" d="M75.5586 280.155C76.0014 280.405 76.4491 280.636 76.8967 280.881V280.641H80.7473V282.81C81.0265 282.93 81.2912 283.06 81.5655 283.185V280.641H85.4161V284.806C85.4893 284.839 85.565 284.866 85.6424 284.888V280.155H75.5586Z" fill="#469BB1"/>
<path opacity="0.1" d="M363.617 302.553H364.098H363.617ZM332.682 230.328C332.774 230.636 332.856 230.944 332.937 231.247C332.865 230.944 332.779 230.636 332.682 230.328ZM102.546 88.5819V90.6307H124.047V88.5723L102.546 88.5819ZM363.622 302.553H364.103H363.622ZM332.682 230.328C332.774 230.636 332.856 230.944 332.937 231.247C332.865 230.944 332.779 230.636 332.682 230.328ZM363.617 302.553H364.098H363.617ZM332.682 230.328C332.774 230.636 332.856 230.944 332.937 231.247C332.865 230.944 332.779 230.636 332.682 230.328Z" fill="#469BB1"/>
<path opacity="0.1" d="M423.292 415C449.194 415 470.192 411.63 470.192 407.473C470.192 403.316 449.194 399.946 423.292 399.946C397.39 399.946 376.392 403.316 376.392 407.473C376.392 411.63 397.39 415 423.292 415Z" fill="#469BB1"/>
<path opacity="0.1" d="M211.768 407.473C237.671 407.473 258.669 404.103 258.669 399.946C258.669 395.789 237.671 392.419 211.768 392.419C185.866 392.419 164.868 395.789 164.868 399.946C164.868 404.103 185.866 407.473 211.768 407.473Z" fill="#469BB1"/>
<path d="M265.764 200.918C265.752 200.87 265.727 200.827 265.691 200.793C264.974 200.086 255.829 187.163 255.829 187.163C255.829 187.163 255.348 185.72 254.568 183.844C254.818 183.521 255.006 183.154 255.121 182.762C255.164 182.596 255.194 182.427 255.213 182.257C255.213 182.204 255.251 182.161 255.266 182.108C255.433 181.456 255.416 180.77 255.218 180.127C255.164 180.292 255.098 180.452 255.02 180.608C254.839 180.047 254.597 179.509 254.298 179.001C253.085 176.914 251.353 175.154 250.077 173.119C248.146 169.958 247.378 166.223 247.906 162.557C247.906 162.745 247.906 162.937 247.906 163.125C247.955 162.398 248.051 161.675 248.195 160.961C248.396 160.148 248.665 159.353 248.999 158.585C250.145 155.964 251.998 153.679 253.124 151.048C253.502 150.161 253.789 149.237 253.981 148.292C254.378 146.714 254.522 145.082 254.409 143.459C254.409 143.843 254.347 144.228 254.289 144.608C254.167 140.704 252.589 136.987 249.865 134.186C245.933 130.237 240.287 128.703 234.887 127.895C232.617 127.631 230.45 126.804 228.581 125.49C226.507 124.148 223.826 123.826 221.4 124.12C218.612 124.421 216.021 125.701 214.088 127.732C211.523 130.55 210.411 134.542 207.417 136.918C205.603 138.361 203.302 139.034 201.189 140.015C199.076 140.996 197.078 142.42 196.4 144.526C196.4 144.526 196.4 144.498 196.4 144.483V144.603L196.371 144.68C195.668 147.172 197.026 149.706 197.733 152.193C198.469 154.766 198.518 157.483 198.556 160.143C198.609 163.394 198.657 166.65 198.604 169.906C198.58 171.186 198.537 172.479 198.441 173.754C197.301 174.098 196.195 174.542 195.134 175.081C194.056 175.784 190.022 180.136 190.022 180.136L182.133 210.253L182.239 210.374L182.133 210.783L182.533 210.691C183.649 211.894 186.985 215.318 190.585 217.453L190.922 223.359C190.922 223.359 191.327 229.285 196.78 231.733C196.905 233.787 197.295 242.126 195.49 245.43C194.24 247.844 193.652 250.546 193.786 253.26C193.786 253.26 194.417 258.272 193.7 260.907C193.281 262.669 193.249 264.5 193.608 266.275C193.608 266.275 193.608 266.857 193.608 267.857C193.608 273.191 193.671 290.284 193.608 292.218C193.517 294.502 193.608 328.289 193.608 328.289C193.608 328.289 193.16 345.175 191.726 349.749C190.292 354.323 190.653 369.468 190.653 369.468C190.653 369.468 189.753 387.509 192.934 391.068C192.934 391.227 192.905 391.39 192.901 391.549C192.901 391.621 192.901 391.703 192.901 391.775C192.862 393.146 193.127 394.603 194.306 395.05C196.713 395.974 199.894 398.744 200.496 399.537C201.098 400.331 204.597 402.308 209.16 401.779C212.018 401.458 214.895 401.326 217.771 401.384C217.771 401.384 219.571 401.057 218.988 398.821C218.613 397.426 217.207 395.281 216.206 393.872C216.389 393.92 216.567 393.958 216.736 393.992L216.909 394.026H217.044C217.118 394.03 217.191 394.03 217.265 394.026H217.361C217.451 394.033 217.541 394.033 217.631 394.026C218.839 393.91 223.344 396.007 224.148 397.392C224.952 398.777 227.787 399.831 229.924 400.095C231.195 400.249 234.4 399.989 237.091 399.643C238.446 399.503 239.788 399.259 241.105 398.912C241.741 398.672 241.875 397.902 241.692 397.036C241.476 395.937 240.888 394.945 240.027 394.228C239.247 393.675 238.217 392.217 237.457 391.025L237.255 390.702C238.598 389.423 241.023 385.239 241.76 384.373C242.655 383.32 240.316 344.8 240.316 344.8V325.49L243.902 307.214L246.409 297.542L248.561 282.94C248.561 282.94 252.325 265.885 251.165 264.212C251.165 264.178 250.202 246.618 249.191 242.4C248.753 240.52 248.864 236.287 249.124 232.171C249.396 231.901 249.585 231.56 249.67 231.187C249.756 230.814 249.733 230.425 249.605 230.064C249.534 229.817 249.44 229.578 249.326 229.347C249.326 229.275 249.326 229.198 249.326 229.126C251.406 228.17 253.578 227.432 255.81 226.923C259.396 226.221 258.5 224.374 258.5 224.374C258.5 224.374 259.309 222.792 259.843 221.825C260.377 220.859 259.935 212.326 259.843 211.624C259.81 211.34 259.588 209.773 259.333 207.993C260.483 207.175 261.98 206.161 263.612 205.199C266.717 203.361 266.019 201.423 265.764 200.918ZM218.979 322.854C218.979 322.854 216.288 329.713 217.366 331.468C218.444 333.224 217.188 339.74 217.188 339.74L216.288 349.412C216.288 349.412 213.78 367.352 214.676 371.57C215.378 374.879 215.638 384.763 215.72 388.884C215.659 388.908 215.599 388.937 215.542 388.971L215.422 389.033C215.836 387.413 215.662 384.132 213.607 377.534L213.434 350.278C213.434 350.278 213.116 318.795 215.605 315.274C218.093 311.754 218.974 305.776 218.974 305.776C218.974 305.776 218.435 314.399 218.083 316.684C217.732 318.968 218.979 322.854 218.979 322.854ZM213.968 390.601C213.944 390.659 213.915 390.717 213.896 390.77L213.761 390.596C213.83 390.603 213.899 390.605 213.968 390.601Z" fill="url(#paint0_linear_171_1435)"/>
<path d="M241.408 401.403C240.017 401.937 232.475 402.846 230.367 402.591C228.259 402.337 225.467 401.269 224.673 399.874C223.879 398.479 219.426 396.373 218.233 396.507C217.743 396.522 217.255 396.454 216.789 396.305C215.965 396.056 215.161 395.748 214.382 395.382C214.273 394.776 214.291 394.153 214.435 393.554C214.463 393.434 214.498 393.315 214.541 393.198C214.822 392.409 215.403 391.763 216.158 391.4L216.331 391.318C216.665 391.174 217.014 391.067 217.371 391C221.154 390.274 236.764 391.731 236.764 391.731C236.764 391.731 237.202 392.515 237.803 393.487C238.554 394.689 239.575 396.156 240.345 396.709C241.198 397.438 241.777 398.436 241.986 399.537C242.169 400.389 242.034 401.168 241.408 401.403Z" fill="white"/>
<path opacity="0.1" d="M241.409 401.403C240.018 401.937 232.48 402.846 230.372 402.591C228.264 402.337 225.472 401.264 224.673 399.874C223.874 398.484 219.431 396.373 218.238 396.507C217.044 396.642 214.387 395.382 214.387 395.382C214.387 395.382 213.973 393.458 215.177 392.145L217.583 393.853C217.583 393.853 224.023 395.849 225.217 397.7C226.411 399.552 228.586 400.586 231.729 400.773C234.078 400.927 239.474 400.014 242.001 399.557C242.169 400.389 242.039 401.168 241.409 401.403Z" fill="black"/>
<path d="M218.367 403.856C215.528 403.801 212.689 403.934 209.867 404.256C205.348 404.785 201.896 402.813 201.295 402C200.693 401.187 197.579 398.441 195.187 397.479C194.017 397.027 193.743 395.555 193.796 394.18C193.796 394.107 193.796 394.026 193.796 393.953C193.84 393.082 193.969 392.217 194.181 391.371L212.909 390.972L214.531 393.17L214.781 393.506L215.768 394.848C215.768 394.848 216.216 395.435 216.803 396.291C217.795 397.734 219.181 399.864 219.551 401.274C220.143 403.529 218.367 403.856 218.367 403.856Z" fill="white"/>
<path opacity="0.1" d="M218.367 403.856C215.528 403.801 212.689 403.934 209.867 404.256C205.352 404.785 201.896 402.813 201.3 402C200.703 401.187 197.579 398.417 195.187 397.489C194.017 397.036 193.743 395.565 193.796 394.189C195.134 394.502 197.945 395.3 199.047 396.69C200.491 398.547 203.076 401.668 206.748 401.865C209.713 402.024 216.933 401.495 219.58 401.283C220.148 403.529 218.367 403.856 218.367 403.856Z" fill="black"/>
<path opacity="0.1" d="M216.139 391.38C215.923 392.987 215.254 393.42 214.772 393.516C214.655 393.539 214.534 393.539 214.416 393.516C214.353 393.511 214.29 393.502 214.228 393.487C214.228 393.487 197.411 397.2 194.013 394.194C193.926 394.117 193.846 394.033 193.772 393.944C193.816 393.072 193.945 392.208 194.157 391.361L212.885 390.962L214.507 393.16C214.788 392.371 215.37 391.724 216.125 391.361L216.139 391.38Z" fill="black"/>
<path opacity="0.1" d="M237.799 393.468C237.423 393.881 237.111 394.117 236.913 394.035C236.028 393.679 228.769 392.443 226.464 393.506C224.158 394.569 216.356 393.679 216.356 393.679C216.356 393.679 216.356 392.756 216.312 391.275C216.646 391.13 216.995 391.024 217.352 390.957C221.135 390.231 236.745 391.688 236.745 391.688C236.745 391.688 237.202 392.496 237.799 393.468Z" fill="black"/>
<path d="M248.783 284.676L246.655 299.364L244.181 309.099L240.639 327.5V346.979C240.639 346.979 242.939 385.734 242.054 386.792C241.168 387.85 237.804 393.877 236.918 393.525C236.032 393.174 228.774 391.933 226.469 392.992C224.163 394.05 216.361 393.17 216.361 393.17C216.361 393.17 216.183 378.13 215.297 373.883C214.411 369.637 216.89 351.586 216.89 351.586L217.776 341.857C217.776 341.857 219.018 335.306 217.954 333.536C216.89 331.766 219.547 324.879 219.547 324.879C219.547 324.879 218.31 320.978 218.666 318.68C219.022 316.381 219.547 307.709 219.547 307.709C219.547 307.709 218.666 313.731 216.207 317.266C213.747 320.801 214.06 352.481 214.06 352.481L214.233 379.895C218.666 394.41 214.233 392.992 214.233 392.992C214.233 392.992 197.416 396.709 194.018 393.699C190.619 390.688 191.592 371.738 191.592 371.738C191.592 371.738 191.24 356.521 192.655 351.923C194.071 347.325 194.518 330.333 194.518 330.333C194.518 330.333 194.427 296.354 194.518 294.06C194.586 292.136 194.518 274.913 194.518 269.531C194.518 268.531 194.518 267.939 194.518 267.939L196.549 262.899L220.616 259.888H232.129C232.129 259.888 249.457 263.957 251.247 265.712C251.285 265.741 251.318 265.777 251.343 265.818C252.503 267.516 248.783 284.676 248.783 284.676Z" fill="#469BB1"/>
<path opacity="0.1" d="M219.561 361.831C219.561 361.831 224.856 374.571 227.354 375.456C229.852 376.341 219.561 361.831 219.561 361.831Z" fill="black"/>
<path opacity="0.1" d="M221.52 380.588C221.52 380.588 239.396 381.473 239.218 383.421C239.04 385.368 221.52 380.588 221.52 380.588Z" fill="black"/>
<path opacity="0.1" d="M197.603 375.495C198.311 376.163 211.239 377.418 210.175 378.64C209.112 379.862 198.667 382.237 198.667 382.237L197.603 375.495Z" fill="black"/>
<path opacity="0.1" d="M195.48 353.515C195.48 354.044 198.137 370.502 198.85 371.209C199.562 371.916 205.401 372.623 205.401 372.623L195.48 353.515Z" fill="black"/>
<path d="M214.757 128.554C212.221 131.387 211.123 135.403 208.168 137.798C206.373 139.241 204.101 139.929 202.012 140.91C199.923 141.891 197.853 143.387 197.232 145.609C196.539 148.11 197.877 150.663 198.58 153.164C199.307 155.752 199.35 158.455 199.394 161.163C199.442 164.438 199.495 167.713 199.437 170.988C199.35 176.091 198.927 181.43 196.217 185.754C206.002 188.866 216.408 189.289 226.67 189.688C228.642 189.829 230.623 189.779 232.586 189.539C234.286 189.2 235.968 188.775 237.625 188.264C240.901 187.398 244.277 186.966 247.666 186.98C249.143 186.98 250.65 187.072 252.075 186.687C253.499 186.302 254.871 185.316 255.256 183.892C255.598 182.613 255.097 181.252 254.443 180.103C253.249 178.006 251.555 176.255 250.274 174.187C248.967 172.002 248.192 169.542 248.011 167.003C247.829 164.464 248.247 161.919 249.23 159.571C250.366 156.93 252.195 154.631 253.312 151.986C254.455 149.146 254.759 146.037 254.188 143.03C253.616 140.022 252.193 137.241 250.087 135.018C246.202 131.045 240.629 129.506 235.296 128.689C233.05 128.424 230.908 127.596 229.067 126.284C227.022 124.937 224.37 124.61 221.973 124.908C219.207 125.218 216.646 126.512 214.757 128.554Z" fill="#3F3D56"/>
<g opacity="0.1">
<path opacity="0.1" d="M249.38 156.795C248.398 159.113 247.978 161.629 248.152 164.14C248.26 162.344 248.675 160.581 249.38 158.926C250.511 156.286 252.34 153.987 253.456 151.341C254.369 149.133 254.753 146.741 254.578 144.358C254.479 146.029 254.1 147.671 253.456 149.216C252.34 151.861 250.511 154.155 249.38 156.795Z" fill="black"/>
<path opacity="0.1" d="M199.538 160.509C199.567 162.394 199.596 164.284 199.601 166.169C199.601 163.572 199.577 160.98 199.538 158.387C199.5 155.699 199.451 152.977 198.725 150.384C198.243 148.74 197.531 147.071 197.281 145.411C196.852 147.768 198.07 150.158 198.725 152.51C199.451 155.079 199.5 157.82 199.538 160.509Z" fill="black"/>
<path opacity="0.1" d="M252.239 183.936C250.795 184.325 249.312 184.239 247.834 184.229C244.448 184.208 241.074 184.631 237.799 185.489C236.142 185.997 234.46 186.421 232.759 186.759C230.796 187.003 228.813 187.054 226.839 186.913C216.924 186.523 206.869 186.105 197.372 183.272C197.09 183.901 196.769 184.511 196.41 185.1C206.195 188.207 216.601 188.635 226.858 189.034C228.832 189.175 230.815 189.124 232.779 188.88C234.473 188.546 236.148 188.123 237.799 187.615C241.067 186.754 244.435 186.325 247.815 186.34C249.293 186.34 250.795 186.432 252.219 186.042C253.644 185.653 255.016 184.676 255.401 183.253C255.563 182.593 255.546 181.903 255.353 181.252C254.924 182.599 253.601 183.536 252.239 183.936Z" fill="black"/>
</g>
<path d="M237.982 178.236C237.626 179.035 236.124 185.932 235.768 186.639C235.411 187.346 233.467 198.662 233.289 199.297C233.111 199.932 220.471 196.642 220.471 196.642L212.861 190.27L205.04 182.493C205.04 182.493 204.809 175.476 210.57 173.225C210.962 173.071 211.364 172.946 211.774 172.85C218.762 171.171 218.06 149.937 218.06 149.937L232.403 156.127C232.403 156.127 229.746 168.516 229.838 170.907C229.862 171.71 230.492 172.21 231.315 172.513C232.588 172.875 233.913 173.018 235.233 172.936C235.233 172.936 238.338 177.443 237.982 178.236Z" fill="#FBBEBE"/>
<path d="M263.66 201.505L265.696 202.039C265.696 202.039 267.203 204.328 263.66 206.459C261.411 207.824 259.252 209.332 257.196 210.975L246.727 214.159L244.71 207.834L254.452 200.447L263.66 201.505Z" fill="#469BB1"/>
<path opacity="0.1" d="M263.66 201.505L265.696 202.039C265.696 202.039 267.203 204.328 263.66 206.459C261.411 207.824 259.252 209.332 257.196 210.975L246.727 214.159L244.71 207.834L254.452 200.447L263.66 201.505Z" fill="black"/>
<path d="M187.26 207.613L183.188 211.595C183.188 211.595 190.533 220.089 196.183 220.618C201.834 221.147 205.478 214.159 205.478 214.159L200.587 206.464L187.26 207.613Z" fill="#469BB1"/>
<path opacity="0.1" d="M187.26 207.613L183.188 211.595C183.188 211.595 190.533 220.089 196.183 220.618C201.834 221.147 205.478 214.159 205.478 214.159L200.587 206.464L187.26 207.613Z" fill="black"/>
<path opacity="0.1" d="M225.939 163.813C233.762 163.813 240.104 157.475 240.104 149.658C240.104 141.841 233.762 135.504 225.939 135.504C218.115 135.504 211.773 141.841 211.773 149.658C211.773 157.475 218.115 163.813 225.939 163.813Z" fill="black"/>
<path d="M225.939 162.75C233.762 162.75 240.104 156.413 240.104 148.595C240.104 140.778 233.762 134.441 225.939 134.441C218.115 134.441 211.773 140.778 211.773 148.595C211.773 156.413 218.115 162.75 225.939 162.75Z" fill="#FBBEBE"/>
<path opacity="0.1" d="M251.353 267.424C248.127 267.793 244.95 268.504 241.876 269.545C236.581 271.306 195.091 269.574 194.513 269.545C194.513 268.545 194.513 267.953 194.513 267.953L196.544 262.913L220.611 259.902H232.124C232.124 259.902 249.452 263.971 251.242 265.727C251.314 266.785 251.353 267.424 251.353 267.424Z" fill="black"/>
<path opacity="0.1" d="M237.982 178.236C237.626 179.035 236.124 185.932 235.768 186.639C235.411 187.346 233.467 198.662 233.289 199.297C233.111 199.932 220.471 196.642 220.471 196.642L212.861 190.27L205.04 182.493C205.04 182.493 204.809 175.476 210.57 173.225L224.875 189.659L231.315 172.513C232.588 172.875 233.913 173.018 235.233 172.936C235.233 172.936 238.338 177.443 237.982 178.236Z" fill="black"/>
<path d="M224.875 190.188L210.233 173.355C209.376 172.808 208.397 172.483 207.382 172.408C206.368 172.333 205.352 172.512 204.424 172.927C201.146 174.346 197.074 175.495 196.01 176.202C194.946 176.909 190.961 181.286 190.961 181.286L202.83 212.312L197.603 232.748C197.603 232.748 198.402 243.189 196.366 246.993C195.127 249.426 194.546 252.14 194.682 254.867C194.682 254.867 195.302 259.912 194.595 262.562C194.182 264.334 194.15 266.173 194.503 267.958C194.503 267.958 236.566 269.728 241.875 267.958C244.949 266.914 248.127 266.203 251.353 265.837C251.353 265.837 250.39 248.138 249.427 243.891C248.465 239.645 250.226 223.456 250.226 223.456L249.076 206.112L255.978 188.317C255.978 188.317 252.238 176.909 248.34 175.76C248.34 175.76 241.259 174.076 239.753 173.283C238.246 172.489 233.818 171.777 233.818 171.777L231.493 172.556L224.875 190.188Z" fill="#469BB1"/>
<path opacity="0.1" d="M245.304 205.527L214.493 203.433C213.713 203.38 213.038 203.969 212.985 204.748L209.677 253.357C209.624 254.136 210.213 254.81 210.993 254.863L241.804 256.957C242.583 257.01 243.259 256.421 243.312 255.642L246.619 207.034C246.672 206.254 246.083 205.58 245.304 205.527Z" fill="black"/>
<path d="M246.365 204.471L215.554 202.378C214.774 202.325 214.099 202.913 214.046 203.692L210.738 252.301C210.685 253.08 211.274 253.754 212.054 253.807L242.865 255.901C243.645 255.954 244.32 255.365 244.373 254.586L247.68 205.978C247.733 205.199 247.144 204.524 246.365 204.471Z" fill="#3F3D56"/>
<path d="M245.348 208.281L216.045 206.29L213.034 250.542L242.336 252.533L245.348 208.281Z" fill="white"/>
<path opacity="0.1" d="M242.72 219.576L218.784 217.902L218.317 224.568L242.253 226.242L242.72 219.576Z" fill="black"/>
<path opacity="0.1" d="M241.854 246.067L238.056 245.809L237.819 249.283L241.618 249.541L241.854 246.067Z" fill="black"/>
<path opacity="0.1" d="M238.108 237.682L218.664 236.361L218.427 239.835L237.871 241.156L238.108 237.682Z" fill="black"/>
<path d="M241.721 206.627L221.475 205.251L221.112 210.592L241.358 211.968L241.721 206.627Z" fill="#3F3D56"/>
<path opacity="0.1" d="M241.721 206.627L221.475 205.251L221.112 210.592L241.358 211.968L241.721 206.627Z" fill="black"/>
<path opacity="0.1" d="M226.646 266.448C226.646 266.448 226.468 292.641 219.561 307.68C219.561 307.68 227.888 287.86 227.888 287.066C227.888 286.273 232.489 277.952 231.257 275.475C230.025 272.999 226.646 266.448 226.646 266.448Z" fill="black"/>
<path opacity="0.1" d="M227.022 145.055C226.757 142.737 227.325 140.4 228.625 138.462C228.47 140.405 229.02 142.339 230.174 143.91C231.328 145.482 233.009 146.587 234.911 147.023C234.748 146.882 234.633 146.695 234.578 146.488C234.524 146.28 234.534 146.061 234.607 145.859C235.594 146.974 236.35 148.297 237.467 149.278C238.583 150.259 240.258 150.846 241.572 150.149C243.358 149.187 243.377 146.652 242.915 144.68C241.924 140.481 239.889 136.599 237 133.392C236.279 132.423 235.343 131.634 234.266 131.086C233.189 130.539 231.999 130.248 230.791 130.237C228.057 130.026 225.217 130.266 222.767 131.493C221.388 132.244 220.097 133.146 218.916 134.181L212.178 139.674C211.529 140.14 210.974 140.724 210.541 141.395C210.252 141.956 210.079 142.57 210.031 143.199C209.859 144.998 210.192 146.809 210.993 148.429C211.794 150.049 213.031 151.414 214.565 152.371C214.533 150.949 214.924 149.55 215.689 148.351C216.455 147.152 217.559 146.207 218.863 145.637C219.068 145.808 219.233 146.02 219.348 146.26C219.464 146.5 219.526 146.761 219.532 147.027L220.952 144.498C221.163 144.037 221.496 143.643 221.915 143.358C222.791 142.877 223.884 143.444 224.63 144.122C225.376 144.801 226.102 145.647 227.104 145.753L227.142 141.987" fill="black"/>
<path d="M227.022 144.526C226.757 142.207 227.325 139.868 228.625 137.928C228.191 141.775 231.094 145.748 234.916 146.489C234.753 146.349 234.637 146.164 234.583 145.956C234.529 145.749 234.539 145.531 234.612 145.33C235.599 146.445 236.355 147.763 237.471 148.749C238.588 149.735 240.263 150.317 241.577 149.615C243.363 148.653 243.382 146.118 242.92 144.151C241.928 139.952 239.894 136.07 237.005 132.863C236.108 131.771 234.978 130.894 233.698 130.295C232.771 129.952 231.797 129.755 230.81 129.708C228.076 129.497 225.236 129.732 222.786 130.959C221.408 131.714 220.117 132.617 218.936 133.652L212.197 139.145C211.548 139.61 210.992 140.194 210.561 140.866C210.271 141.427 210.097 142.041 210.05 142.67C209.879 144.468 210.212 146.278 211.013 147.898C211.814 149.517 213.051 150.881 214.584 151.837C214.553 150.415 214.945 149.017 215.71 147.818C216.475 146.619 217.58 145.675 218.883 145.104C219.086 145.275 219.251 145.487 219.366 145.727C219.482 145.966 219.545 146.228 219.552 146.494L220.967 143.973C221.177 143.512 221.51 143.118 221.929 142.833C222.805 142.353 223.898 142.92 224.644 143.598C225.39 144.276 226.117 145.118 227.118 145.229L227.157 141.458" fill="#3F3D56"/>
<path d="M233.732 233.806C232.495 233.18 212.038 236.369 212.038 236.369C212.038 236.369 208.669 235.407 200.525 234.07C192.381 232.733 191.861 224.778 191.861 224.778L190.971 208.854L193.719 206.449L205.492 214.144C205.492 214.144 205.675 218.035 205.492 218.737C205.377 219.218 205.069 219.791 205.098 220.18C205.107 220.286 205.15 220.385 205.221 220.464C205.293 220.542 205.388 220.594 205.492 220.613C206.291 220.815 217.179 222.575 217.179 222.575C217.179 222.575 242.415 220.849 248.706 229.342C249.204 229.966 249.581 230.677 249.818 231.439C251.377 237.245 234.853 234.359 233.732 233.806Z" fill="#FBBEBE"/>
<path opacity="0.1" d="M249.832 231.473C248.869 231.901 248.272 232.209 248.272 232.209C248.272 232.209 239.242 231.944 234.169 230.107C229.096 228.27 222.93 228.597 222.93 228.597C222.93 228.597 201.791 224.961 205.068 220.214C205.077 220.319 205.121 220.419 205.192 220.497C205.264 220.576 205.359 220.628 205.463 220.647C206.262 220.849 217.15 222.609 217.15 222.609C217.15 222.609 242.386 220.883 248.676 229.376C249.19 229.996 249.582 230.708 249.832 231.473Z" fill="black"/>
<path d="M258.611 203.453C258.611 203.453 259.853 212.211 259.94 212.923C260.026 213.635 260.474 222.21 259.94 223.186C259.406 224.163 258.611 225.75 258.611 225.75C258.611 225.75 259.497 227.606 255.954 228.318C252.412 229.03 248.253 231.146 248.253 231.146C248.253 231.146 239.219 230.882 234.174 229.025C229.13 227.169 222.931 227.52 222.931 227.52C222.931 227.52 196.097 222.917 207.61 217.299C219.123 211.682 227.267 219.291 227.267 219.291L240.104 218.497C240.104 218.497 244.889 215.573 246.217 215.842C247.155 215.961 248.108 215.808 248.961 215.4L249.052 206.108L258.611 203.453Z" fill="#FBBEBE"/>
<path opacity="0.1" d="M193.517 181.954L190.947 181.82L183.159 212.12C183.159 212.12 191.567 209.994 195.192 212.12C198.816 214.245 205.463 214.683 205.463 214.683L202.984 190.53L193.517 181.954Z" fill="black"/>
<path d="M193.517 181.42L190.947 181.286L183.159 211.586C183.159 211.586 191.567 209.46 195.192 211.586C198.816 213.712 205.463 214.149 205.463 214.149L202.984 189.996L193.517 181.42Z" fill="#469BB1"/>
<path opacity="0.1" d="M252.417 188.057L255.954 188.856C255.954 188.856 264.989 201.842 265.696 202.568C266.404 203.294 262.327 205.935 260.647 205.935C258.968 205.935 250.732 206.896 248.34 209.118C245.948 211.34 246.944 200.158 246.944 199.903C246.944 199.648 249.914 192.593 249.914 192.593L252.417 188.057Z" fill="black"/>
<path d="M252.417 187.528L255.954 188.322C255.954 188.322 264.989 201.332 265.696 202.039C266.404 202.746 262.327 205.405 260.647 205.405C258.968 205.405 250.732 206.367 248.34 208.589C245.948 210.811 246.944 199.629 246.944 199.374C246.944 199.119 249.933 192.04 249.933 192.04L252.417 187.528Z" fill="#469BB1"/>
<g opacity="0.1">
<path opacity="0.1" d="M228.601 137.971C228.58 137.602 228.588 137.232 228.625 136.865C227.892 137.964 227.388 139.199 227.142 140.496V141.612C227.142 141.612 227.142 141.588 227.142 141.573V141.838C227.142 142.617 227.142 143.401 227.118 144.18H227.051V144.541C227.051 144.416 227.051 144.296 227.027 144.171C226.064 144.017 225.376 143.209 224.659 142.564C223.941 141.92 222.82 141.304 221.944 141.799C221.524 142.084 221.191 142.478 220.981 142.939L219.552 145.459C219.545 145.194 219.483 144.934 219.367 144.695C219.252 144.456 219.087 144.244 218.883 144.074C217.579 144.644 216.474 145.589 215.709 146.788C214.943 147.987 214.552 149.386 214.585 150.808C213.269 149.984 212.169 148.86 211.375 147.528C210.581 146.196 210.115 144.694 210.017 143.146C209.933 144.874 210.312 146.593 211.115 148.126C211.918 149.659 213.116 150.95 214.585 151.866C214.553 150.444 214.945 149.046 215.71 147.847C216.476 146.648 217.58 145.703 218.883 145.132C219.086 145.304 219.251 145.516 219.366 145.756C219.482 145.995 219.545 146.257 219.552 146.522L220.967 144.002C221.177 143.541 221.51 143.147 221.93 142.862C222.806 142.381 223.898 142.949 224.644 143.627C225.39 144.305 226.117 145.147 227.118 145.257C227.118 144.026 227.131 142.798 227.157 141.573C227.393 140.288 227.884 139.064 228.601 137.971Z" fill="black"/>
<path opacity="0.1" d="M226.974 142.814C226.998 142.487 227.037 142.16 227.085 141.852L227.138 140.525C226.993 141.279 226.938 142.047 226.974 142.814Z" fill="black"/>
<path opacity="0.1" d="M241.577 148.552C240.263 149.254 238.588 148.667 237.472 147.686C236.355 146.705 235.599 145.383 234.613 144.267C234.54 144.469 234.529 144.688 234.584 144.896C234.638 145.103 234.754 145.29 234.916 145.431C234.82 145.431 234.728 145.383 234.637 145.358C235.599 146.465 236.365 147.763 237.472 148.725C238.579 149.687 240.263 150.293 241.577 149.591C242.891 148.889 243.267 147.244 243.151 145.642C243.065 146.902 242.612 147.994 241.577 148.552Z" fill="black"/>
<path opacity="0.1" d="M234.608 145.349C232.998 144.911 231.561 143.991 230.489 142.714C229.417 141.436 228.762 139.862 228.611 138.202C228.336 141.977 231.186 145.762 234.916 146.489C234.757 146.351 234.643 146.169 234.588 145.966C234.533 145.763 234.54 145.548 234.608 145.349Z" fill="black"/>
</g>
<path d="M465.759 223.956C465.759 223.956 463.862 223.691 463.862 220.935C463.862 218.18 462.505 213.019 462.505 213.019C462.505 213.019 461.331 204.04 459.709 202.616C458.086 201.192 456.002 192.833 456.002 192.833C456.002 192.833 455.646 188.298 454.919 187.322C454.193 186.345 453.211 183.955 451.762 180.545C450.313 177.135 444.287 174.798 444.287 174.798C444.287 174.798 433.366 168.468 430.271 166.405C429.988 166.234 429.723 166.034 429.481 165.809C428.942 165.106 426.593 165.092 426.593 165.092C426.348 163.539 426.112 161.759 426.035 160.148C426.035 159.975 426.035 159.802 426.035 159.628C429.486 157.59 432.085 154.376 433.356 150.577C433.414 150.394 433.462 150.206 433.515 150.019C433.726 149.954 433.921 149.845 434.087 149.699C434.253 149.553 434.386 149.373 434.477 149.172C434.752 148.552 434.761 147.831 435.108 147.249C435.512 146.566 436.282 146.2 436.889 145.69C438.42 144.387 438.814 142.199 438.742 140.212C438.694 138.596 438.434 136.971 438.535 135.369C438.535 135.234 438.535 135.1 438.564 134.965C438.593 134.729 438.626 134.484 438.67 134.253C438.906 133.061 439.421 131.935 439.709 130.752C439.998 129.569 440.027 128.237 439.353 127.217C438.367 125.721 436.311 125.423 434.506 125.293C432.461 125.12 430.656 125.341 429.322 123.643C428.711 122.757 428.021 121.926 427.262 121.162C426.993 120.912 424.374 119.31 424.374 119.209C421.813 118.019 418.906 117.795 416.192 118.579C414.83 118.973 413.554 119.618 412.173 119.94C409.208 120.642 405.791 119.882 403.268 121.58C401.863 122.542 401.021 124.076 400.231 125.562C399.589 126.787 398.938 128.014 398.277 129.242C397.208 131.257 396.13 133.306 395.683 135.537C395.589 136.025 395.53 136.518 395.505 137.014C395.505 137.192 395.505 137.37 395.505 137.548C395.505 137.625 395.505 137.702 395.505 137.779C395.505 137.942 395.505 138.106 395.533 138.26C395.562 138.414 395.533 138.457 395.567 138.558C395.601 138.659 395.61 138.885 395.639 139.039C395.668 139.193 395.726 139.467 395.784 139.674C395.784 139.765 395.841 139.852 395.87 139.943C395.899 140.034 395.976 140.265 396.039 140.424C396.101 140.583 396.106 140.592 396.145 140.674C396.217 140.842 396.304 141.006 396.39 141.155C396.429 141.217 396.458 141.28 396.496 141.343C396.628 141.568 396.776 141.783 396.939 141.987C397.964 143.271 399.485 144.089 400.607 145.291C400.607 145.339 400.607 145.387 400.607 145.435C400.607 145.565 400.607 145.695 400.607 145.83C400.675 148.512 401.399 151.136 402.714 153.475C404.029 155.813 405.897 157.795 408.154 159.248C408.154 159.431 408.178 159.619 408.187 159.806C408.281 161.232 408.264 162.664 408.135 164.087C407.938 163.857 407.693 163.673 407.416 163.55C407.14 163.427 406.839 163.367 406.537 163.375C406.33 163.365 406.122 163.383 405.92 163.428L405.877 163.394V163.438C404.818 163.697 403.514 164.799 402.267 167.93C402.267 167.93 398.474 172.2 395.586 172.023C392.698 171.845 385.387 176.471 385.387 176.471C385.387 176.471 378.254 181.093 376.723 185.807C375.868 188.48 374.84 191.095 373.648 193.637L364.806 211.778L363.184 226.207C363.184 226.207 364.084 232.608 363.906 233.589C363.727 234.57 367.607 243.372 367.607 243.372C367.607 243.372 380.425 265.871 385.661 267.025L386.037 266.765C386.262 266.879 386.499 266.966 386.744 267.025L387.823 266.27C387.889 267.116 387.86 267.966 387.736 268.805C387.019 271.032 388.01 285.527 389.271 288.37C390.532 291.212 390.085 328.486 390.085 328.486L389.907 331.771C389.907 331.771 389.907 331.877 389.95 332.06L389.907 332.839L390.037 332.906C390.172 333.951 390.128 335.012 389.907 336.042C389.454 337.485 389.271 341.558 389.271 341.558C389.271 341.558 385.661 364.587 387.375 369.213C389.089 373.84 390.537 378.909 390.537 378.909C390.537 378.909 392.342 384.681 390.624 385.643C388.906 386.605 384.039 388.312 385.031 390.712C385.945 392.934 389.416 398.888 389.931 399.759L389.888 400.24L389.18 407.901C389.295 408.913 389.569 409.9 389.993 410.825C390.768 412.499 392.27 414.226 395.139 414.038C395.62 414.004 396.174 413.952 396.718 413.879C401.959 413.172 408.409 410.835 408.409 410.835C408.074 410.623 407.769 410.37 407.499 410.08C407.242 409.831 407.037 409.531 406.899 409.201C406.761 408.87 406.692 408.514 406.695 408.156C406.772 406.757 404.159 400.115 403.504 398.474L403.355 398.109C403.355 398.109 409.314 391.881 408.322 386.369C408.322 386.369 401.728 382.521 403.899 380.405C406.07 378.289 409.949 372.229 409.949 372.229C409.949 372.229 410.127 349.552 409.949 346.171C409.763 343.819 409.875 341.453 410.281 339.13C410.353 338.783 410.44 338.442 410.532 338.1C413.536 338.554 416.571 338.783 419.609 338.788C420.72 338.788 421.843 338.766 422.979 338.721C422.979 339.042 422.993 339.388 423.022 339.76C423.272 345.377 423.739 355.232 424.119 358.892C424.658 364.134 427.638 378.279 427.638 378.279C427.638 378.279 421.953 381.92 428.629 390.909C428.629 390.909 428.629 394.16 428.187 394.637C427.713 396.179 427.333 397.748 427.046 399.335C426.767 401.024 426.651 402.741 427.104 403.626C428.187 405.751 434.684 405.578 434.684 405.578C434.737 405.566 434.79 405.558 434.843 405.554C436.07 405.425 437.31 405.541 438.491 405.896C439.672 406.251 440.77 406.838 441.721 407.622C444.191 409.604 453.557 408.738 458.635 408.103C460.623 407.848 461.952 407.622 461.952 407.622C462.015 407.397 462.038 407.163 462.019 406.93C461.966 405.684 460.989 402.952 454.366 400.514C454.366 400.514 448.137 396.329 448.224 392.684H448.085H447.367C447.82 392.669 448.137 392.669 448.137 392.669C448.137 392.669 445.697 383.777 446.693 383.05C447.69 382.324 444.706 372.469 444.706 372.469C444.706 372.469 442.997 355.925 442.901 354.77C442.907 353.775 443.059 352.787 443.353 351.836L442.901 342.761C442.901 342.761 442.814 339.745 442.901 338.764C442.891 337.912 442.824 337.062 442.699 336.22C442.655 335.883 442.612 335.532 442.564 335.186C444.898 334.594 446.414 334.051 446.414 334.051L446.145 302.476C448.128 298.629 448.494 290.183 448.484 284.2C448.484 280.352 448.311 277.505 448.311 277.505L451.021 273.085C451.021 273.085 451.646 267.795 450.655 266.636C450.217 266.111 450.414 265.568 450.775 265.121C450.965 264.965 451.166 264.824 451.377 264.697C451.353 264.664 451.332 264.628 451.314 264.592C451.503 264.434 451.705 264.29 451.916 264.164C451.916 264.164 450.953 262.673 451.815 262.043C452.623 262.591 453.345 263.028 453.894 263.341C453.856 263.692 453.817 263.894 453.817 263.894L454.048 263.413C454.578 263.711 454.9 263.894 454.9 263.894C454.9 263.894 459.145 255.444 459.054 254.203C458.962 252.962 461.942 247.71 461.942 247.71C461.942 247.71 462.303 244.949 463.93 243.795C465.557 242.641 465.191 234.277 465.191 234.277C465.191 234.277 465.643 229.92 466.726 228.145C467.809 226.37 465.759 223.956 465.759 223.956ZM384.53 220.248L384.612 222.263C384.131 221.489 383.784 220.935 383.784 220.935L384.53 220.248Z" fill="url(#paint1_linear_171_1435)"/>
<path d="M455.151 260.239L454.111 264.664C454.111 264.664 445.784 260.407 444.287 255.021C442.79 249.634 446.795 247.58 446.795 247.58L454.559 250.86L455.151 260.239Z" fill="white"/>
<path opacity="0.1" d="M455.151 260.239L454.111 264.664C454.111 264.664 445.784 260.407 444.287 255.021C442.79 249.634 446.795 247.58 446.795 247.58L454.559 250.86L455.151 260.239Z" fill="black"/>
<path d="M408.419 410.83C408.419 410.83 400.717 413.658 395.423 414.014C392.612 414.202 391.134 412.48 390.374 410.82C389.96 409.905 389.691 408.932 389.575 407.935L390.273 400.312L390.638 396.257L401.887 393.333L403.48 398.205L403.629 398.571C404.265 400.201 406.835 406.809 406.758 408.19C406.752 408.547 406.818 408.901 406.953 409.232C407.088 409.563 407.288 409.862 407.543 410.113C407.803 410.388 408.097 410.629 408.419 410.83Z" fill="white"/>
<path d="M460.999 406.954C461.018 407.187 460.996 407.421 460.931 407.646C460.931 407.646 444.46 410.388 441.091 407.646C440.144 406.845 439.04 406.251 437.85 405.901C436.66 405.55 435.41 405.452 434.179 405.612C434.179 405.612 427.806 405.785 426.743 403.688C426.3 402.808 426.415 401.1 426.69 399.422C426.97 397.843 427.343 396.282 427.806 394.747L428.062 394.545L429.578 393.328L447.329 392.804H447.464C447.377 396.43 453.485 400.591 453.485 400.591C459.988 402.995 460.946 405.713 460.999 406.954Z" fill="white"/>
<path opacity="0.1" d="M461.003 406.954C461.02 407.187 460.996 407.421 460.931 407.646C460.931 407.646 444.46 410.388 441.096 407.646C440.148 406.845 439.043 406.25 437.852 405.899C436.661 405.549 435.41 405.451 434.179 405.612C434.179 405.612 427.802 405.785 426.738 403.688C426.3 402.808 426.411 401.1 426.685 399.417C429.14 399.662 433.014 400.273 434.535 401.735C436.836 403.948 440.735 406.16 443.122 406.338C445.009 406.453 456.229 406.809 461.003 406.954Z" fill="black"/>
<path opacity="0.1" d="M408.419 410.83C408.419 410.83 400.718 413.658 395.423 414.014C392.612 414.202 391.135 412.48 390.374 410.82C392.338 411.479 395.057 412.167 396.487 411.537C398.181 410.782 404.188 410.301 407.557 410.094C407.811 410.376 408.101 410.623 408.419 410.83Z" fill="black"/>
<path d="M419.846 182.911C413.492 180.444 405.319 172.292 407.36 168.483C407.811 167.521 408.08 166.484 408.154 165.424C408.286 163.985 408.305 162.537 408.212 161.095C408.069 158.732 407.784 156.379 407.36 154.049C407.36 154.049 427.195 154.497 426.04 157.416C425.703 158.277 425.646 159.763 425.742 161.422C425.838 163.082 426.074 164.972 426.324 166.564C426.666 168.742 427.017 170.411 427.017 170.411C427.017 170.411 425.8 172.109 425.092 172.2C424.385 172.292 428.962 186.446 419.846 182.911Z" fill="#CF6F80"/>
<path opacity="0.1" d="M403.61 398.547L403.461 398.71C397.531 391.544 390.359 400.48 390.359 400.48L390.253 400.288L390.619 396.233L401.868 393.309L403.461 398.181L403.61 398.547Z" fill="black"/>
<path opacity="0.1" d="M447.473 393.309C447.473 393.309 443.142 393.222 440.831 395.262C438.521 397.301 427.354 395.699 427.835 395.262C427.976 395.04 428.062 394.787 428.086 394.526L429.602 393.309L447.353 392.785C447.421 393.121 447.473 393.309 447.473 393.309Z" fill="black"/>
<path d="M410.989 337.033C410.667 337.83 410.422 338.656 410.257 339.5C409.856 341.811 409.744 344.164 409.925 346.503C410.103 349.869 409.925 372.431 409.925 372.431C409.925 372.431 406.118 378.448 403.991 380.569C401.863 382.69 408.323 386.499 408.323 386.499C409.285 391.986 403.451 398.181 403.451 398.181C397.522 391.015 390.35 399.946 390.35 399.946C390.35 399.946 386.451 393.213 385.479 390.808C384.507 388.403 389.286 386.744 390.966 385.763C392.646 384.782 390.879 379.03 390.879 379.03C390.879 379.03 389.464 373.984 387.78 369.382C386.095 364.779 389.637 341.871 389.637 341.871C389.637 341.871 389.82 337.797 390.258 336.379C390.477 335.355 390.521 334.301 390.388 333.262C390.359 332.911 390.326 332.622 390.302 332.42C390.278 332.218 390.258 332.132 390.258 332.132L390.326 332.016L392.732 327.534C392.732 327.534 412.144 334.21 410.989 337.033Z" fill="#469BB1"/>
<path d="M447.473 392.78C447.473 392.78 443.141 392.689 440.831 394.704C438.521 396.719 427.354 395.146 427.835 394.704C428.317 394.261 428.273 390.991 428.273 390.991C421.722 382.05 427.311 378.424 427.311 378.424C427.311 378.424 424.389 364.356 423.86 359.137C423.489 355.497 423.032 345.671 422.786 340.106C422.68 337.701 422.618 336.042 422.618 336.042L427.922 334.989L428.61 334.854L441.519 332.262C441.519 332.262 441.875 334.666 442.116 336.634C442.238 337.473 442.304 338.32 442.314 339.168C442.232 340.13 442.314 343.146 442.314 343.146L442.756 352.168C442.471 353.116 442.322 354.099 442.314 355.088C442.405 356.242 444.085 372.695 444.085 372.695C444.085 372.695 447.006 382.516 446.01 383.223C445.014 383.93 447.473 392.78 447.473 392.78Z" fill="#469BB1"/>
<path opacity="0.1" d="M426.04 157.43C425.703 158.291 425.645 159.777 425.742 161.437C423.085 163.035 420.03 163.853 416.93 163.795C413.829 163.737 410.807 162.806 408.212 161.11C408.068 158.746 407.784 156.393 407.36 154.064C407.36 154.064 427.195 154.511 426.04 157.43Z" fill="black"/>
<path d="M433.698 146.811C433.75 151.175 432.066 155.38 429.015 158.503C425.964 161.626 421.796 163.409 417.429 163.462C413.062 163.514 408.853 161.831 405.728 158.782C402.603 155.733 400.818 151.569 400.766 147.205C400.766 147.071 400.766 146.946 400.766 146.811C400.766 142.446 402.501 138.26 405.59 135.173C408.679 132.087 412.868 130.353 417.237 130.353C421.605 130.353 425.794 132.087 428.883 135.173C431.972 138.26 433.708 142.446 433.708 146.811H433.698Z" fill="#CF6F80"/>
<path opacity="0.1" d="M419.846 182.911C413.492 180.444 405.319 172.292 407.36 168.483C407.811 167.521 408.08 166.484 408.154 165.424L416.852 172.571L422.233 176.981L426.324 166.578C426.666 168.757 427.017 170.426 427.017 170.426C427.017 170.426 425.8 172.124 425.092 172.215C424.385 172.306 428.962 186.446 419.846 182.911Z" fill="black"/>
<path d="M442.338 214.495L435.074 336.417L425.602 337.038L401.069 266.342L405.093 182.411L405.945 164.678L416.851 173.629L422.233 178.039L426.444 167.328L434.275 174.148L442.338 214.495Z" fill="#469BB1"/>
<path opacity="0.1" d="M410.989 337.033C410.667 337.83 410.422 338.656 410.257 339.5C403.358 338.439 396.657 336.349 390.379 333.301L390.249 333.233L390.292 332.459V332.055L392.698 327.572C392.698 327.572 412.144 334.21 410.989 337.033Z" fill="black"/>
<path opacity="0.1" d="M428.081 339.519C426.319 339.82 424.542 340.024 422.757 340.13C422.651 337.725 422.589 336.066 422.589 336.066L427.922 334.989L428.081 339.519Z" fill="black"/>
<path opacity="0.1" d="M442.135 336.634C438.713 337.523 433.423 338.524 428.697 337.898L428.629 334.854L441.539 332.262C441.539 332.262 441.88 334.647 442.135 336.634Z" fill="black"/>
<path opacity="0.1" d="M428.611 338.456C408.876 341.823 390.802 332.17 390.802 332.17L390.976 328.9C390.976 328.9 391.423 291.823 390.182 288.981C388.94 286.138 387.972 271.743 388.675 269.545C389.378 267.347 386.11 234.162 386.11 234.162L385.58 220.695L366.188 212.822L374.851 194.772C376.021 192.241 377.028 189.639 377.864 186.98C379.371 182.291 386.365 177.688 386.365 177.688C386.365 177.688 393.536 173.09 396.371 173.263C399.206 173.437 402.922 169.195 402.922 169.195C405.666 162.206 408.149 165.347 408.149 165.347C408.149 165.684 408.149 165.347 408.015 166.381C407.052 174.052 423.581 198.292 423.817 198.725L425.41 237.038L427.003 285.523L428.611 338.456Z" fill="black"/>
<path d="M428.081 338.456C408.347 341.823 390.268 332.17 390.268 332.17L390.446 328.9C390.446 328.9 390.889 291.823 389.647 288.981C388.405 286.138 387.438 271.729 388.146 269.512C388.853 267.295 385.566 234.142 385.566 234.142L385.031 220.676L365.644 212.803L374.307 194.752C375.475 192.223 376.481 189.622 377.321 186.966C378.827 182.291 385.845 177.683 385.845 177.683C385.845 177.683 393.017 173.085 395.847 173.259C398.677 173.432 402.412 169.195 402.412 169.195C405.16 162.206 408.188 165.347 408.188 165.347C408.188 165.684 407.899 165.828 408.053 166.381C410.171 173.821 423.09 198.292 423.326 198.725L424.919 237.038L426.478 285.547L428.081 338.456Z" fill="white"/>
<path opacity="0.1" d="M422.762 199.807C420.64 198.922 409.396 186.095 409.396 186.095V183.176C408.987 182.214 406.551 182.801 404.583 183.474L405.43 165.741L406.392 166.54C408.496 173.975 422.531 199.379 422.762 199.807Z" fill="black"/>
<path d="M423.297 198.749C421.169 197.859 409.926 185.037 409.926 185.037V182.113C409.516 181.151 407.086 181.738 405.112 182.411L405.945 164.698L406.908 165.491C409.03 172.917 423.061 198.316 423.297 198.749Z" fill="white"/>
<path opacity="0.1" d="M390.802 262.716C391.067 262.716 404.525 261.302 404.525 261.302C404.525 261.302 412.674 277.318 412.139 281.208C411.605 285.099 410.638 288.553 407.36 287.942C404.082 287.331 389.719 288.423 389.719 288.423L390.802 262.716Z" fill="black"/>
<path d="M390.268 261.653C390.538 261.653 403.995 260.239 403.995 260.239C403.995 260.239 412.139 276.279 411.61 280.126C411.081 283.974 410.103 287.47 406.83 286.86C403.557 286.249 389.185 287.341 389.185 287.341L390.268 261.653Z" fill="white"/>
<path d="M400.41 254.155C400.41 254.155 412.761 260.792 413.025 262.812C413.29 264.832 406.739 261.927 405.324 261.571C404.392 261.35 403.444 261.202 402.489 261.129L393.05 261.384L400.41 254.155Z" fill="#CF6F80"/>
<path opacity="0.1" d="M419.311 200.634C420.029 200.634 420.611 200.053 420.611 199.336C420.611 198.619 420.029 198.037 419.311 198.037C418.594 198.037 418.012 198.619 418.012 199.336C418.012 200.053 418.594 200.634 419.311 200.634Z" fill="black"/>
<path d="M419.311 200.105C420.029 200.105 420.611 199.524 420.611 198.807C420.611 198.09 420.029 197.508 419.311 197.508C418.594 197.508 418.012 198.09 418.012 198.807C418.012 199.524 418.594 200.105 419.311 200.105Z" fill="#3F3D56"/>
<path opacity="0.1" d="M421.703 256.848C422.421 256.848 423.003 256.267 423.003 255.55C423.003 254.832 422.421 254.251 421.703 254.251C420.986 254.251 420.404 254.832 420.404 255.55C420.404 256.267 420.986 256.848 421.703 256.848Z" fill="black"/>
<path d="M421.703 256.314C422.421 256.314 423.003 255.733 423.003 255.016C423.003 254.299 422.421 253.717 421.703 253.717C420.986 253.717 420.404 254.299 420.404 255.016C420.404 255.733 420.986 256.314 421.703 256.314Z" fill="#3F3D56"/>
<path opacity="0.1" d="M420.611 228.741C421.328 228.741 421.91 228.16 421.91 227.443C421.91 226.726 421.328 226.144 420.611 226.144C419.893 226.144 419.311 226.726 419.311 227.443C419.311 228.16 419.893 228.741 420.611 228.741Z" fill="black"/>
<path d="M420.611 228.212C421.328 228.212 421.91 227.631 421.91 226.914C421.91 226.196 421.328 225.615 420.611 225.615C419.893 225.615 419.311 226.196 419.311 226.914C419.311 227.631 419.893 228.212 420.611 228.212Z" fill="#3F3D56"/>
<path d="M450.568 260.859C450.568 260.859 451.454 262.187 450.568 262.783C449.683 263.38 450.655 264.909 450.655 264.909C450.655 264.909 448.446 266.198 449.418 267.367C450.39 268.535 449.774 273.783 449.774 273.783L447.117 278.203C447.117 278.203 447.276 281.035 447.286 284.864C447.286 290.837 446.934 299.235 444.99 303.063L445.25 334.474C445.25 334.474 435.946 337.874 428.158 336.836L427.003 286.432C427.003 286.432 428.687 257.849 429.308 252.366C429.672 249.519 429.82 246.649 429.751 243.781C429.751 243.781 429.486 235.201 428.596 231.223C428.596 231.223 427.633 213.966 427.537 209.191C427.494 206.906 427.614 200.24 427.749 193.901C427.898 186.971 428.066 180.434 428.066 180.434L426.31 166.54C426.31 166.54 428.066 166.366 428.596 167.069C428.833 167.29 429.091 167.488 429.366 167.66C432.403 169.709 443.117 176.01 443.117 176.01C443.117 176.01 449.047 178.366 450.467 181.743C451.887 185.119 452.874 187.514 453.562 188.476C454.25 189.438 454.626 193.959 454.626 193.959C454.626 193.959 456.667 202.279 458.26 203.688C459.853 205.098 460.999 214.043 460.999 214.043L446.92 225.105C446.92 225.105 445.683 243.507 445.418 244.218C445.153 244.93 450.568 260.859 450.568 260.859Z" fill="white"/>
<path d="M451.103 260.859C451.103 260.859 451.984 262.187 451.103 262.783C450.222 263.38 451.185 264.909 451.185 264.909C451.185 264.909 448.975 266.198 449.948 267.367C450.92 268.535 450.304 273.783 450.304 273.783L447.657 278.202C447.657 278.202 447.815 281.035 447.83 284.864C447.83 290.837 447.479 299.235 445.534 303.063L445.799 334.474C445.799 334.474 436.495 337.874 428.707 336.835L427.556 286.432C427.556 286.432 429.236 257.849 429.862 252.366C430.226 249.519 430.372 246.649 430.3 243.781C430.3 243.781 430.035 235.2 429.15 231.223C429.15 231.223 428.187 213.966 428.086 209.191C428.043 206.906 428.163 200.24 428.298 193.901C428.447 186.971 428.615 180.434 428.615 180.434L426.295 166.352C426.295 166.352 428.615 166.352 429.15 167.069C429.385 167.293 429.643 167.491 429.92 167.66C432.952 169.709 443.666 176.01 443.666 176.01C443.666 176.01 449.582 178.366 451.026 181.743C452.47 185.119 453.433 187.514 454.121 188.476C454.809 189.438 455.185 193.959 455.185 193.959C455.185 193.959 457.225 202.279 458.819 203.688C460.412 205.098 461.562 214.043 461.562 214.043L447.483 225.105C447.483 225.105 446.246 243.507 445.977 244.218C445.707 244.93 451.103 260.859 451.103 260.859Z" fill="white"/>
<path opacity="0.1" d="M434.242 184.518L435.517 188.221L428.822 194.954C428.971 188.024 429.14 181.488 429.14 181.488L426.82 167.41C426.82 167.41 429.14 167.41 429.674 168.127C429.909 168.351 430.167 168.549 430.444 168.718L436.133 185.114L434.242 184.518Z" fill="black"/>
<path d="M433.698 183.455L434.973 187.153L428.283 193.887C428.427 186.956 428.601 180.42 428.601 180.42L426.276 166.338C426.276 166.338 428.601 166.338 429.13 167.054C429.366 167.277 429.624 167.475 429.9 167.646L435.623 184.056L433.698 183.455Z" fill="white"/>
<path opacity="0.1" d="M433.698 146.811C433.7 148.544 433.427 150.266 432.889 151.914C432.799 151.929 432.706 151.926 432.617 151.904C432.527 151.883 432.443 151.844 432.369 151.789C432.239 147.46 430.112 143.391 427.489 139.933C426.751 138.89 425.858 137.966 424.841 137.192C423.812 136.42 422.532 136.058 421.251 136.177C419.807 136.374 418.531 137.355 417.073 137.481C415.148 137.639 413.424 136.307 411.514 136.244C410.737 136.251 409.97 136.423 409.265 136.75C408.56 137.077 407.934 137.551 407.427 138.139C406.422 139.324 405.676 140.705 405.237 142.194C404.48 144.454 404.068 146.814 404.015 149.197C403.991 150.543 403.861 152.231 402.609 152.722C402.704 151.732 402.591 150.734 402.279 149.79C401.967 148.846 401.461 147.977 400.795 147.239L400.766 147.205C400.766 147.071 400.766 146.946 400.766 146.811C400.766 142.446 402.501 138.26 405.59 135.173C408.679 132.087 412.868 130.353 417.237 130.353C421.605 130.353 425.794 132.087 428.883 135.173C431.972 138.26 433.708 142.446 433.708 146.811H433.698Z" fill="black"/>
<path d="M424.071 120.681C421.57 119.505 418.726 119.283 416.072 120.056C414.739 120.45 413.482 121.09 412.13 121.412C409.242 122.109 405.873 121.354 403.394 123.042C402.017 124.004 401.189 125.524 400.419 127.005L398.494 130.665C397.445 132.671 396.386 134.71 395.948 136.918C395.51 139.125 395.774 141.597 397.175 143.377C398.191 144.666 399.702 145.479 400.809 146.696C401.474 147.437 401.978 148.309 402.29 149.255C402.601 150.201 402.713 151.201 402.619 152.193C403.87 151.712 403.995 150.014 404.024 148.667C404.078 146.285 404.49 143.925 405.247 141.665C405.686 140.176 406.432 138.795 407.437 137.61C407.943 137.021 408.57 136.547 409.274 136.219C409.979 135.891 410.746 135.718 411.523 135.711C413.449 135.778 415.177 137.11 417.083 136.947C418.527 136.826 419.807 135.845 421.26 135.648C422.542 135.527 423.823 135.889 424.851 136.663C425.869 137.434 426.76 138.359 427.494 139.404C430.122 142.867 432.254 146.917 432.379 151.26C432.923 151.654 433.708 151.135 433.977 150.519C434.247 149.904 434.256 149.182 434.598 148.595C434.993 147.917 435.748 147.552 436.34 147.042C437.842 145.748 438.218 143.569 438.16 141.593C438.102 139.616 437.717 137.61 438.092 135.667C438.319 134.479 438.829 133.359 439.108 132.18C439.387 131.002 439.421 129.679 438.761 128.665C437.799 127.178 435.772 126.88 434.006 126.741C431.999 126.568 430.204 126.789 428.923 125.101C428.321 124.221 427.644 123.394 426.902 122.629C426.637 122.374 424.071 120.787 424.071 120.681Z" fill="#512E4E"/>
<path opacity="0.1" d="M371.742 222.104L366.717 212.817L365.124 227.149C365.124 227.149 366.009 233.517 365.831 234.493C365.653 235.47 369.46 244.223 369.46 244.223C369.46 244.223 382.037 266.611 387.173 267.761L404.501 255.372L399.899 249.533C399.899 249.533 398.306 248.912 397.907 249.533C397.907 249.533 389.358 234.845 388.477 233.786C387.597 232.728 387.765 230.598 387.765 230.598C387.765 230.598 386.437 229.184 386.879 227.856C387.322 226.529 384.338 221.931 384.338 221.931L387.082 219.367L371.742 222.104Z" fill="black"/>
<path d="M366.982 211.754L365.653 212.817L364.06 227.149C364.06 227.149 364.946 233.517 364.768 234.493C364.59 235.47 368.402 244.223 368.402 244.223C368.402 244.223 380.974 266.612 386.11 267.761L403.466 255.372L398.86 249.533C398.86 249.533 397.267 248.912 396.867 249.533C396.867 249.533 388.324 234.845 387.438 233.786C386.552 232.728 386.73 230.598 386.73 230.598C386.73 230.598 385.402 229.184 385.845 227.856C386.288 226.529 383.275 221.931 383.275 221.931L386.018 219.368L366.982 211.754Z" fill="white"/>
<path opacity="0.1" d="M449.418 267.92C450.381 269.088 449.774 274.34 449.774 274.34L447.117 278.732C447.117 278.732 447.276 281.569 447.286 285.398L442.819 286.792C442.415 286.918 441.986 286.946 441.569 286.873C441.152 286.799 440.758 286.628 440.421 286.372C440.084 286.116 439.813 285.783 439.63 285.401C439.448 285.019 439.36 284.599 439.373 284.176L440.148 259.359L450.568 263.336C449.683 263.952 450.655 265.462 450.655 265.462C450.655 265.462 448.446 266.751 449.418 267.92Z" fill="black"/>
<path d="M449.948 267.391C450.91 268.555 450.304 273.807 450.304 273.807L447.656 278.203C447.656 278.203 447.815 281.035 447.83 284.864L443.281 286.283C442.886 286.406 442.467 286.434 442.06 286.363C441.652 286.292 441.267 286.124 440.937 285.874C440.607 285.624 440.342 285.299 440.164 284.926C439.985 284.553 439.899 284.142 439.912 283.729L440.687 258.825L451.103 262.812C450.212 263.428 451.185 264.938 451.185 264.938C451.185 264.938 448.975 266.222 449.948 267.391Z" fill="white"/>
<path d="M453.403 255.55C453.403 255.55 452.696 260.066 450.924 260.33C449.153 260.595 448.359 267.636 446.593 267.391C444.826 267.145 445.996 260.84 446.058 259.618C446.121 258.397 444.133 253.337 445.615 252.188C447.098 251.038 451.815 252.188 451.815 252.188L453.403 255.55Z" fill="#CF6F80"/>
<path opacity="0.1" d="M457.148 220.777L460.484 214.043C460.484 214.043 461.817 219.175 461.817 221.917C461.817 224.658 463.675 224.927 463.675 224.927C463.675 224.927 465.711 227.332 464.637 229.088C463.564 230.843 463.136 235.191 463.136 235.191C463.136 235.191 463.487 243.507 461.894 244.656C460.301 245.805 459.944 248.552 459.944 248.552C459.944 248.552 457.023 253.77 457.114 255.011C457.206 256.252 453.042 264.654 453.042 264.654C453.042 264.654 455.078 254.213 443.214 249.701C443.214 249.701 443.122 246.161 444.008 245.19C444.893 244.218 446.275 243.747 445.408 238.861C444.542 233.974 445.158 228.082 445.158 226.904C445.158 225.726 447.815 218.382 447.815 218.382L457.148 220.777Z" fill="black"/>
<path d="M458.631 213.081L461.547 214.043C461.547 214.043 462.881 219.175 462.881 221.917C462.881 224.658 464.739 224.927 464.739 224.927C464.739 224.927 466.775 227.332 465.701 229.088C464.628 230.843 464.195 235.191 464.195 235.191C464.195 235.191 464.551 243.507 462.958 244.656C461.365 245.805 461.032 248.552 461.032 248.552C461.032 248.552 458.111 253.77 458.202 255.011C458.294 256.252 454.125 264.654 454.125 264.654C454.125 264.654 456.161 254.213 444.297 249.701C444.297 249.701 444.21 246.161 445.096 245.19C445.981 244.218 447.363 243.747 446.496 238.861C445.63 233.974 446.246 228.082 446.246 226.904C446.246 225.726 448.903 218.382 448.903 218.382L458.631 213.081Z" fill="white"/>
<path opacity="0.1" d="M394.191 387.605C394.191 387.605 398.841 384.686 401.892 386.807C404.944 388.928 394.191 387.605 394.191 387.605Z" fill="black"/>
<path opacity="0.1" d="M430.329 378.577C430.329 378.577 434.444 378.048 437.9 381.766C441.356 385.484 430.329 378.577 430.329 378.577Z" fill="black"/>
<g opacity="0.1">
<path opacity="0.1" d="M436.34 145.984C435.748 146.498 434.988 146.859 434.593 147.537C434.256 148.119 434.247 148.84 433.977 149.461C433.708 150.081 432.923 150.596 432.374 150.202C432.249 145.873 430.117 141.809 427.494 138.346C426.76 137.303 425.869 136.379 424.851 135.609C423.822 134.834 422.539 134.47 421.256 134.59C419.812 134.787 418.541 135.768 417.083 135.893C415.157 136.052 413.429 134.72 411.518 134.657C410.742 134.663 409.976 134.835 409.272 135.162C408.568 135.489 407.942 135.963 407.437 136.552C406.432 137.736 405.686 139.117 405.247 140.607C404.49 142.866 404.078 145.227 404.024 147.609C403.995 148.951 403.87 150.625 402.628 151.125C402.657 151.482 402.657 151.841 402.628 152.198C403.885 151.717 404.01 150.019 404.039 148.672C404.093 146.29 404.505 143.929 405.261 141.669C405.701 140.18 406.446 138.799 407.451 137.615C407.957 137.026 408.583 136.552 409.287 136.224C409.99 135.897 410.756 135.723 411.533 135.715C413.458 135.783 415.191 137.115 417.097 136.951C418.541 136.831 419.821 135.85 421.27 135.653C422.553 135.532 423.835 135.894 424.866 136.668C425.883 137.439 426.775 138.364 427.508 139.409C430.131 142.872 432.264 146.921 432.389 151.265C432.937 151.659 433.722 151.139 433.992 150.524C434.261 149.908 434.271 149.187 434.608 148.6C435.002 147.922 435.763 147.556 436.355 147.047C437.857 145.753 438.232 143.574 438.174 141.597C438.174 141.535 438.174 141.477 438.174 141.415C438.078 143.136 437.621 144.882 436.34 145.984Z" fill="black"/>
<path opacity="0.1" d="M400.804 145.647C399.702 144.43 398.191 143.613 397.175 142.324C396.317 141.186 395.829 139.813 395.775 138.389C395.624 140.169 396.121 141.944 397.175 143.387C398.191 144.675 399.702 145.488 400.804 146.705C401.869 147.895 402.509 149.403 402.624 150.995C402.696 150.027 402.572 149.055 402.26 148.136C401.947 147.217 401.452 146.37 400.804 145.647Z" fill="black"/>
<path opacity="0.1" d="M439.108 131.122C438.824 132.301 438.319 133.421 438.088 134.609C437.949 135.412 437.899 136.229 437.938 137.043C437.954 136.583 438.004 136.125 438.088 135.672C438.319 134.484 438.824 133.363 439.108 132.185C439.271 131.535 439.325 130.862 439.267 130.194C439.236 130.507 439.183 130.817 439.108 131.122Z" fill="black"/>
</g>
<path opacity="0.1" d="M63.8862 403.462C89.7885 403.462 110.786 400.092 110.786 395.935C110.786 391.778 89.7885 388.408 63.8862 388.408C37.9838 388.408 16.9858 391.778 16.9858 395.935C16.9858 400.092 37.9838 403.462 63.8862 403.462Z" fill="#469BB1"/>
<path d="M65.3978 251.74H62.3799V319.637H65.3978V251.74Z" fill="#535461"/>
<path d="M84.3667 319.435L84.1742 322.494L83.9095 326.822L83.7988 328.621L83.5292 332.949L83.4137 334.748L83.149 339.077L80.1022 388.168C79.9723 390.28 79.0409 392.263 77.4981 393.713C75.9552 395.162 73.9171 395.969 71.7993 395.969H55.9782C53.8546 395.97 51.8111 395.158 50.2672 393.702C48.7232 392.245 47.7958 390.253 47.6753 388.134L44.6285 339.043L44.3638 334.715L44.2531 332.916L43.9787 328.587L43.868 326.788L43.6033 322.46L43.4108 319.401C43.3775 318.815 43.4639 318.228 43.6648 317.676C43.8657 317.124 44.1769 316.619 44.5795 316.191C44.982 315.763 45.4675 315.421 46.0063 315.187C46.5452 314.953 47.1261 314.83 47.7138 314.827H80.0685C80.6588 314.831 81.2422 314.954 81.7829 315.191C82.3235 315.428 82.81 315.773 83.2126 316.204C83.6151 316.636 83.9251 317.145 84.1235 317.7C84.322 318.256 84.4048 318.846 84.3667 319.435Z" fill="#3F3D56"/>
<path d="M84.1743 322.489L83.9048 326.808H43.8682L43.5986 322.489H84.1743Z" fill="#9D9CB5"/>
<path d="M83.7937 328.606L83.529 332.925H44.2481L43.9785 328.606H83.7937Z" fill="#9D9CB5"/>
<path d="M83.4136 334.729L83.1489 339.043H44.6284L44.3589 334.729H83.4136Z" fill="#9D9CB5"/>
<path d="M39.0114 277.193C56.5894 289.899 63.9103 309.772 63.9103 309.772C63.9103 309.772 42.732 309.046 25.1492 296.339C7.56642 283.632 0.23584 263.774 0.23584 263.774C0.23584 263.774 21.4141 264.486 39.0114 277.193Z" fill="#469BB1"/>
<path d="M0.23584 263.774C0.23584 263.774 22.218 275.966 29.2694 286.061C36.3208 296.157 63.8911 309.782 63.8911 309.782" stroke="#535461" stroke-width="2" stroke-miterlimit="10"/>
<path d="M50.3372 251.596C59.9059 258.507 63.8913 269.324 63.8913 269.324C63.8913 269.324 52.3395 268.93 42.7948 262.018C33.2502 255.107 29.2407 244.286 29.2407 244.286C29.2407 244.286 40.7733 244.68 50.3372 251.596Z" fill="#469BB1"/>
<path d="M29.2407 244.286C29.2407 244.286 41.2065 250.923 45.0474 256.415C48.8884 261.908 63.8913 269.324 63.8913 269.324" stroke="#535461" stroke-width="2" stroke-miterlimit="10"/>
<path d="M77.792 268.776C66.8033 280.843 64.4785 296.613 64.4785 296.613C64.4785 296.613 79.9724 292.814 90.9514 280.742C101.93 268.67 104.265 252.904 104.265 252.904C104.265 252.904 88.7806 256.709 77.792 268.776Z" fill="#469BB1"/>
<path d="M104.274 252.909C104.274 252.909 89.9599 265.279 86.321 273.802C82.6822 282.324 64.4785 296.613 64.4785 296.613" stroke="#535461" stroke-width="2" stroke-miterlimit="10"/>
</g>
<defs>
<linearGradient id="paint0_linear_171_1435" x1="224.071" y1="401.865" x2="224.071" y2="124.043" gradientUnits="userSpaceOnUse">
<stop stop-color="#808080" stop-opacity="0.25"/>
<stop offset="0.54" stop-color="#808080" stop-opacity="0.12"/>
<stop offset="1" stop-color="#808080" stop-opacity="0.1"/>
</linearGradient>
<linearGradient id="paint1_linear_171_1435" x1="415.09" y1="414.028" x2="415.09" y2="118.079" gradientUnits="userSpaceOnUse">
<stop stop-color="#808080" stop-opacity="0.25"/>
<stop offset="0.54" stop-color="#808080" stop-opacity="0.12"/>
<stop offset="1" stop-color="#808080" stop-opacity="0.1"/>
</linearGradient>
<clipPath id="clip0_171_1435">
<rect width="562" height="415" fill="white"/>
</clipPath>
</defs>
</svg>
