<svg width="53" height="39" viewBox="0 0 53 39" fill="none" xmlns="http://www.w3.org/2000/svg">
<path d="M27.0761 1.02132e-05C37.244 1.02132e-05 45.5973 7.57366 47.0087 17.4107H53L42.9185 29.0178L32.837 17.4107H39.5196C38.8752 14.5702 37.2938 12.0336 35.0337 10.2154C32.7737 8.39706 29.9684 7.40443 27.0761 7.39956C22.8995 7.39956 19.2125 9.45982 16.8793 12.5647L11.9538 6.90625C13.8391 4.73443 16.1641 2.99441 18.7725 1.80318C21.3809 0.611946 24.2122 -0.00289007 27.0761 1.02132e-05ZM25.9239 39C15.7848 39 7.40272 31.4263 5.9913 21.5893H0L10.0815 9.98214C13.4516 13.8415 16.7929 17.7299 20.163 21.5893H13.4804C14.1248 24.4298 15.7062 26.9663 17.9663 28.7846C20.2263 30.6029 23.0316 31.5955 25.9239 31.6004C30.1005 31.6004 33.7875 29.5402 36.1206 26.4352L41.0462 32.0937C39.1627 34.2677 36.8381 36.0093 34.2293 37.2007C31.6205 38.3921 28.7883 39.0057 25.9239 39Z" fill="white"/>
</svg>
